<svg xmlns="http://www.w3.org/2000/svg" version="1.0" viewBox="0 0 960 600">
    <defs>
        <clipPath id="a">
            <path d="M459.08 279.08h42v42h-42Zm0 0"/>
        </clipPath>
    </defs>
    <g clip-path="url(#a)">
        <path fill="#225378" d="M480 321.08a20.27 20.27 0 0 0 4.1-.4 22.18 22.18 0 0 0 3.97-1.2 20.94 20.94 0 0 0 11.4-11.41 20.7 20.7 0 0 0 1.61-8.07 20.27 20.27 0 0 0-.4-4.12 21.86 21.86 0 0 0-2.09-5.83 20.86 20.86 0 0 0-6.88-7.59 20.86 20.86 0 0 0-9.65-3.45 21.46 21.46 0 0 0-8.19.8 21.4 21.4 0 0 0-5.59 2.65 21.3 21.3 0 0 0-6.88 7.6 20.97 20.97 0 0 0-1.58 16.06 21.83 21.83 0 0 0 1.58 3.82 20.86 20.86 0 0 0 6.88 7.6 20.86 20.86 0 0 0 9.65 3.44c.69.07 1.37.1 2.07.1Zm-12.05-22.58 8.44-8.44a2.1 2.1 0 0 1 2.3-.46 2.1 2.1 0 0 1 1.15 1.15 2.05 2.05 0 0 1 0 1.62c-.1.26-.26.49-.46.69l-4.84 4.83h16a2.12 2.12 0 0 1 2.1 2.1 2.11 2.11 0 0 1-2.1 2.12h-16l4.84 4.82a2.1 2.1 0 0 1-.68 3.46c-.26.1-.53.16-.81.16s-.55-.05-.81-.16a2.1 2.1 0 0 1-.69-.46l-8.44-8.44c-.19-.2-.34-.43-.44-.7a2.04 2.04 0 0 1 0-1.6c.1-.26.25-.5.44-.69Zm0 0"/>
    </g>
</svg>