<svg xmlns="http://www.w3.org/2000/svg" xmlns:xlink="http://www.w3.org/1999/xlink" width="1280" zoomAndPan="magnify" viewBox="0 0 960 599.999999" height="800" preserveAspectRatio="xMidYMid meet" version="1.0"><defs><clipPath id="2877d27e5d"><path d="M 459.082031 279.082031 L 501.082031 279.082031 L 501.082031 321.082031 L 459.082031 321.082031 Z M 459.082031 279.082031 " clip-rule="nonzero"/></clipPath></defs><g clip-path="url(#2877d27e5d)"><path fill="#225378" d="M 479.996094 321.082031 C 480.6875 321.082031 481.375 321.050781 482.0625 320.980469 C 482.75 320.914062 483.433594 320.8125 484.109375 320.679688 C 484.785156 320.542969 485.457031 320.375 486.117188 320.175781 C 486.777344 319.976562 487.425781 319.742188 488.066406 319.476562 C 488.703125 319.214844 489.328125 318.917969 489.9375 318.59375 C 490.546875 318.269531 491.136719 317.914062 491.710938 317.53125 C 492.285156 317.144531 492.839844 316.734375 493.375 316.296875 C 493.90625 315.859375 494.417969 315.394531 494.90625 314.90625 C 495.394531 314.417969 495.859375 313.90625 496.296875 313.375 C 496.734375 312.839844 497.144531 312.285156 497.53125 311.710938 C 497.914062 311.136719 498.269531 310.546875 498.59375 309.9375 C 498.917969 309.328125 499.214844 308.703125 499.476562 308.066406 C 499.742188 307.425781 499.976562 306.777344 500.175781 306.117188 C 500.375 305.457031 500.542969 304.785156 500.679688 304.109375 C 500.8125 303.433594 500.914062 302.75 500.980469 302.0625 C 501.050781 301.375 501.082031 300.6875 501.082031 299.996094 C 501.082031 299.304688 501.050781 298.617188 500.980469 297.929688 C 500.914062 297.242188 500.8125 296.558594 500.679688 295.882812 C 500.542969 295.203125 500.375 294.535156 500.175781 293.875 C 499.976562 293.214844 499.742188 292.5625 499.476562 291.925781 C 499.214844 291.289062 498.917969 290.664062 498.59375 290.054688 C 498.269531 289.445312 497.914062 288.855469 497.53125 288.28125 C 497.144531 287.707031 496.734375 287.152344 496.296875 286.617188 C 495.859375 286.082031 495.394531 285.574219 494.90625 285.085938 C 494.417969 284.597656 493.90625 284.132812 493.375 283.695312 C 492.839844 283.257812 492.285156 282.84375 491.710938 282.460938 C 491.136719 282.078125 490.546875 281.722656 489.9375 281.398438 C 489.328125 281.070312 488.703125 280.777344 488.066406 280.511719 C 487.425781 280.25 486.777344 280.015625 486.117188 279.816406 C 485.457031 279.613281 484.785156 279.449219 484.109375 279.3125 C 483.433594 279.179688 482.75 279.078125 482.0625 279.007812 C 481.375 278.941406 480.6875 278.90625 479.996094 278.90625 C 479.304688 278.90625 478.617188 278.941406 477.929688 279.007812 C 477.242188 279.078125 476.558594 279.179688 475.882812 279.3125 C 475.203125 279.449219 474.535156 279.613281 473.875 279.816406 C 473.214844 280.015625 472.5625 280.25 471.925781 280.511719 C 471.289062 280.777344 470.664062 281.070312 470.054688 281.398438 C 469.445312 281.722656 468.855469 282.078125 468.28125 282.460938 C 467.707031 282.84375 467.152344 283.257812 466.617188 283.695312 C 466.082031 284.132812 465.574219 284.597656 465.085938 285.085938 C 464.597656 285.574219 464.132812 286.082031 463.695312 286.617188 C 463.257812 287.152344 462.84375 287.707031 462.460938 288.28125 C 462.078125 288.855469 461.722656 289.445312 461.398438 290.054688 C 461.070312 290.664062 460.777344 291.289062 460.511719 291.925781 C 460.25 292.5625 460.015625 293.214844 459.816406 293.875 C 459.613281 294.535156 459.449219 295.203125 459.3125 295.882812 C 459.179688 296.558594 459.078125 297.242188 459.007812 297.929688 C 458.941406 298.617188 458.90625 299.304688 458.90625 299.996094 C 458.90625 300.6875 458.941406 301.375 459.007812 302.0625 C 459.078125 302.75 459.179688 303.433594 459.3125 304.109375 C 459.449219 304.785156 459.613281 305.457031 459.816406 306.117188 C 460.015625 306.777344 460.25 307.425781 460.511719 308.066406 C 460.777344 308.703125 461.070312 309.328125 461.398438 309.9375 C 461.722656 310.546875 462.078125 311.136719 462.460938 311.710938 C 462.84375 312.285156 463.257812 312.839844 463.695312 313.375 C 464.132812 313.90625 464.597656 314.417969 465.085938 314.90625 C 465.574219 315.394531 466.082031 315.859375 466.617188 316.296875 C 467.152344 316.734375 467.707031 317.144531 468.28125 317.53125 C 468.855469 317.914062 469.445312 318.269531 470.054688 318.59375 C 470.664062 318.917969 471.289062 319.214844 471.925781 319.476562 C 472.5625 319.742188 473.214844 319.976562 473.875 320.175781 C 474.535156 320.375 475.203125 320.542969 475.882812 320.679688 C 476.558594 320.8125 477.242188 320.914062 477.929688 320.980469 C 478.617188 321.050781 479.304688 321.082031 479.996094 321.082031 Z M 467.953125 298.5 L 476.390625 290.0625 C 476.585938 289.863281 476.816406 289.710938 477.074219 289.601562 C 477.335938 289.492188 477.605469 289.4375 477.886719 289.4375 C 478.167969 289.4375 478.4375 289.492188 478.699219 289.601562 C 478.957031 289.710938 479.1875 289.863281 479.382812 290.0625 C 479.582031 290.261719 479.738281 290.488281 479.84375 290.75 C 479.953125 291.007812 480.007812 291.277344 480.007812 291.558594 C 480.007812 291.839844 479.953125 292.113281 479.84375 292.371094 C 479.738281 292.628906 479.582031 292.859375 479.382812 293.058594 L 474.535156 297.886719 L 490.539062 297.886719 C 490.820312 297.886719 491.089844 297.941406 491.347656 298.046875 C 491.605469 298.152344 491.832031 298.304688 492.03125 298.503906 C 492.226562 298.703125 492.378906 298.929688 492.488281 299.1875 C 492.59375 299.445312 492.648438 299.714844 492.648438 299.996094 C 492.648438 300.273438 492.59375 300.542969 492.488281 300.800781 C 492.378906 301.0625 492.226562 301.289062 492.03125 301.488281 C 491.832031 301.683594 491.605469 301.835938 491.347656 301.945312 C 491.089844 302.050781 490.820312 302.105469 490.539062 302.105469 L 474.535156 302.105469 L 479.382812 306.933594 C 479.582031 307.132812 479.734375 307.359375 479.84375 307.621094 C 479.949219 307.878906 480.003906 308.148438 480.003906 308.429688 C 480.003906 308.710938 479.949219 308.980469 479.84375 309.242188 C 479.734375 309.5 479.582031 309.730469 479.382812 309.929688 C 479.183594 310.125 478.957031 310.28125 478.695312 310.386719 C 478.4375 310.496094 478.167969 310.546875 477.886719 310.546875 C 477.605469 310.546875 477.335938 310.496094 477.078125 310.386719 C 476.816406 310.28125 476.589844 310.125 476.390625 309.929688 L 467.953125 301.492188 C 467.761719 301.289062 467.613281 301.058594 467.511719 300.796875 C 467.292969 300.261719 467.292969 299.726562 467.511719 299.195312 C 467.613281 298.933594 467.761719 298.699219 467.953125 298.5 Z M 467.953125 298.5 " fill-opacity="1" fill-rule="nonzero"/></g></svg>