<svg xmlns="http://www.w3.org/2000/svg" xmlns:xlink="http://www.w3.org/1999/xlink" width="1280" zoomAndPan="magnify" viewBox="0 0 960 599.999999" height="800" preserveAspectRatio="xMidYMid meet" version="1.0"><defs><clipPath id="ef2c7b88db"><path d="M 434 214 L 564.535156 214 L 564.535156 363 L 434 363 Z M 434 214 " clip-rule="nonzero"/></clipPath><clipPath id="536c351056"><path d="M 490 248 L 564.535156 248 L 564.535156 363 L 490 363 Z M 490 248 " clip-rule="nonzero"/></clipPath><clipPath id="8adb8f84d4"><path d="M 440 347 L 521 347 L 521 404.410156 L 440 404.410156 Z M 440 347 " clip-rule="nonzero"/></clipPath><clipPath id="409ed7be98"><path d="M 379.285156 262 L 491 262 L 491 392 L 379.285156 392 Z M 379.285156 262 " clip-rule="nonzero"/></clipPath></defs><g clip-path="url(#ef2c7b88db)"><path fill="#e6e7e8" d="M 493.3125 361.355469 L 436.109375 325.792969 C 434.035156 324.503906 433.398438 321.777344 434.6875 319.699219 L 498.765625 216.621094 C 500.054688 214.546875 502.785156 213.910156 504.859375 215.199219 L 562.0625 250.761719 C 564.136719 252.050781 564.773438 254.777344 563.484375 256.855469 L 499.40625 359.929688 C 498.113281 362.007812 495.386719 362.644531 493.3125 361.355469 " fill-opacity="1" fill-rule="nonzero"/></g><g clip-path="url(#536c351056)"><path fill="#ebf3f9" d="M 493.457031 361.441406 L 490.226562 359.433594 L 558.976562 248.839844 L 562.207031 250.851562 C 564.203125 252.089844 564.8125 254.714844 563.574219 256.710938 L 499.316406 360.074219 C 498.074219 362.070312 495.449219 362.683594 493.457031 361.441406 " fill-opacity="1" fill-rule="nonzero"/></g><path fill="#e6e7e8" d="M 466.839844 401.824219 L 411.53125 367.441406 C 408.933594 365.828125 408.136719 362.410156 409.75 359.8125 L 429.832031 327.515625 C 431.445312 324.917969 434.859375 324.121094 437.457031 325.734375 L 492.769531 360.117188 C 495.367188 361.734375 496.164062 365.148438 494.546875 367.746094 L 474.46875 400.046875 C 472.851562 402.644531 469.4375 403.441406 466.839844 401.824219 " fill-opacity="1" fill-rule="nonzero"/><path fill="#ebf3f9" d="M 466.804688 401.800781 L 464.699219 400.492188 L 490.628906 358.789062 L 493.832031 360.78125 C 495.84375 362.03125 496.460938 364.671875 495.210938 366.679688 L 474.492188 400.007812 C 472.863281 402.625 469.421875 403.429688 466.804688 401.800781 " fill-opacity="1" fill-rule="nonzero"/><path fill="#58595b" d="M 535.902344 250.292969 C 541.640625 247.894531 537.851562 245.03125 534.703125 245.316406 C 532.183594 245.546875 529.667969 245.847656 527.15625 246.132812 C 526.875 246.164062 526.671875 246.117188 526.460938 245.914062 C 526.308594 245.761719 524.734375 244.339844 522.832031 242.625 L 523.546875 241.859375 C 524.054688 241.320312 524.023438 240.46875 523.484375 239.964844 C 522.945312 239.457031 522.097656 239.488281 521.589844 240.027344 L 520.835938 240.832031 C 520.613281 240.628906 520.386719 240.425781 520.164062 240.226562 L 520.929688 239.410156 C 521.4375 238.871094 521.410156 238.019531 520.867188 237.515625 C 520.328125 237.007812 519.480469 237.035156 518.972656 237.578125 L 518.171875 238.433594 C 516.910156 237.304688 515.941406 236.4375 515.691406 236.210938 C 515.226562 235.796875 514.859375 235.640625 514.183594 235.746094 C 513.957031 235.78125 511.785156 236.117188 510.863281 236.257812 C 513.507812 240.253906 516.117188 244.199219 518.730469 248.152344 C 518.652344 248.195312 510.609375 250.90625 506.617188 252.230469 C 506.492188 252.273438 506.277344 252.210938 506.175781 252.121094 C 505 251.070312 503.839844 250.003906 502.671875 248.949219 C 502.589844 248.875 502.460938 248.78125 502.371094 248.796875 C 501.804688 248.910156 501.242188 249.046875 500.734375 249.164062 C 502.097656 251.503906 503.929688 254.734375 503.929688 254.734375 C 503.929688 254.734375 503.789062 259.410156 503.707031 261.894531 C 504.171875 261.777344 504.675781 261.671875 505.167969 261.519531 C 505.316406 261.472656 505.484375 261.320312 505.542969 261.175781 C 506.121094 259.742188 506.691406 258.300781 507.238281 256.855469 C 507.328125 256.609375 507.445312 256.527344 507.695312 256.496094 C 509.625 256.246094 517.980469 255.101562 520.289062 254.789062 C 519.6875 259.539062 519.097656 264.226562 518.496094 268.972656 C 519.734375 268.574219 520.882812 268.195312 522.042969 267.847656 C 522.375 267.746094 522.554688 267.585938 522.679688 267.253906 C 522.859375 266.789062 523.777344 264.484375 524.824219 261.863281 L 526.523438 262.359375 C 527.234375 262.566406 527.976562 262.160156 528.183594 261.449219 C 528.390625 260.738281 527.984375 259.992188 527.273438 259.785156 L 525.824219 259.363281 C 525.9375 259.082031 526.050781 258.800781 526.164062 258.523438 L 527.527344 258.917969 C 528.238281 259.128906 528.980469 258.71875 529.1875 258.007812 C 529.394531 257.296875 528.988281 256.554688 528.277344 256.347656 L 527.167969 256.019531 C 527.703125 254.6875 528.117188 253.65625 528.277344 253.265625 C 528.339844 253.117188 528.535156 252.988281 528.695312 252.929688 C 531.09375 252.046875 533.542969 251.28125 535.902344 250.292969 " fill-opacity="1" fill-rule="nonzero"/><path fill="#58595b" d="M 524.007812 288.800781 L 521.566406 287.28125 L 487.222656 342.527344 L 489.667969 344.046875 Z M 524.007812 288.800781 " fill-opacity="1" fill-rule="evenodd"/><path fill="#58595b" d="M 517.394531 284.6875 L 514.949219 283.167969 L 499.816406 307.507812 L 502.261719 309.027344 Z M 517.394531 284.6875 " fill-opacity="1" fill-rule="evenodd"/><path fill="#58595b" d="M 484.316406 264.125 L 481.871094 262.605469 L 455.523438 304.992188 L 457.96875 306.511719 Z M 484.316406 264.125 " fill-opacity="1" fill-rule="evenodd"/><path fill="#c0779d" d="M 560.527344 257.183594 L 557.652344 255.394531 L 542.410156 279.914062 L 545.285156 281.703125 Z M 560.527344 257.183594 " fill-opacity="1" fill-rule="evenodd"/><path fill="#58595b" d="M 441.9375 329.59375 C 441.863281 329.59375 441.785156 329.574219 441.71875 329.53125 L 438.996094 327.839844 C 438.804688 327.71875 438.746094 327.464844 438.867188 327.273438 C 438.984375 327.078125 439.238281 327.019531 439.433594 327.140625 L 442.152344 328.832031 C 442.347656 328.953125 442.40625 329.207031 442.285156 329.398438 C 442.207031 329.523438 442.074219 329.59375 441.9375 329.59375 M 447.378906 332.976562 C 447.304688 332.976562 447.230469 332.957031 447.164062 332.914062 L 444.441406 331.222656 C 444.246094 331.101562 444.1875 330.847656 444.308594 330.65625 C 444.429688 330.460938 444.683594 330.402344 444.875 330.523438 L 447.597656 332.214844 C 447.789062 332.335938 447.851562 332.589844 447.730469 332.78125 C 447.652344 332.90625 447.515625 332.976562 447.378906 332.976562 M 452.824219 336.359375 C 452.75 336.359375 452.671875 336.339844 452.605469 336.296875 L 449.882812 334.605469 C 449.691406 334.484375 449.632812 334.234375 449.75 334.039062 C 449.871094 333.847656 450.125 333.785156 450.320312 333.90625 L 453.039062 335.597656 C 453.234375 335.71875 453.292969 335.972656 453.171875 336.164062 C 453.09375 336.292969 452.960938 336.359375 452.824219 336.359375 M 458.265625 339.742188 C 458.191406 339.742188 458.117188 339.722656 458.050781 339.683594 L 455.328125 337.988281 C 455.132812 337.871094 455.074219 337.617188 455.195312 337.421875 C 455.316406 337.230469 455.570312 337.171875 455.761719 337.289062 L 458.484375 338.984375 C 458.675781 339.101562 458.734375 339.355469 458.617188 339.550781 C 458.539062 339.675781 458.402344 339.742188 458.265625 339.742188 M 463.710938 343.128906 C 463.636719 343.128906 463.558594 343.109375 463.492188 343.066406 L 460.769531 341.375 C 460.578125 341.253906 460.519531 341 460.636719 340.808594 C 460.757812 340.613281 461.011719 340.554688 461.207031 340.675781 L 463.925781 342.367188 C 464.121094 342.488281 464.179688 342.742188 464.058594 342.933594 C 463.980469 343.058594 463.847656 343.128906 463.710938 343.128906 M 469.152344 346.511719 C 469.078125 346.511719 469.003906 346.492188 468.933594 346.449219 L 466.214844 344.757812 C 466.019531 344.636719 465.960938 344.382812 466.082031 344.191406 C 466.203125 343.996094 466.457031 343.9375 466.648438 344.058594 L 469.371094 345.75 C 469.5625 345.871094 469.621094 346.125 469.503906 346.316406 C 469.425781 346.441406 469.289062 346.511719 469.152344 346.511719 M 474.59375 349.894531 C 474.519531 349.894531 474.445312 349.875 474.378906 349.832031 L 471.65625 348.140625 C 471.464844 348.019531 471.40625 347.765625 471.523438 347.574219 C 471.644531 347.382812 471.898438 347.320312 472.089844 347.441406 L 474.8125 349.132812 C 475.007812 349.253906 475.066406 349.507812 474.945312 349.699219 C 474.867188 349.828125 474.734375 349.894531 474.59375 349.894531 M 480.039062 353.277344 C 479.964844 353.277344 479.890625 353.257812 479.820312 353.21875 L 477.101562 351.523438 C 476.90625 351.40625 476.847656 351.152344 476.96875 350.957031 C 477.089844 350.765625 477.339844 350.707031 477.535156 350.824219 L 480.257812 352.519531 C 480.449219 352.636719 480.507812 352.890625 480.390625 353.085938 C 480.3125 353.210938 480.175781 353.277344 480.039062 353.277344 M 485.480469 356.664062 C 485.40625 356.664062 485.332031 356.644531 485.265625 356.601562 L 482.542969 354.910156 C 482.351562 354.789062 482.292969 354.535156 482.410156 354.34375 C 482.53125 354.148438 482.785156 354.089844 482.976562 354.210938 L 485.699219 355.902344 C 485.894531 356.023438 485.953125 356.277344 485.832031 356.46875 C 485.753906 356.59375 485.621094 356.664062 485.480469 356.664062 M 490.925781 360.046875 C 490.851562 360.046875 490.777344 360.027344 490.707031 359.984375 L 487.988281 358.292969 C 487.792969 358.171875 487.734375 357.917969 487.855469 357.726562 C 487.972656 357.53125 488.226562 357.472656 488.421875 357.59375 L 491.144531 359.285156 C 491.335938 359.40625 491.394531 359.660156 491.273438 359.851562 C 491.195312 359.976562 491.0625 360.046875 490.925781 360.046875 " fill-opacity="1" fill-rule="nonzero"/><path fill="#58595b" d="M 495.046875 362.609375 C 494.972656 362.609375 494.894531 362.585938 494.828125 362.546875 L 493.429688 361.675781 C 493.238281 361.554688 493.175781 361.300781 493.296875 361.109375 C 493.417969 360.917969 493.671875 360.855469 493.863281 360.976562 L 495.261719 361.847656 C 495.457031 361.964844 495.515625 362.21875 495.394531 362.414062 C 495.316406 362.539062 495.183594 362.609375 495.046875 362.609375 " fill-opacity="1" fill-rule="nonzero"/><path fill="#c0779d" d="M 490.972656 364.734375 L 490.109375 364.199219 L 480.992188 378.867188 L 481.851562 379.402344 Z M 490.972656 364.734375 " fill-opacity="1" fill-rule="evenodd"/><path fill="#c0779d" d="M 492.847656 365.902344 L 491.984375 365.363281 L 487.582031 372.449219 L 488.445312 372.984375 Z M 492.847656 365.902344 " fill-opacity="1" fill-rule="evenodd"/><path fill="#c0779d" d="M 488.132812 373.488281 L 487.269531 372.949219 L 482.867188 380.035156 L 483.730469 380.570312 Z M 488.132812 373.488281 " fill-opacity="1" fill-rule="evenodd"/><path fill="#c0779d" d="M 482.113281 383.171875 L 479.375 381.46875 L 469.242188 397.765625 L 471.980469 399.46875 Z M 482.113281 383.171875 " fill-opacity="1" fill-rule="evenodd"/><path fill="#58595b" d="M 473.160156 358.570312 L 470.714844 357.050781 L 458.441406 376.792969 L 460.886719 378.3125 Z M 473.160156 358.570312 " fill-opacity="1" fill-rule="evenodd"/><path fill="#58595b" d="M 466.542969 354.457031 L 464.097656 352.9375 L 444.765625 384.039062 L 447.210938 385.558594 Z M 466.542969 354.457031 " fill-opacity="1" fill-rule="evenodd"/><path fill="#58595b" d="M 459.929688 350.347656 L 457.484375 348.824219 L 438.152344 379.925781 L 440.597656 381.445312 Z M 459.929688 350.347656 " fill-opacity="1" fill-rule="evenodd"/><path fill="#e6e7e8" d="M 511.5625 348.453125 L 444.652344 356.179688 C 442.226562 356.460938 440.03125 354.722656 439.75 352.292969 L 425.828125 231.722656 C 425.546875 229.296875 427.285156 227.101562 429.714844 226.820312 L 496.621094 219.09375 C 499.050781 218.8125 501.246094 220.554688 501.527344 222.980469 L 515.449219 343.550781 C 515.730469 345.980469 513.988281 348.175781 511.5625 348.453125 " fill-opacity="1" fill-rule="nonzero"/><path fill="#c0779d" d="M 511.730469 348.433594 L 507.949219 348.871094 L 493.011719 219.511719 L 496.789062 219.074219 C 499.125 218.804688 501.238281 220.476562 501.507812 222.8125 L 515.46875 343.71875 C 515.738281 346.054688 514.066406 348.164062 511.730469 348.433594 " fill-opacity="1" fill-rule="nonzero"/><g clip-path="url(#8adb8f84d4)"><path fill="#e6e7e8" d="M 516.003906 396.609375 L 451.304688 404.082031 C 448.265625 404.429688 445.519531 402.253906 445.167969 399.214844 L 440.804688 361.433594 C 440.453125 358.394531 442.632812 355.648438 445.671875 355.296875 L 510.367188 347.824219 C 513.40625 347.472656 516.15625 349.652344 516.503906 352.691406 L 520.867188 390.472656 C 521.21875 393.511719 519.039062 396.257812 516.003906 396.609375 " fill-opacity="1" fill-rule="nonzero"/></g><path fill="#c0779d" d="M 515.957031 396.613281 L 513.496094 396.898438 L 507.863281 348.113281 L 511.613281 347.679688 C 513.964844 347.410156 516.089844 349.09375 516.363281 351.445312 L 520.863281 390.429688 C 521.21875 393.492188 519.019531 396.261719 515.957031 396.613281 " fill-opacity="1" fill-rule="nonzero"/><path fill="#58595b" d="M 475.847656 234.996094 C 478.847656 229.546875 474.097656 229.664062 471.8125 231.84375 C 469.980469 233.589844 468.199219 235.390625 466.410156 237.175781 C 466.207031 237.375 466.019531 237.46875 465.730469 237.4375 C 465.515625 237.414062 463.398438 237.277344 460.839844 237.121094 L 460.925781 236.074219 C 460.988281 235.335938 460.4375 234.691406 459.699219 234.628906 C 458.960938 234.570312 458.3125 235.121094 458.253906 235.855469 L 458.164062 236.957031 C 457.863281 236.9375 457.5625 236.917969 457.261719 236.898438 L 457.355469 235.785156 C 457.414062 235.046875 456.863281 234.398438 456.125 234.339844 C 455.390625 234.277344 454.742188 234.828125 454.683594 235.566406 L 454.585938 236.738281 C 452.898438 236.636719 451.597656 236.558594 451.261719 236.539062 C 450.640625 236.503906 450.253906 236.605469 449.792969 237.109375 C 449.636719 237.277344 448.144531 238.890625 447.511719 239.574219 C 452.066406 241.0625 456.5625 242.53125 461.070312 244 C 461.035156 244.082031 456.421875 251.207031 454.121094 254.726562 C 454.046875 254.835938 453.839844 254.921875 453.703125 254.914062 C 452.132812 254.824219 450.558594 254.710938 448.988281 254.609375 C 448.878906 254.601562 448.71875 254.609375 448.660156 254.675781 C 448.285156 255.117188 447.929688 255.574219 447.605469 255.980469 C 450.128906 256.964844 453.570312 258.359375 453.570312 258.359375 C 453.570312 258.359375 456.367188 262.105469 457.851562 264.105469 C 458.140625 263.722656 458.472656 263.324219 458.761719 262.898438 C 458.847656 262.769531 458.882812 262.546875 458.839844 262.398438 C 458.402344 260.914062 457.949219 259.433594 457.480469 257.960938 C 457.402344 257.710938 457.441406 257.574219 457.613281 257.394531 C 458.96875 256 464.804688 249.90625 466.417969 248.226562 C 468.902344 252.320312 471.351562 256.359375 473.832031 260.449219 C 474.554688 259.367188 475.21875 258.355469 475.910156 257.359375 C 476.109375 257.078125 476.148438 256.835938 476.042969 256.5 C 475.890625 256.027344 475.175781 253.648438 474.367188 250.949219 L 476.003906 250.28125 C 476.691406 250 477.019531 249.21875 476.742188 248.53125 C 476.460938 247.847656 475.679688 247.515625 474.992188 247.796875 L 473.597656 248.367188 C 473.507812 248.074219 473.421875 247.785156 473.335938 247.496094 L 474.652344 246.960938 C 475.339844 246.679688 475.667969 245.898438 475.386719 245.214844 C 475.109375 244.527344 474.324219 244.199219 473.640625 244.476562 L 472.566406 244.914062 C 472.160156 243.535156 471.84375 242.472656 471.726562 242.0625 C 471.679688 241.914062 471.753906 241.691406 471.84375 241.542969 C 473.171875 239.359375 474.613281 237.238281 475.847656 234.996094 " fill-opacity="1" fill-rule="nonzero"/><path fill="#58595b" d="M 490.480469 272.546875 L 487.621094 272.875 L 495.085938 337.496094 L 497.945312 337.167969 Z M 490.480469 272.546875 " fill-opacity="1" fill-rule="evenodd"/><path fill="#58595b" d="M 482.742188 273.441406 L 479.882812 273.769531 L 483.171875 302.242188 L 486.03125 301.910156 Z M 482.742188 273.441406 " fill-opacity="1" fill-rule="evenodd"/><path fill="#58595b" d="M 467.269531 275.226562 L 464.410156 275.558594 L 469.144531 316.578125 L 472.003906 316.25 Z M 467.269531 275.226562 " fill-opacity="1" fill-rule="evenodd"/><path fill="#58595b" d="M 459.527344 276.121094 L 456.667969 276.453125 L 464.132812 341.074219 L 466.992188 340.742188 Z M 459.527344 276.121094 " fill-opacity="1" fill-rule="evenodd"/><path fill="#58595b" d="M 451.789062 277.015625 L 448.929688 277.34375 L 456.394531 341.964844 L 459.253906 341.636719 Z M 451.789062 277.015625 " fill-opacity="1" fill-rule="evenodd"/><path fill="#58595b" d="M 444.054688 277.910156 L 441.191406 278.238281 L 446.917969 327.816406 L 449.777344 327.488281 Z M 444.054688 277.910156 " fill-opacity="1" fill-rule="evenodd"/><path fill="#ebf3f9" d="M 499.414062 225.078125 L 496.050781 225.464844 L 499.363281 254.148438 L 502.726562 253.757812 Z M 499.414062 225.078125 " fill-opacity="1" fill-rule="evenodd"/><path fill="#58595b" d="M 505.441406 349.371094 C 505.234375 349.371094 505.054688 349.214844 505.03125 349.007812 C 505.007812 348.78125 505.167969 348.578125 505.394531 348.550781 L 508.578125 348.183594 C 508.804688 348.15625 509.007812 348.320312 509.035156 348.542969 C 509.058594 348.769531 508.898438 348.976562 508.671875 349 L 505.488281 349.367188 C 505.472656 349.371094 505.457031 349.371094 505.441406 349.371094 M 499.074219 350.105469 C 498.867188 350.105469 498.6875 349.953125 498.664062 349.742188 C 498.640625 349.515625 498.800781 349.3125 499.027344 349.285156 L 502.210938 348.917969 C 502.4375 348.890625 502.640625 349.054688 502.667969 349.28125 C 502.691406 349.503906 502.53125 349.710938 502.304688 349.734375 L 499.121094 350.105469 C 499.105469 350.105469 499.089844 350.105469 499.074219 350.105469 M 492.707031 350.84375 C 492.5 350.84375 492.324219 350.6875 492.296875 350.476562 C 492.273438 350.25 492.433594 350.046875 492.660156 350.019531 L 495.84375 349.652344 C 496.070312 349.628906 496.273438 349.789062 496.300781 350.015625 C 496.324219 350.242188 496.164062 350.445312 495.9375 350.472656 L 492.753906 350.839844 C 492.738281 350.839844 492.722656 350.84375 492.707031 350.84375 M 486.339844 351.578125 C 486.132812 351.578125 485.957031 351.421875 485.929688 351.210938 C 485.90625 350.988281 486.066406 350.78125 486.292969 350.757812 L 489.476562 350.390625 C 489.703125 350.363281 489.90625 350.523438 489.933594 350.75 C 489.957031 350.976562 489.796875 351.179688 489.570312 351.207031 L 486.386719 351.574219 C 486.371094 351.578125 486.355469 351.578125 486.339844 351.578125 M 479.972656 352.3125 C 479.765625 352.3125 479.589844 352.15625 479.566406 351.949219 C 479.539062 351.722656 479.699219 351.519531 479.925781 351.492188 L 483.109375 351.125 C 483.335938 351.097656 483.539062 351.261719 483.566406 351.484375 C 483.59375 351.710938 483.429688 351.914062 483.203125 351.941406 L 480.019531 352.308594 C 480.003906 352.3125 479.988281 352.3125 479.972656 352.3125 M 473.605469 353.046875 C 473.398438 353.046875 473.222656 352.894531 473.199219 352.683594 C 473.171875 352.457031 473.332031 352.253906 473.558594 352.226562 L 476.742188 351.859375 C 476.96875 351.832031 477.171875 351.996094 477.199219 352.222656 C 477.226562 352.445312 477.0625 352.652344 476.835938 352.675781 L 473.652344 353.042969 C 473.636719 353.046875 473.621094 353.046875 473.605469 353.046875 M 467.238281 353.78125 C 467.03125 353.78125 466.855469 353.628906 466.832031 353.417969 C 466.804688 353.191406 466.964844 352.988281 467.191406 352.960938 L 470.375 352.59375 C 470.601562 352.566406 470.804688 352.730469 470.832031 352.957031 C 470.859375 353.183594 470.695312 353.386719 470.46875 353.414062 L 467.285156 353.78125 C 467.269531 353.78125 467.253906 353.78125 467.238281 353.78125 M 460.871094 354.519531 C 460.664062 354.519531 460.488281 354.363281 460.464844 354.152344 C 460.4375 353.929688 460.597656 353.722656 460.824219 353.699219 L 464.007812 353.328125 C 464.234375 353.304688 464.4375 353.464844 464.464844 353.691406 C 464.492188 353.917969 464.328125 354.121094 464.101562 354.148438 L 460.917969 354.515625 C 460.902344 354.515625 460.886719 354.519531 460.871094 354.519531 M 454.503906 355.253906 C 454.300781 355.253906 454.121094 355.097656 454.097656 354.890625 C 454.070312 354.664062 454.234375 354.457031 454.457031 354.433594 L 457.640625 354.066406 C 457.867188 354.039062 458.070312 354.199219 458.097656 354.425781 C 458.125 354.652344 457.960938 354.855469 457.738281 354.882812 L 454.554688 355.25 C 454.535156 355.253906 454.519531 355.253906 454.503906 355.253906 M 448.136719 355.988281 C 447.933594 355.988281 447.753906 355.832031 447.730469 355.625 C 447.703125 355.398438 447.867188 355.195312 448.089844 355.167969 L 451.273438 354.800781 C 451.5 354.773438 451.707031 354.9375 451.730469 355.160156 C 451.757812 355.386719 451.59375 355.59375 451.371094 355.617188 L 448.1875 355.984375 C 448.171875 355.988281 448.152344 355.988281 448.136719 355.988281 " fill-opacity="1" fill-rule="nonzero"/><path fill="#58595b" d="M 511.808594 348.636719 C 511.601562 348.636719 511.421875 348.480469 511.398438 348.273438 C 511.371094 348.046875 511.535156 347.84375 511.761719 347.816406 L 513.394531 347.628906 C 513.621094 347.601562 513.828125 347.761719 513.851562 347.988281 C 513.878906 348.214844 513.714844 348.417969 513.492188 348.445312 L 511.855469 348.632812 C 511.839844 348.636719 511.824219 348.636719 511.808594 348.636719 " fill-opacity="1" fill-rule="nonzero"/><path fill="#ebf3f9" d="M 511.832031 352.558594 L 510.824219 352.671875 L 512.804688 369.832031 L 513.816406 369.714844 Z M 511.832031 352.558594 " fill-opacity="1" fill-rule="evenodd"/><path fill="#ebf3f9" d="M 514.027344 352.304688 L 513.019531 352.421875 L 513.976562 360.707031 L 514.984375 360.589844 Z M 514.027344 352.304688 " fill-opacity="1" fill-rule="evenodd"/><path fill="#ebf3f9" d="M 515.050781 361.175781 L 514.042969 361.292969 L 515 369.578125 L 516.007812 369.460938 Z M 515.050781 361.175781 " fill-opacity="1" fill-rule="evenodd"/><path fill="#ebf3f9" d="M 516.359375 372.503906 L 513.15625 372.875 L 515.359375 391.9375 L 518.5625 391.570312 Z M 516.359375 372.503906 " fill-opacity="1" fill-rule="evenodd"/><path fill="#58595b" d="M 494.050781 358.808594 L 491.191406 359.136719 L 493.859375 382.230469 L 496.71875 381.898438 Z M 494.050781 358.808594 " fill-opacity="1" fill-rule="evenodd"/><path fill="#58595b" d="M 486.3125 359.703125 L 483.453125 360.03125 L 487.65625 396.40625 L 490.515625 396.078125 Z M 486.3125 359.703125 " fill-opacity="1" fill-rule="evenodd"/><path fill="#58595b" d="M 478.574219 360.59375 L 475.714844 360.925781 L 479.917969 397.300781 L 482.777344 396.972656 Z M 478.574219 360.59375 " fill-opacity="1" fill-rule="evenodd"/><path fill="#58595b" d="M 470.835938 361.488281 L 467.976562 361.820312 L 471.199219 389.726562 L 474.058594 389.398438 Z M 470.835938 361.488281 " fill-opacity="1" fill-rule="evenodd"/><g clip-path="url(#409ed7be98)"><path fill="#1c355b" d="M 471.222656 391.371094 L 383.984375 383.292969 C 381.273438 383.039062 379.28125 380.640625 379.535156 377.933594 L 389.847656 266.589844 C 390.097656 263.878906 392.496094 261.886719 395.203125 262.140625 L 482.441406 270.21875 C 487.289062 270.667969 490.855469 274.960938 490.40625 279.808594 L 480.808594 383.410156 C 480.363281 388.253906 476.070312 391.820312 471.222656 391.371094 " fill-opacity="1" fill-rule="nonzero"/></g><path fill="#ebf3f9" d="M 407.667969 277.617188 L 412.136719 278.117188 C 413.570312 278.277344 414.234375 278.828125 414.128906 279.769531 L 413.855469 282.242188 C 413.746094 283.191406 412.976562 283.585938 411.542969 283.425781 L 409.496094 283.199219 L 409.179688 286.046875 L 406.757812 285.777344 Z M 411.441406 281.726562 L 411.660156 279.75 C 411.6875 279.539062 411.550781 279.414062 411.253906 279.382812 L 409.941406 279.234375 L 409.648438 281.851562 L 410.960938 282 C 411.257812 282.03125 411.417969 281.941406 411.441406 281.726562 Z M 411.441406 281.726562 " fill-opacity="1" fill-rule="nonzero"/><path fill="#ebf3f9" d="M 419.824219 287.234375 L 419.613281 285.71875 L 417.140625 285.441406 L 416.601562 286.875 L 414.195312 286.605469 L 417.5625 278.722656 L 420.667969 279.070312 L 422.28125 287.511719 Z M 417.632812 284.148438 L 419.40625 284.34375 L 418.902344 280.792969 Z M 417.632812 284.148438 " fill-opacity="1" fill-rule="nonzero"/><path fill="#ebf3f9" d="M 427.414062 286.394531 L 427.582031 284.921875 C 427.59375 284.808594 427.566406 284.726562 427.503906 284.671875 C 427.441406 284.617188 427.324219 284.582031 427.152344 284.5625 L 425.652344 284.394531 C 424.3125 284.242188 423.691406 283.691406 423.800781 282.730469 L 424.007812 280.871094 C 424.113281 279.929688 424.882812 279.539062 426.316406 279.699219 L 428.394531 279.933594 C 429.828125 280.09375 430.496094 280.644531 430.390625 281.585938 L 430.269531 282.648438 L 427.828125 282.378906 L 427.921875 281.570312 C 427.945312 281.355469 427.800781 281.230469 427.496094 281.195312 L 426.914062 281.132812 C 426.609375 281.097656 426.441406 281.1875 426.417969 281.402344 L 426.257812 282.839844 C 426.246094 282.949219 426.269531 283.03125 426.335938 283.085938 C 426.398438 283.140625 426.515625 283.179688 426.683594 283.195312 L 428.152344 283.359375 C 428.878906 283.441406 429.390625 283.617188 429.683594 283.890625 C 429.972656 284.160156 430.09375 284.527344 430.042969 284.988281 L 429.828125 286.910156 C 429.722656 287.859375 428.953125 288.253906 427.519531 288.097656 L 425.457031 287.863281 C 424.011719 287.703125 423.339844 287.148438 423.445312 286.199219 L 423.566406 285.148438 L 426.003906 285.421875 L 425.914062 286.226562 C 425.890625 286.441406 426.03125 286.566406 426.339844 286.601562 L 426.917969 286.664062 C 427.226562 286.699219 427.390625 286.609375 427.414062 286.394531 Z M 427.414062 286.394531 " fill-opacity="1" fill-rule="nonzero"/><path fill="#ebf3f9" d="M 435.296875 287.277344 L 435.460938 285.800781 C 435.476562 285.691406 435.449219 285.605469 435.386719 285.554688 C 435.324219 285.496094 435.207031 285.460938 435.035156 285.441406 L 433.535156 285.273438 C 432.191406 285.125 431.574219 284.570312 431.683594 283.613281 L 431.890625 281.753906 C 431.996094 280.8125 432.765625 280.421875 434.195312 280.582031 L 436.277344 280.8125 C 437.710938 280.972656 438.375 281.523438 438.269531 282.464844 L 438.152344 283.53125 L 435.710938 283.257812 L 435.800781 282.449219 C 435.828125 282.234375 435.683594 282.113281 435.378906 282.078125 L 434.796875 282.011719 C 434.492188 281.976562 434.324219 282.066406 434.300781 282.28125 L 434.140625 283.71875 C 434.128906 283.828125 434.152344 283.914062 434.214844 283.96875 C 434.28125 284.023438 434.394531 284.058594 434.566406 284.078125 L 436.035156 284.242188 C 436.761719 284.324219 437.269531 284.5 437.5625 284.769531 C 437.855469 285.042969 437.976562 285.40625 437.925781 285.867188 L 437.710938 287.792969 C 437.605469 288.742188 436.835938 289.136719 435.402344 288.976562 L 433.335938 288.746094 C 431.890625 288.585938 431.222656 288.027344 431.328125 287.078125 L 431.445312 286.027344 L 433.886719 286.300781 L 433.796875 287.109375 C 433.773438 287.320312 433.914062 287.445312 434.222656 287.480469 L 434.800781 287.546875 C 435.109375 287.578125 435.273438 287.488281 435.296875 287.277344 Z M 435.296875 287.277344 " fill-opacity="1" fill-rule="nonzero"/><path fill="#ebf3f9" d="M 440.132812 281.246094 L 444.605469 281.746094 C 446.039062 281.90625 446.699219 282.457031 446.597656 283.394531 L 446.320312 285.871094 C 446.214844 286.820312 445.445312 287.214844 444.011719 287.054688 L 441.964844 286.828125 L 441.644531 289.675781 L 439.222656 289.402344 Z M 443.90625 285.355469 L 444.128906 283.378906 C 444.152344 283.167969 444.015625 283.042969 443.71875 283.007812 L 442.40625 282.863281 L 442.113281 285.480469 L 443.425781 285.625 C 443.722656 285.660156 443.882812 285.570312 443.90625 285.355469 Z M 443.90625 285.355469 " fill-opacity="1" fill-rule="nonzero"/><path fill="#ebf3f9" d="M 450.355469 282.386719 L 452.640625 282.640625 C 454.074219 282.800781 454.738281 283.351562 454.632812 284.292969 L 454.035156 289.617188 C 453.929688 290.566406 453.160156 290.960938 451.726562 290.800781 L 449.441406 290.546875 C 447.996094 290.382812 447.328125 289.828125 447.433594 288.878906 L 448.027344 283.554688 C 448.132812 282.617188 448.910156 282.226562 450.355469 282.386719 Z M 451.625 289.101562 L 452.164062 284.277344 C 452.1875 284.0625 452.050781 283.941406 451.753906 283.90625 L 450.9375 283.816406 C 450.628906 283.78125 450.464844 283.871094 450.441406 284.085938 L 449.902344 288.90625 C 449.875 289.121094 450.019531 289.246094 450.324219 289.28125 L 451.144531 289.371094 C 451.441406 289.40625 451.601562 289.3125 451.625 289.101562 Z M 451.625 289.101562 " fill-opacity="1" fill-rule="nonzero"/><path fill="#ebf3f9" d="M 458.449219 288.460938 L 458.109375 291.515625 L 455.6875 291.242188 L 456.597656 283.085938 L 461.066406 283.585938 C 462.5 283.746094 463.164062 284.292969 463.058594 285.234375 L 462.804688 287.519531 C 462.71875 288.269531 462.214844 288.671875 461.289062 288.726562 L 462.851562 292.042969 L 460.242188 291.753906 L 458.875 288.507812 Z M 458.871094 284.703125 L 458.59375 287.164062 L 459.90625 287.3125 C 460.066406 287.328125 460.183594 287.320312 460.257812 287.28125 C 460.332031 287.238281 460.375 287.164062 460.386719 287.054688 L 460.589844 285.21875 C 460.613281 285.003906 460.480469 284.882812 460.183594 284.847656 Z M 458.871094 284.703125 " fill-opacity="1" fill-rule="nonzero"/><path fill="#ebf3f9" d="M 470.671875 284.65625 L 470.523438 286.003906 L 468.527344 285.78125 L 467.765625 292.59375 L 465.324219 292.320312 L 466.085938 285.507812 L 464.105469 285.289062 L 464.257812 283.941406 Z M 470.671875 284.65625 " fill-opacity="1" fill-rule="nonzero"/><path fill="#58595b" d="M 436.492188 326.207031 C 436.417969 326.207031 436.34375 326.1875 436.277344 326.144531 L 434.878906 325.277344 C 434.683594 325.15625 434.625 324.902344 434.746094 324.710938 C 434.863281 324.515625 435.117188 324.457031 435.3125 324.578125 L 436.710938 325.445312 C 436.902344 325.566406 436.964844 325.820312 436.84375 326.015625 C 436.765625 326.140625 436.628906 326.207031 436.492188 326.207031 " fill-opacity="1" fill-rule="nonzero"/><path fill="#ebf3f9" d="M 433.074219 308.648438 C 432.472656 308.648438 431.867188 308.671875 431.269531 308.714844 C 423.492188 309.265625 416.253906 313.484375 411.914062 320 C 409.589844 323.488281 408.15625 327.546875 407.769531 331.746094 C 406.816406 342.050781 412.117188 351.816406 421.28125 356.628906 C 424.226562 358.175781 427.414062 359.113281 430.753906 359.425781 C 435.214844 359.835938 439.710938 359.066406 443.753906 357.199219 C 451.972656 353.402344 457.597656 345.445312 458.433594 336.4375 L 459.171875 336.507812 L 458.433594 336.4375 C 459.4375 325.574219 453.433594 315.304688 443.480469 310.859375 L 443.433594 310.835938 C 442.410156 310.382812 441.351562 309.996094 440.285156 309.683594 C 439.132812 309.34375 437.941406 309.085938 436.742188 308.914062 C 436.3125 308.851562 435.875 308.800781 435.449219 308.761719 C 435.003906 308.71875 434.550781 308.6875 434.105469 308.671875 C 433.761719 308.65625 433.417969 308.648438 433.074219 308.648438 M 433.109375 361.015625 C 432.277344 361.015625 431.449219 360.976562 430.617188 360.898438 C 427.082031 360.574219 423.710938 359.578125 420.589844 357.941406 C 415.925781 355.488281 412.105469 351.75 409.542969 347.125 C 406.914062 342.390625 405.792969 337.023438 406.292969 331.609375 C 406.703125 327.167969 408.222656 322.871094 410.679688 319.179688 C 412.925781 315.8125 415.957031 312.941406 419.453125 310.882812 C 423.011719 308.789062 427.058594 307.527344 431.164062 307.234375 C 432.15625 307.164062 433.167969 307.148438 434.164062 307.191406 C 434.636719 307.207031 435.113281 307.242188 435.585938 307.285156 C 436.039062 307.328125 436.5 307.378906 436.953125 307.445312 C 438.222656 307.628906 439.484375 307.902344 440.703125 308.261719 C 441.792969 308.578125 442.878906 308.976562 443.925781 309.433594 L 443.929688 309.433594 L 444.035156 309.480469 C 449.136719 311.746094 453.355469 315.492188 456.230469 320.308594 C 459.167969 325.230469 460.4375 330.855469 459.910156 336.574219 C 459.464844 341.359375 457.753906 345.941406 454.957031 349.816406 C 452.246094 353.582031 448.585938 356.597656 444.375 358.546875 C 440.847656 360.175781 436.996094 361.015625 433.109375 361.015625 " fill-opacity="1" fill-rule="nonzero"/><path fill="#ebf3f9" d="M 434.175781 322.949219 C 433.964844 322.726562 433.648438 322.570312 433.351562 322.648438 C 432.910156 322.757812 432.730469 323.273438 432.621094 323.710938 C 432.453125 324.371094 432.292969 325.09375 432.585938 325.707031 C 432.808594 326.171875 433.285156 326.585938 433.183594 327.089844 C 433.136719 327.3125 432.984375 327.492188 432.878906 327.691406 C 432.773438 327.890625 432.726562 328.160156 432.878906 328.328125 C 433.050781 328.515625 433.367188 328.457031 433.570312 328.308594 C 433.777344 328.160156 433.925781 327.945312 434.136719 327.804688 C 434.324219 327.679688 434.5625 327.625 434.777344 327.6875 C 434.992188 327.75 435.171875 327.941406 435.1875 328.164062 C 435.203125 328.386719 435.03125 328.617188 434.808594 328.636719 C 434.621094 328.652344 434.421875 328.53125 434.246094 328.605469 C 434.007812 328.707031 434.035156 329.050781 434.101562 329.300781 C 434.203125 329.664062 434.308594 330.042969 434.566406 330.320312 C 434.824219 330.597656 435.277344 330.726562 435.582031 330.503906 C 435.71875 330.40625 435.828125 330.238281 436 330.222656 C 436.246094 330.199219 436.386719 330.550781 436.261719 330.761719 C 436.132812 330.972656 435.859375 331.046875 435.613281 331.054688 C 435.363281 331.0625 435.113281 331.023438 434.871094 331.085938 C 434.632812 331.148438 434.402344 331.359375 434.429688 331.605469 C 434.457031 331.816406 434.660156 331.964844 434.859375 332.042969 C 435.058594 332.125 435.277344 332.171875 435.4375 332.316406 C 435.773438 332.617188 435.710938 333.195312 436.035156 333.507812 C 436.382812 333.847656 437.015625 333.667969 437.292969 333.265625 C 437.566406 332.867188 437.574219 332.34375 437.535156 331.859375 C 437.449219 330.871094 437.199219 329.910156 436.949219 328.953125 C 436.796875 328.363281 436.632812 327.75 436.246094 327.28125 C 435.882812 326.847656 435.367188 326.578125 434.90625 326.246094 C 434.628906 326.042969 434.363281 325.804688 434.1875 325.507812 C 433.941406 325.101562 434.046875 325.03125 434.28125 324.699219 C 434.640625 324.1875 434.609375 323.40625 434.175781 322.949219 " fill-opacity="1" fill-rule="nonzero"/><path fill="#ebf3f9" d="M 431.273438 329.882812 C 431.128906 329.988281 430.976562 330.082031 430.867188 330.222656 C 430.757812 330.363281 430.707031 330.566406 430.789062 330.71875 C 430.886719 330.898438 431.132812 330.953125 431.324219 330.890625 C 431.515625 330.828125 431.667969 330.675781 431.800781 330.527344 C 432.058594 330.234375 432.289062 329.917969 432.480469 329.578125 C 432.648438 329.285156 432.664062 328.582031 432.183594 328.929688 C 431.84375 329.179688 431.628906 329.621094 431.273438 329.882812 " fill-opacity="1" fill-rule="nonzero"/><path fill="#ebf3f9" d="M 430.328125 331.925781 C 430.398438 331.824219 430.488281 331.714844 430.609375 331.707031 C 430.761719 331.699219 430.871094 331.847656 430.949219 331.976562 C 431.191406 332.378906 431.433594 332.777344 431.675781 333.175781 C 431.800781 333.386719 431.929688 333.628906 431.851562 333.859375 C 431.714844 334.246094 431.109375 334.25 430.910156 334.609375 C 430.746094 334.898438 430.921875 335.253906 431.117188 335.519531 C 431.3125 335.78125 431.542969 336.078125 431.488281 336.402344 C 431.4375 336.679688 431.195312 336.875 430.996094 337.074219 C 430.679688 337.390625 430.453125 337.78125 430.226562 338.164062 C 429.957031 338.621094 429.6875 339.082031 429.464844 339.566406 C 429.367188 339.773438 429.28125 339.984375 429.140625 340.164062 C 429 340.339844 428.792969 340.484375 428.566406 340.488281 C 427.992188 340.503906 427.707031 339.714844 427.144531 339.589844 C 426.757812 339.503906 426.355469 339.761719 425.972656 339.671875 C 425.542969 339.566406 425.335938 339.097656 425.1875 338.683594 C 425.003906 338.171875 424.820312 337.660156 424.707031 337.128906 C 424.617188 336.699219 424.574219 336.265625 424.578125 335.828125 C 424.582031 335.523438 424.6875 335.136719 424.988281 335.105469 C 425.222656 335.082031 425.40625 335.300781 425.625 335.386719 C 425.960938 335.523438 426.332031 335.34375 426.644531 335.15625 C 427.410156 334.699219 428.144531 334.179688 428.832031 333.609375 C 429.445312 333.105469 429.859375 332.570312 430.328125 331.925781 " fill-opacity="1" fill-rule="nonzero"/><path fill="#ebf3f9" d="M 415.429688 331.410156 C 415.332031 331.363281 415.222656 331.3125 415.117188 331.34375 C 414.992188 331.382812 414.925781 331.53125 414.9375 331.664062 C 414.949219 331.796875 415.019531 331.914062 415.089844 332.027344 C 416.050781 333.585938 417.011719 335.144531 417.972656 336.707031 C 418.445312 337.472656 418.914062 338.238281 419.386719 339 L 420.351562 340.5625 C 420.476562 340.765625 420.601562 340.972656 420.785156 341.128906 C 420.96875 341.28125 421.214844 341.378906 421.445312 341.320312 C 421.667969 341.269531 421.839844 341.082031 421.933594 340.878906 C 422.027344 340.671875 422.058594 340.441406 422.085938 340.214844 C 422.144531 339.761719 422.195312 339.28125 421.988281 338.875 C 421.792969 338.492188 421.40625 338.246094 421.140625 337.90625 C 420.78125 337.449219 420.667969 336.851562 420.402344 336.335938 C 420.175781 335.886719 419.839844 335.503906 419.503906 335.125 C 418.867188 334.40625 418.226562 333.683594 417.585938 332.960938 C 417.3125 332.652344 417.050781 332.269531 416.707031 332.050781 C 416.308594 331.804688 415.847656 331.621094 415.429688 331.410156 " fill-opacity="1" fill-rule="nonzero"/><path fill="#ebf3f9" d="M 422.324219 341.445312 C 422.007812 341.558594 421.777344 341.921875 421.886719 342.238281 C 421.988281 342.535156 422.320312 342.675781 422.613281 342.785156 C 423.5 343.109375 424.386719 343.433594 425.273438 343.757812 C 426.292969 344.128906 427.339844 344.507812 428.429688 344.519531 C 428.578125 344.523438 428.734375 344.515625 428.867188 344.449219 C 429 344.382812 429.105469 344.242188 429.089844 344.09375 C 429.066406 343.890625 428.839844 343.78125 428.644531 343.710938 C 427.382812 343.265625 426.125 342.804688 424.84375 342.425781 C 424.484375 342.316406 424.09375 342.28125 423.777344 342.058594 C 423.332031 341.746094 422.949219 341.226562 422.324219 341.445312 " fill-opacity="1" fill-rule="nonzero"/><path fill="#ebf3f9" d="M 434.386719 336.78125 C 434.125 336.65625 433.855469 336.519531 433.566406 336.515625 C 433.15625 336.503906 432.777344 336.757812 432.527344 337.085938 C 432.28125 337.414062 432.144531 337.808594 432.007812 338.195312 C 431.816406 338.753906 431.621094 339.316406 431.425781 339.875 C 431.382812 339.996094 431.34375 340.125 431.375 340.246094 C 431.425781 340.441406 431.636719 340.542969 431.738281 340.71875 C 431.851562 340.914062 431.800781 341.164062 431.730469 341.382812 C 431.65625 341.597656 431.5625 341.824219 431.605469 342.050781 C 431.644531 342.273438 431.890625 342.476562 432.097656 342.378906 C 432.269531 342.296875 432.304688 342.074219 432.320312 341.882812 C 432.359375 341.425781 432.394531 340.96875 432.433594 340.511719 C 432.855469 340.945312 433.28125 341.375 433.707031 341.808594 C 433.996094 341.644531 434.042969 341.234375 433.949219 340.917969 C 433.855469 340.601562 433.652344 340.320312 433.554688 340.003906 C 433.457031 339.6875 433.496094 339.28125 433.78125 339.109375 C 433.898438 339.035156 434.039062 339.015625 434.167969 338.96875 C 434.296875 338.917969 434.425781 338.828125 434.445312 338.691406 C 434.46875 338.5 434.257812 338.347656 434.0625 338.355469 C 433.871094 338.363281 433.703125 338.476562 433.535156 338.574219 C 433.367188 338.671875 433.175781 338.757812 432.988281 338.707031 C 432.710938 338.632812 432.59375 338.265625 432.714844 338.003906 C 432.839844 337.746094 433.132812 337.601562 433.417969 337.578125 C 433.703125 337.550781 433.988281 337.621094 434.265625 337.683594 C 434.546875 337.746094 434.835938 337.800781 435.117188 337.746094 C 435.316406 337.707031 436.347656 336.96875 435.980469 336.742188 C 435.894531 336.6875 435.464844 337 435.355469 337.019531 C 435.015625 337.089844 434.679688 336.929688 434.386719 336.78125 " fill-opacity="1" fill-rule="nonzero"/><path fill="#ebf3f9" d="M 451.261719 347.835938 C 450.816406 347.21875 450.351562 346.609375 449.875 346.011719 C 449.582031 345.648438 449.183594 345.246094 448.722656 345.335938 C 448.09375 345.460938 447.917969 346.394531 447.296875 346.5625 C 446.835938 346.683594 446.402344 346.324219 446.066406 345.992188 C 445.726562 345.65625 445.296875 345.292969 444.835938 345.414062 C 444.648438 345.460938 444.484375 345.589844 444.292969 345.625 C 444.101562 345.65625 443.855469 345.519531 443.894531 345.328125 C 443.925781 345.171875 444.113281 345.113281 444.257812 345.050781 C 444.664062 344.875 444.941406 344.4375 444.925781 343.996094 C 444.910156 343.554688 444.597656 343.136719 444.179688 342.992188 C 443.707031 342.832031 443.253906 342.515625 442.789062 342.335938 C 442.230469 342.125 441.609375 341.757812 441.269531 341.265625 C 441.085938 340.996094 440.949219 340.695312 440.8125 340.394531 C 440.636719 340.007812 440.457031 339.621094 440.28125 339.234375 C 440.195312 339.042969 440.105469 338.816406 440.199219 338.625 C 440.339844 338.328125 440.773438 338.363281 441.09375 338.453125 C 441.425781 338.546875 441.761719 338.652344 442.042969 338.851562 C 442.324219 339.050781 442.546875 339.367188 442.550781 339.710938 C 442.558594 339.988281 442.429688 340.246094 442.378906 340.515625 C 442.328125 340.785156 442.386719 341.121094 442.636719 341.234375 C 442.867188 341.335938 443.136719 341.199219 443.308594 341.019531 C 443.480469 340.835938 443.601562 340.601562 443.792969 340.441406 C 444.234375 340.066406 444.902344 340.167969 445.453125 340.34375 C 446.179688 340.574219 446.871094 340.902344 447.53125 341.28125 C 448.972656 342.109375 450.269531 343.195312 451.335938 344.46875 C 451.457031 344.613281 451.582031 344.820312 451.480469 344.976562 C 451.433594 345.046875 451.355469 345.085938 451.292969 345.136719 C 451.058594 345.328125 451.035156 345.6875 451.152344 345.964844 C 451.273438 346.238281 451.503906 346.449219 451.730469 346.644531 C 451.957031 346.839844 452.195312 347.039062 452.332031 347.304688 C 452.433594 347.503906 452.472656 347.742188 452.398438 347.953125 C 452.324219 348.164062 452.113281 348.332031 451.890625 348.320312 C 451.667969 348.308594 451.21875 348.054688 451.261719 347.835938 " fill-opacity="1" fill-rule="nonzero"/><path fill="#ebf3f9" d="M 437.839844 337.394531 C 437.796875 337.683594 437.753906 337.976562 437.710938 338.269531 C 437.695312 338.375 437.699219 338.511719 437.796875 338.554688 C 437.886719 338.59375 437.992188 338.503906 438.019531 338.40625 C 438.042969 338.308594 438.023438 338.207031 438.035156 338.105469 C 438.042969 338.007812 438.101562 337.894531 438.203125 337.886719 C 438.300781 337.875 438.378906 337.964844 438.441406 338.042969 C 438.503906 338.125 438.59375 338.210938 438.691406 338.179688 C 438.78125 338.152344 438.8125 338.039062 438.789062 337.949219 C 438.765625 337.863281 438.699219 337.792969 438.640625 337.71875 C 438.582031 337.648438 438.527344 337.566406 438.53125 337.472656 C 438.539062 337.238281 438.855469 337.140625 438.914062 336.917969 C 438.972656 336.714844 438.878906 336.472656 438.683594 336.375 C 438.105469 336.082031 437.898438 337.019531 437.839844 337.394531 " fill-opacity="1" fill-rule="nonzero"/><path fill="#ebf3f9" d="M 430.289062 344.019531 C 430.476562 344.03125 430.648438 344.125 430.816406 344.214844 C 430.960938 344.292969 431.105469 344.375 431.25 344.453125 C 431.289062 344.472656 431.332031 344.496094 431.351562 344.539062 C 431.375 344.59375 431.34375 344.664062 431.296875 344.699219 C 431.246094 344.738281 431.183594 344.75 431.125 344.761719 C 430.957031 344.800781 430.789062 344.835938 430.625 344.871094 C 430.449219 344.90625 430.273438 344.945312 430.101562 344.917969 C 429.414062 344.820312 429.683594 343.972656 430.289062 344.019531 " fill-opacity="1" fill-rule="nonzero"/><path fill="#ebf3f9" d="M 429.179688 343.214844 C 429.265625 343.257812 429.363281 343.335938 429.339844 343.433594 C 429.316406 343.539062 429.175781 343.5625 429.066406 343.558594 C 428.863281 343.554688 428.222656 343.542969 428.347656 343.195312 C 428.460938 342.878906 428.996094 343.117188 429.179688 343.214844 " fill-opacity="1" fill-rule="nonzero"/><path fill="#ebf3f9" d="M 432.589844 344.378906 C 432.738281 344.359375 432.886719 344.390625 433.035156 344.421875 C 433.386719 344.496094 433.738281 344.570312 434.089844 344.644531 C 434.195312 344.664062 434.3125 344.695312 434.371094 344.785156 C 434.441406 344.898438 434.386719 345.058594 434.277344 345.140625 C 434.171875 345.222656 434.03125 345.242188 433.894531 345.25 C 433.417969 345.285156 432.929688 345.226562 432.472656 345.078125 C 431.9375 344.90625 432.097656 344.445312 432.589844 344.378906 " fill-opacity="1" fill-rule="nonzero"/><path fill="#ebf3f9" d="M 430.972656 345.332031 C 430.878906 345.476562 431 345.660156 431.121094 345.777344 C 431.136719 345.792969 431.152344 345.808594 431.167969 345.824219 C 431.332031 345.976562 431.511719 346.113281 431.707031 346.230469 C 432.15625 346.511719 432.269531 346.117188 432.050781 345.792969 C 431.90625 345.574219 431.226562 344.953125 430.972656 345.332031 " fill-opacity="1" fill-rule="nonzero"/><path fill="#ebf3f9" d="M 435.0625 345.265625 C 434.664062 345.679688 434.15625 345.988281 433.605469 346.148438 C 433.511719 346.171875 433.417969 346.195312 433.339844 346.253906 C 433.261719 346.308594 433.203125 346.40625 433.222656 346.496094 C 433.25 346.601562 433.363281 346.664062 433.472656 346.664062 C 433.578125 346.660156 433.679688 346.613281 433.773438 346.566406 C 434.558594 346.175781 435.34375 345.785156 436.128906 345.394531 C 436.46875 345.226562 437.195312 344.539062 436.488281 344.3125 C 435.902344 344.121094 435.390625 344.921875 435.0625 345.265625 " fill-opacity="1" fill-rule="nonzero"/><path fill="#ebf3f9" d="M 437.976562 344.703125 C 438.042969 344.933594 438.300781 345.050781 438.539062 345.09375 C 438.84375 345.152344 439.164062 345.132812 439.460938 345.042969 C 439.914062 344.90625 440.433594 344.050781 439.660156 344.089844 C 439.496094 344.097656 438.039062 344.929688 437.976562 344.703125 " fill-opacity="1" fill-rule="nonzero"/><path fill="#ebf3f9" d="M 442.332031 343.859375 C 442.347656 343.710938 442.316406 343.5625 442.273438 343.421875 C 442.179688 343.105469 442.03125 342.804688 441.832031 342.542969 C 441.738281 342.417969 441.585938 342.285156 441.4375 342.34375 C 441.242188 342.417969 441.28125 342.71875 441.148438 342.878906 C 441.0625 342.984375 440.917969 343.019531 440.789062 343.054688 C 440.65625 343.089844 440.515625 343.15625 440.46875 343.28125 C 440.367188 343.570312 440.722656 343.683594 440.933594 343.671875 C 441.1875 343.652344 441.273438 343.523438 441.460938 343.730469 C 441.605469 343.894531 441.574219 344.183594 441.816406 344.269531 C 442.089844 344.371094 442.304688 344.105469 442.332031 343.859375 " fill-opacity="1" fill-rule="nonzero"/><path fill="#ebf3f9" d="M 437.535156 340.871094 C 437.453125 340.96875 437.378906 341.105469 437.433594 341.222656 C 437.476562 341.3125 437.578125 341.359375 437.675781 341.367188 C 437.773438 341.371094 437.871094 341.34375 437.96875 341.324219 C 438.417969 341.234375 438.902344 341.324219 439.292969 341.566406 C 439.390625 341.625 439.484375 341.695312 439.589844 341.734375 C 439.695312 341.777344 439.824219 341.785156 439.917969 341.71875 C 440.058594 341.625 440.070312 341.417969 440.03125 341.253906 C 439.757812 340.121094 438.191406 340.070312 437.535156 340.871094 " fill-opacity="1" fill-rule="nonzero"/><path fill="#ebf3f9" d="M 436.167969 340.800781 C 436.113281 340.894531 436.109375 341.015625 436.175781 341.101562 C 436.242188 341.183594 436.351562 341.207031 436.457031 341.230469 C 436.558594 341.25 436.671875 341.269531 436.761719 341.21875 C 436.957031 341.113281 436.921875 340.773438 436.761719 340.648438 C 436.59375 340.519531 436.265625 340.632812 436.167969 340.800781 " fill-opacity="1" fill-rule="nonzero"/><path fill="#ebf3f9" d="M 444.0625 357.871094 C 440.019531 359.742188 435.441406 360.601562 430.6875 360.164062 C 427.171875 359.835938 423.878906 358.828125 420.9375 357.285156 C 421.617188 356.957031 422.296875 356.628906 422.972656 356.28125 C 424.59375 355.449219 426.183594 354.503906 427.628906 353.296875 C 428.867188 352.261719 430.136719 350.980469 431.628906 351.003906 C 432.410156 351.015625 433.144531 351.398438 433.851562 351.773438 C 434.898438 352.332031 435.949219 352.886719 437 353.445312 C 437.640625 353.785156 438.28125 354.128906 438.917969 354.484375 C 440.695312 355.488281 442.414062 356.617188 444.0625 357.871094 " fill-opacity="1" fill-rule="nonzero"/><path fill="#ebf3f9" d="M 432.769531 312.816406 C 432.9375 313.855469 432.710938 314.957031 432.285156 315.921875 C 431.757812 317.109375 430.855469 318.132812 429.742188 318.804688 C 428.628906 319.476562 427.304688 319.796875 426.007812 319.710938 C 425.371094 319.667969 424.675781 319.609375 424.113281 319.3125 C 424.335938 319.515625 424.5625 319.71875 424.789062 319.921875 C 424.320312 319.765625 423.78125 319.839844 423.371094 320.113281 C 422.960938 320.386719 422.6875 320.855469 422.65625 321.347656 C 422.613281 321.953125 422.910156 322.53125 423.296875 322.996094 C 423.683594 323.460938 424.160156 323.84375 424.570312 324.289062 C 424.964844 324.71875 425.300781 325.214844 425.46875 325.773438 C 425.640625 326.335938 425.628906 326.960938 425.371094 327.484375 C 425.089844 328.042969 424.5625 328.429688 424.054688 328.792969 C 423.613281 329.105469 423.171875 329.421875 422.730469 329.738281 C 422.519531 329.886719 422.265625 330.046875 422.019531 329.964844 C 421.734375 329.871094 421.640625 329.523438 421.566406 329.230469 C 421.367188 328.457031 420.984375 327.730469 420.457031 327.125 C 420.128906 326.75 419.660156 326.398438 419.175781 326.519531 C 418.726562 326.628906 418.464844 327.117188 418.402344 327.582031 C 418.277344 328.476562 418.679688 329.363281 419.183594 330.109375 C 419.691406 330.859375 420.308594 331.535156 420.714844 332.34375 C 421.066406 333.046875 421.238281 333.824219 421.410156 334.59375 C 421.464844 334.835938 421.515625 335.105469 421.394531 335.324219 C 421.277344 335.542969 421.011719 335.652344 420.765625 335.632812 C 420.515625 335.617188 420.289062 335.488281 420.097656 335.332031 C 419.453125 334.796875 419.179688 333.941406 419.015625 333.121094 C 418.847656 332.300781 418.746094 331.445312 418.332031 330.71875 C 418.007812 330.15625 417.503906 329.703125 417.210938 329.125 C 416.796875 328.308594 416.832031 327.34375 416.957031 326.441406 C 417.082031 325.535156 417.28125 324.625 417.167969 323.71875 C 417.140625 323.5 417.089844 323.277344 416.953125 323.105469 C 416.820312 322.929688 416.578125 322.824219 416.371094 322.902344 C 416.199219 322.96875 416.09375 323.144531 415.945312 323.25 C 415.535156 323.539062 414.925781 323.226562 414.730469 322.765625 C 414.535156 322.304688 414.628906 321.78125 414.726562 321.289062 C 414.832031 320.765625 414.417969 320.179688 414.140625 319.722656 C 413.863281 319.265625 413.347656 318.914062 412.820312 318.988281 C 412.464844 319.035156 412.164062 319.261719 411.84375 319.425781 C 411.675781 319.511719 411.484375 319.578125 411.296875 319.589844 C 415.703125 312.980469 423.003906 308.558594 431.21875 307.976562 C 431.210938 307.980469 431.199219 307.984375 431.191406 307.988281 C 430.949219 308.113281 430.679688 308.21875 430.535156 308.449219 C 430.359375 308.726562 430.433594 309.105469 430.613281 309.382812 C 430.796875 309.65625 431.0625 309.859375 431.304688 310.085938 C 432.078125 310.800781 432.601562 311.777344 432.769531 312.816406 " fill-opacity="1" fill-rule="nonzero"/><path fill="#ebf3f9" d="M 436.835938 310.078125 C 436.605469 310.425781 436.15625 310.640625 435.753906 310.527344 C 435.292969 310.398438 435.035156 309.910156 434.898438 309.453125 C 434.761719 308.996094 434.679688 308.496094 434.359375 308.140625 C 434.292969 308.0625 434.214844 307.996094 434.132812 307.929688 C 434.59375 307.949219 435.054688 307.980469 435.515625 308.023438 C 435.964844 308.0625 436.410156 308.117188 436.847656 308.179688 C 436.933594 308.402344 437.007812 308.632812 437.046875 308.867188 C 437.113281 309.28125 437.070312 309.726562 436.835938 310.078125 " fill-opacity="1" fill-rule="nonzero"/><path fill="#ebf3f9" d="M 424.320312 321.765625 C 424.242188 322.132812 424.421875 322.539062 424.742188 322.742188 C 425.0625 322.945312 425.496094 322.9375 425.816406 322.738281 C 426.140625 322.539062 426.335938 322.164062 426.332031 321.785156 C 426.328125 321.363281 426.042969 320.734375 425.554688 320.75 C 425.042969 320.765625 424.425781 321.265625 424.320312 321.765625 " fill-opacity="1" fill-rule="nonzero"/><path fill="#ebf3f9" d="M 433.40625 319.058594 C 433.398438 319.246094 433.390625 319.433594 433.335938 319.613281 C 433.28125 319.789062 433.171875 319.960938 433.011719 320.050781 C 432.753906 320.195312 432.40625 320.101562 432.210938 319.878906 C 432.015625 319.65625 431.957031 319.339844 432 319.046875 C 432.042969 318.757812 432.175781 318.484375 432.320312 318.230469 C 432.472656 317.960938 432.980469 316.921875 433.367188 317.265625 C 433.671875 317.539062 433.421875 318.6875 433.40625 319.058594 " fill-opacity="1" fill-rule="nonzero"/><path fill="#ebf3f9" d="M 443.734375 310.160156 C 443.640625 310.304688 443.5 310.429688 443.347656 310.511719 C 443.027344 310.675781 442.660156 310.703125 442.300781 310.757812 C 440.921875 310.964844 439.617188 311.636719 438.648438 312.636719 C 438.046875 312.539062 437.511719 312.152344 437.457031 311.550781 C 437.386719 310.769531 437.988281 310.078125 438.671875 309.699219 C 439.246094 309.382812 439.886719 309.214844 440.492188 308.972656 C 441.609375 309.296875 442.691406 309.695312 443.734375 310.160156 " fill-opacity="1" fill-rule="nonzero"/><path fill="#ebf3f9" d="M 437.128906 316.183594 C 437.097656 316.339844 437.164062 316.519531 437.308594 316.582031 C 437.445312 316.640625 437.605469 316.578125 437.71875 316.480469 C 437.828125 316.382812 437.902344 316.253906 437.996094 316.140625 C 438.234375 315.84375 438.535156 315.800781 438.832031 315.605469 C 439.101562 315.425781 439.136719 314.996094 438.746094 314.945312 C 438.441406 314.90625 438.15625 315.265625 437.949219 315.433594 C 437.679688 315.648438 437.210938 315.804688 437.128906 316.183594 " fill-opacity="1" fill-rule="nonzero"/><path fill="#ebf3f9" d="M 444.363281 311.808594 C 444.324219 311.851562 444.300781 311.910156 444.285156 311.96875 C 444.261719 312.058594 444.253906 312.15625 444.28125 312.246094 C 444.308594 312.339844 444.371094 312.421875 444.460938 312.453125 C 444.539062 312.484375 444.628906 312.476562 444.703125 312.4375 C 444.78125 312.402344 444.84375 312.34375 444.894531 312.277344 C 444.960938 312.1875 445.015625 312.078125 445 311.964844 C 444.988281 311.867188 444.925781 311.777344 444.835938 311.734375 C 444.746094 311.6875 444.664062 311.710938 444.570312 311.726562 C 444.496094 311.738281 444.417969 311.746094 444.363281 311.808594 " fill-opacity="1" fill-rule="nonzero"/></svg>