<svg xmlns="http://www.w3.org/2000/svg" version="1.0" viewBox="0 0 960 600">
    <defs>
        <clipPath id="a">
            <path d="M434 214h130.54v149H434Zm0 0"/>
        </clipPath>
        <clipPath id="b">
            <path d="M490 248h74.54v115H490Zm0 0"/>
        </clipPath>
        <clipPath id="c">
            <path d="M440 347h81v57.41h-81Zm0 0"/>
        </clipPath>
        <clipPath id="d">
            <path d="M379.29 262H491v130H379.29Zm0 0"/>
        </clipPath>
    </defs>
    <g clip-path="url(#a)">
        <path fill="#e6e7e8" d="m493.31 361.36-57.2-35.57a4.43 4.43 0 0 1-1.42-6.1l64.08-103.07a4.43 4.43 0 0 1 6.09-1.42l57.2 35.56a4.43 4.43 0 0 1 1.42 6.1l-64.07 103.07a4.43 4.43 0 0 1-6.1 1.43"/>
    </g>
    <g clip-path="url(#b)">
        <path fill="#ebf3f9" d="m493.46 361.44-3.23-2 68.75-110.6 3.23 2.01c2 1.24 2.6 3.86 1.36 5.86l-64.25 103.36a4.25 4.25 0 0 1-5.86 1.37"/>
    </g>
    <path fill="#e6e7e8" d="m466.84 401.82-55.3-34.38a5.54 5.54 0 0 1-1.79-7.63l20.08-32.3a5.54 5.54 0 0 1 7.63-1.78l55.31 34.39a5.54 5.54 0 0 1 1.78 7.63l-20.08 32.3a5.54 5.54 0 0 1-7.63 1.77"/>
    <path fill="#ebf3f9" d="m466.8 401.8-2.1-1.3 25.93-41.71 3.2 2a4.28 4.28 0 0 1 1.38 5.89l-20.72 33.33a5.58 5.58 0 0 1-7.69 1.8"/>
    <path fill="#58595b" d="M535.9 250.3c5.74-2.4 1.95-5.27-1.2-4.98-2.52.23-5.03.53-7.54.81-.28.03-.49-.01-.7-.22-.15-.15-1.73-1.57-3.63-3.28l.72-.77a1.34 1.34 0 1 0-1.96-1.83l-.75.8-.68-.6.77-.82c.5-.54.48-1.39-.06-1.9a1.34 1.34 0 0 0-1.9.07l-.8.85-2.48-2.22c-.46-.41-.83-.57-1.5-.46l-3.33.5 7.87 11.9c-.08.05-8.12 2.76-12.11 4.08-.13.04-.34-.02-.44-.1l-3.5-3.18c-.09-.07-.22-.17-.3-.15-.58.11-1.14.25-1.65.36 1.37 2.34 3.2 5.57 3.2 5.57l-.22 7.16c.46-.11.97-.22 1.46-.37.15-.05.31-.2.37-.34.58-1.44 1.15-2.88 1.7-4.32.09-.25.2-.33.46-.36 1.93-.25 10.28-1.4 12.59-1.71l-1.8 14.18c1.24-.4 2.4-.77 3.55-1.12.34-.1.51-.26.64-.6l2.14-5.39 1.7.5a1.34 1.34 0 1 0 .75-2.57l-1.45-.43.34-.84 1.37.4a1.34 1.34 0 1 0 .75-2.57l-1.11-.33 1.1-2.75c.07-.15.27-.28.43-.34 2.4-.88 4.84-1.65 7.2-2.64"/>
    <path fill="#58595b" fill-rule="evenodd" d="m524 288.8-2.43-1.52-34.35 55.25 2.45 1.52ZM517.4 284.69l-2.45-1.52-15.13 24.34 2.44 1.52ZM484.32 264.13l-2.45-1.52-26.35 42.38 2.45 1.52Zm0 0"/>
    <path fill="#c0779d" fill-rule="evenodd" d="m560.53 257.18-2.88-1.79-15.24 24.52 2.88 1.8Zm0 0"/>
    <path fill="#58595b" d="M441.94 329.6a.4.4 0 0 1-.22-.07l-2.72-1.69a.41.41 0 0 1-.13-.57.4.4 0 0 1 .56-.13l2.72 1.7c.2.11.26.37.14.56a.41.41 0 0 1-.35.2m5.44 3.38a.4.4 0 0 1-.22-.07l-2.72-1.69a.4.4 0 0 1-.13-.56.4.4 0 0 1 .56-.14l2.73 1.7a.41.41 0 0 1-.22.76m5.44 3.38a.4.4 0 0 1-.21-.06l-2.73-1.7a.41.41 0 0 1-.13-.56c.12-.2.38-.25.57-.13l2.72 1.69c.2.12.25.37.13.56a.4.4 0 0 1-.35.2m5.45 3.38a.42.42 0 0 1-.22-.06l-2.72-1.7a.4.4 0 0 1-.13-.56c.12-.19.37-.25.56-.13l2.72 1.7c.2.11.25.37.14.56a.41.41 0 0 1-.35.2m5.44 3.38a.4.4 0 0 1-.22-.06l-2.72-1.7a.41.41 0 1 1 .44-.7l2.72 1.7c.2.12.25.37.13.56a.41.41 0 0 1-.35.2m5.44 3.38a.41.41 0 0 1-.22-.06l-2.72-1.7a.4.4 0 0 1-.13-.56.4.4 0 0 1 .57-.13l2.72 1.69c.2.12.25.38.13.57a.42.42 0 0 1-.35.2m5.44 3.37a.4.4 0 0 1-.21-.06l-2.72-1.69a.42.42 0 0 1-.14-.57c.12-.19.38-.25.57-.13l2.72 1.7c.2.11.26.37.14.56a.4.4 0 0 1-.36.2m5.45 3.38a.45.45 0 0 1-.22-.06l-2.72-1.7a.4.4 0 0 1-.13-.56c.12-.2.37-.25.57-.14l2.72 1.7c.19.12.25.37.13.57a.41.41 0 0 1-.35.19m5.44 3.38a.4.4 0 0 1-.21-.06l-2.73-1.69a.42.42 0 0 1-.13-.57.4.4 0 0 1 .57-.13l2.72 1.7c.2.11.25.37.13.56a.41.41 0 0 1-.35.2m5.45 3.38a.41.41 0 0 1-.22-.07l-2.72-1.69a.4.4 0 0 1-.13-.56.4.4 0 0 1 .56-.14l2.72 1.7c.2.12.25.37.13.56a.41.41 0 0 1-.34.2M495.05 362.6a.44.44 0 0 1-.22-.05l-1.4-.87a.41.41 0 0 1 .43-.7l1.4.87c.2.11.26.37.13.56a.41.41 0 0 1-.34.2"/>
    <path fill="#c0779d" fill-rule="evenodd" d="m490.97 364.73-.86-.53-9.12 14.67.86.53ZM492.85 365.9l-.87-.54-4.4 7.09.87.53ZM488.13 373.49l-.86-.54-4.4 7.09.86.53ZM482.11 383.17l-2.74-1.7-10.13 16.3 2.74 1.7Zm0 0"/>
    <path fill="#58595b" fill-rule="evenodd" d="m473.16 358.57-2.45-1.52-12.27 19.74 2.45 1.52ZM466.54 354.46l-2.44-1.52-19.33 31.1 2.44 1.52ZM459.93 350.35l-2.45-1.53-19.33 31.1 2.45 1.53Zm0 0"/>
    <path fill="#e6e7e8" d="m511.56 348.45-66.9 7.73a4.42 4.42 0 0 1-4.91-3.89l-13.92-120.57a4.42 4.42 0 0 1 3.88-4.9l66.91-7.73a4.43 4.43 0 0 1 4.9 3.89l13.93 120.57a4.42 4.42 0 0 1-3.89 4.9"/>
    <path fill="#c0779d" d="m511.73 348.43-3.78.44L493 219.51l3.78-.44a4.26 4.26 0 0 1 4.72 3.74l13.96 120.9a4.25 4.25 0 0 1-3.74 4.72"/>
    <g clip-path="url(#c)">
        <path fill="#e6e7e8" d="m516 396.6-64.7 7.48a5.54 5.54 0 0 1-6.13-4.87l-4.37-37.78a5.54 5.54 0 0 1 4.87-6.13l64.7-7.48a5.54 5.54 0 0 1 6.13 4.87l4.37 37.78a5.54 5.54 0 0 1-4.87 6.14"/>
    </g>
    <path fill="#c0779d" d="m515.96 396.61-2.46.29-5.64-48.79 3.75-.43a4.29 4.29 0 0 1 4.75 3.77l4.5 38.98a5.58 5.58 0 0 1-4.9 6.18"/>
    <path fill="#58595b" d="M475.85 235c3-5.45-1.75-5.34-4.04-3.16-1.83 1.75-3.61 3.55-5.4 5.34-.2.2-.39.29-.68.26-.21-.03-2.33-.16-4.89-.32l.09-1.05a1.34 1.34 0 1 0-2.68-.21l-.09 1.1-.9-.06.1-1.11a1.34 1.34 0 0 0-2.68-.22l-.1 1.17-3.32-.2c-.62-.04-1 .07-1.47.57l-2.28 2.46a16862 16862 0 0 0 13.56 4.43c-.03.08-4.65 7.2-6.95 10.73-.07.1-.28.2-.42.18l-4.71-.3c-.11 0-.27 0-.33.07-.37.44-.73.9-1.05 1.3 2.52.98 5.96 2.38 5.96 2.38l4.28 5.75c.3-.39.62-.79.91-1.21a.68.68 0 0 0 .08-.5c-.44-1.49-.9-2.97-1.36-4.44-.08-.25-.04-.39.13-.57 1.36-1.39 7.2-7.48 8.8-9.16 2.5 4.09 4.94 8.13 7.42 12.22.72-1.08 1.39-2.1 2.08-3.1.2-.27.24-.51.13-.85l-1.67-5.55 1.63-.67a1.34 1.34 0 1 0-1.01-2.48l-1.4.57-.25-.87 1.31-.54a1.34 1.34 0 0 0-1.01-2.48l-1.07.43c-.41-1.37-.73-2.44-.84-2.85-.05-.15.02-.37.11-.52 1.33-2.18 2.77-4.3 4-6.54"/>
    <path fill="#58595b" fill-rule="evenodd" d="m490.48 272.55-2.86.32 7.47 64.63 2.86-.33ZM482.74 273.44l-2.86.33 3.3 28.47 2.85-.33ZM467.27 275.23l-2.86.33 4.73 41.02 2.86-.33ZM459.53 276.12l-2.86.33 7.46 64.62 2.86-.33ZM451.79 277.02l-2.86.32 7.46 64.62 2.86-.32ZM444.05 277.91l-2.86.33 5.73 49.58 2.86-.33Zm0 0"/>
    <path fill="#ebf3f9" fill-rule="evenodd" d="m499.41 225.08-3.36.38 3.31 28.69 3.37-.4Zm0 0"/>
    <path fill="#58595b" d="M505.44 349.37a.41.41 0 0 1-.4-.36.42.42 0 0 1 .35-.46l3.19-.37c.22-.02.43.14.46.36a.41.41 0 0 1-.37.46l-3.18.37h-.05m-6.37.74a.41.41 0 0 1-.4-.37.42.42 0 0 1 .36-.45l3.18-.37c.23-.03.43.13.46.36a.41.41 0 0 1-.37.45l-3.18.38h-.05m-6.36.73a.42.42 0 0 1-.41-.36.42.42 0 0 1 .36-.46l3.18-.37a.42.42 0 0 1 .1.82l-3.19.37h-.04m-6.37.74a.41.41 0 0 1-.05-.82l3.19-.37c.22-.03.43.13.45.36a.42.42 0 0 1-.36.46l-3.18.36h-.05m-6.37.74a.41.41 0 0 1-.4-.36.41.41 0 0 1 .36-.46l3.18-.37c.23-.02.43.14.46.36a.41.41 0 0 1-.37.46l-3.18.37h-.05m-6.36.74a.4.4 0 0 1-.41-.37.41.41 0 0 1 .36-.45l3.18-.37c.23-.03.43.14.46.36a.4.4 0 0 1-.36.46l-3.19.36h-.04m-6.37.74a.4.4 0 0 1-.4-.36.41.41 0 0 1 .35-.46l3.19-.37a.41.41 0 1 1 .09.82l-3.18.37h-.05m-6.37.74a.41.41 0 0 1-.4-.37.4.4 0 0 1 .35-.45l3.19-.37c.22-.03.43.13.45.36a.41.41 0 0 1-.36.46l-3.18.37h-.05m-6.37.73a.41.41 0 0 1-.04-.82l3.18-.36a.41.41 0 1 1 .1.82l-3.19.36h-.05m-6.36.74a.41.41 0 0 1-.05-.82l3.18-.37c.23-.03.44.14.46.36a.41.41 0 0 1-.36.46l-3.18.36h-.05M511.8 348.64a.41.41 0 0 1-.4-.37.41.41 0 0 1 .36-.45l1.63-.2a.4.4 0 0 1 .46.37.41.41 0 0 1-.36.46l-1.63.18h-.05"/>
    <path fill="#ebf3f9" fill-rule="evenodd" d="m511.83 352.56-1 .11 1.97 17.16 1.02-.12ZM514.03 352.3l-1.01.12.96 8.29 1-.12ZM515.05 361.18l-1 .11.95 8.29 1-.12ZM516.36 372.5l-3.2.38 2.2 19.06 3.2-.37Zm0 0"/>
    <path fill="#58595b" fill-rule="evenodd" d="m494.05 358.8-2.86.34 2.67 23.09 2.86-.33ZM486.31 359.7l-2.86.33 4.2 36.38 2.87-.33ZM478.57 360.6l-2.86.33 4.2 36.37 2.87-.33ZM470.84 361.49l-2.86.33 3.22 27.9 2.86-.32Zm0 0"/>
    <g clip-path="url(#d)">
        <path fill="#1c355b" d="m471.22 391.37-87.24-8.08a4.92 4.92 0 0 1-4.44-5.36l10.3-111.34a4.92 4.92 0 0 1 5.36-4.45l87.24 8.08a8.81 8.81 0 0 1 7.97 9.59l-9.6 103.6a8.8 8.8 0 0 1-9.59 7.96"/>
    </g>
    <path fill="#ebf3f9" d="m407.67 277.62 4.47.5c1.43.16 2.1.7 1.99 1.65l-.27 2.47c-.11.95-.88 1.35-2.32 1.19l-2.04-.23-.32 2.85-2.42-.27Zm3.77 4.1.22-1.97c.03-.21-.1-.34-.4-.37l-1.32-.15-.3 2.62 1.32.15c.3.03.46-.06.48-.27ZM419.82 287.23l-.2-1.51-2.48-.28-.54 1.44-2.4-.27 3.36-7.89 3.1.35 1.62 8.44Zm-2.19-3.08 1.78.2-.5-3.56ZM427.41 286.4l.17-1.48c.01-.11-.01-.2-.08-.25-.06-.05-.18-.09-.35-.1l-1.5-.18c-1.34-.15-1.96-.7-1.85-1.66l.2-1.86c.11-.94.88-1.33 2.32-1.17l2.07.23c1.44.16 2.1.71 2 1.66l-.12 1.06-2.44-.27.1-.81c.02-.21-.13-.34-.43-.37l-.59-.07c-.3-.03-.47.06-.5.27l-.15 1.44c-.01.1.01.2.08.25.06.05.18.09.34.1l1.47.17c.73.08 1.24.26 1.53.53.3.27.41.64.36 1.1l-.21 1.92c-.1.95-.88 1.34-2.31 1.19l-2.06-.24c-1.45-.16-2.12-.71-2.01-1.66l.12-1.05 2.43.27-.09.8c-.02.22.12.35.43.38l.58.06c.3.04.47-.05.5-.27ZM435.3 287.28l.16-1.48c.02-.1-.01-.2-.07-.25-.07-.05-.18-.09-.35-.1l-1.5-.18c-1.35-.14-1.97-.7-1.86-1.66l.21-1.86c.1-.94.88-1.33 2.3-1.17l2.09.23c1.43.16 2.1.71 1.99 1.65l-.12 1.07-2.44-.27.1-.81c.02-.22-.13-.34-.43-.37l-.58-.07c-.3-.03-.48.06-.5.27l-.16 1.44c-.01.1.01.2.07.25.07.05.18.09.36.1l1.47.17c.72.08 1.23.26 1.52.53.3.27.42.64.37 1.1l-.22 1.92c-.1.95-.87 1.35-2.3 1.19l-2.07-.23c-1.45-.16-2.12-.72-2.01-1.67l.12-1.05 2.44.27-.1.8c-.02.22.12.35.43.38l.58.07c.3.03.47-.06.5-.27ZM440.13 281.25l4.48.5c1.43.16 2.09.7 1.99 1.64l-.28 2.48c-.1.95-.87 1.34-2.3 1.18l-2.06-.22-.32 2.85-2.42-.28Zm3.78 4.1.22-1.97c.02-.21-.11-.34-.41-.37l-1.31-.15-.3 2.62 1.32.14c.3.04.45-.05.48-.26ZM450.36 282.39l2.28.25c1.43.16 2.1.71 2 1.65l-.6 5.33c-.11.95-.88 1.34-2.31 1.18l-2.29-.25c-1.44-.17-2.11-.72-2-1.67l.59-5.33c.1-.93.88-1.32 2.33-1.16Zm1.26 6.71.54-4.82c.03-.22-.1-.34-.4-.37l-.82-.1c-.31-.03-.48.06-.5.28l-.54 4.82c-.02.21.12.34.42.37l.82.1c.3.03.46-.07.49-.28ZM458.45 288.46l-.34 3.06-2.42-.28.9-8.15 4.48.5c1.43.16 2.1.7 1.99 1.64l-.26 2.29c-.08.75-.59 1.15-1.51 1.2l1.56 3.32-2.6-.29-1.38-3.24Zm.42-3.76-.28 2.46 1.32.15c.16.02.27.01.35-.03.07-.04.12-.12.13-.23l.2-1.83c.02-.22-.11-.34-.4-.37ZM470.67 284.66l-.15 1.34-2-.22-.75 6.81-2.45-.27.77-6.81-1.98-.22.15-1.35Zm0 0"/>
    <path fill="#58595b" d="M436.5 326.2a.4.4 0 0 1-.22-.06l-1.4-.86a.4.4 0 0 1-.13-.57.4.4 0 0 1 .56-.13l1.4.87c.2.12.25.37.13.57a.41.41 0 0 1-.35.19"/>
    <path fill="#ebf3f9" d="M433.07 308.65A25.6 25.6 0 0 0 411.91 320a25.45 25.45 0 1 0 46.52 16.44l.74.07-.74-.07c1-10.87-5-21.14-14.95-25.58l-.05-.02a25.55 25.55 0 0 0-10.36-2.2m.04 52.38a26.73 26.73 0 0 1-12.52-3.07 26.93 26.93 0 0 1 23.34-48.52l.1.05a26.82 26.82 0 0 1 12.2 10.83 26.9 26.9 0 0 1-23.12 40.7"/>
    <path fill="#ebf3f9" d="M434.18 322.95c-.22-.22-.53-.38-.83-.3-.44.1-.62.62-.73 1.06-.17.66-.33 1.38-.03 2 .22.46.7.88.6 1.38-.05.22-.2.4-.31.6-.1.2-.15.47 0 .64.17.19.49.13.69-.02.2-.15.36-.36.57-.5a.78.78 0 0 1 .64-.12c.21.06.4.25.4.47.02.23-.15.46-.37.48-.19.01-.39-.1-.56-.03-.24.1-.21.44-.15.7.1.35.2.73.47 1.01.25.28.7.4 1.01.18.14-.1.25-.26.42-.28.25-.02.39.33.26.54-.13.21-.4.29-.65.3-.25 0-.5-.04-.74.03-.24.06-.47.27-.44.52.03.2.23.35.43.43.2.08.42.13.58.28.33.3.27.88.6 1.19.34.34.98.16 1.25-.24.28-.4.28-.93.25-1.41-.1-.99-.34-1.95-.6-2.9a4.22 4.22 0 0 0-.7-1.68c-.36-.43-.87-.7-1.33-1.03-.28-.2-.55-.45-.72-.74-.25-.4-.14-.48.1-.81.35-.51.32-1.3-.11-1.75M431.27 329.88c-.14.1-.3.2-.4.34-.11.14-.16.35-.08.5.1.18.34.23.53.17.2-.06.35-.21.48-.36.26-.3.49-.61.68-.95.17-.3.18-1-.3-.65-.34.25-.55.7-.9.95M430.33 331.93c.07-.1.16-.22.28-.22.15-.01.26.14.34.27l.73 1.2c.12.2.25.45.17.68-.14.39-.74.39-.94.75-.16.29.01.64.2.91.2.26.43.56.38.88-.05.28-.3.48-.5.67a15.66 15.66 0 0 0-1.53 2.5c-.1.2-.18.41-.32.6-.14.17-.35.31-.57.32-.58.01-.86-.78-1.43-.9-.38-.09-.78.17-1.17.08-.43-.1-.63-.57-.78-.99-.19-.5-.37-1.02-.48-1.55a6.07 6.07 0 0 1-.13-1.3c0-.3.1-.7.4-.72.24-.03.43.2.64.28.34.13.71-.05 1.02-.23.77-.46 1.5-.98 2.2-1.55a8.43 8.43 0 0 0 1.49-1.68M415.43 331.41c-.1-.05-.2-.1-.31-.07-.13.04-.2.2-.18.32 0 .14.08.25.15.37l2.88 4.68 1.42 2.29.96 1.56c.13.2.25.41.44.57.18.15.42.25.66.19.22-.05.39-.24.48-.44.1-.2.13-.44.16-.67.05-.45.1-.93-.1-1.33-.2-.39-.58-.63-.85-.97-.36-.46-.47-1.06-.74-1.57a5.87 5.87 0 0 0-.9-1.21l-1.91-2.17c-.28-.3-.54-.69-.88-.9-.4-.26-.86-.44-1.28-.65M422.32 341.45c-.31.1-.54.47-.43.79.1.3.43.44.72.55l2.66.97c1.02.37 2.07.75 3.16.76.15 0 .3 0 .44-.07.13-.07.24-.2.22-.36-.02-.2-.25-.3-.45-.38-1.26-.44-2.51-.9-3.8-1.28-.36-.11-.75-.15-1.06-.37-.45-.31-.83-.83-1.46-.61M434.39 336.78c-.26-.12-.53-.26-.82-.26-.41-.02-.8.24-1.04.57-.25.32-.39.72-.52 1.1l-.58 1.69c-.05.12-.09.25-.06.37.06.2.27.3.37.47.11.2.06.44-.01.66-.07.22-.17.44-.12.67.03.22.28.43.49.33.17-.08.2-.3.22-.5l.11-1.37 1.28 1.3c.29-.17.33-.58.24-.9-.1-.3-.3-.59-.4-.9-.1-.32-.05-.73.23-.9.12-.07.26-.1.39-.14.13-.05.26-.14.28-.28.02-.19-.2-.34-.39-.33-.19 0-.36.12-.52.21-.17.1-.36.19-.55.14-.28-.08-.4-.44-.28-.7.13-.26.42-.4.7-.43.3-.03.58.04.86.1.28.07.57.12.85.07.2-.04 1.23-.78.86-1-.09-.06-.52.25-.62.27-.34.07-.68-.09-.97-.24M451.26 347.84a47.7 47.7 0 0 0-1.38-1.83c-.3-.36-.7-.76-1.16-.67-.63.12-.8 1.05-1.42 1.22-.46.12-.9-.24-1.23-.57-.34-.33-.77-.7-1.23-.58-.2.05-.36.18-.55.21-.19.04-.43-.1-.4-.3.04-.15.22-.2.37-.27.4-.18.68-.61.67-1.05a1.14 1.14 0 0 0-.75-1c-.47-.17-.93-.48-1.4-.66a3.3 3.3 0 0 1-1.51-1.07c-.18-.27-.32-.57-.46-.88l-.53-1.16c-.08-.19-.17-.41-.08-.6.14-.3.57-.27.9-.18.33.1.66.2.94.4.28.2.5.52.51.86 0 .28-.12.54-.17.8-.05.28 0 .61.26.72.23.1.5-.03.67-.21.17-.18.3-.42.48-.58.44-.37 1.11-.27 1.66-.1.73.23 1.42.56 2.08.94 1.44.83 2.74 1.92 3.8 3.19.13.14.25.35.15.5-.05.08-.12.12-.19.17-.23.19-.25.55-.14.82.12.28.35.49.58.68.23.2.47.4.6.66.1.2.14.44.07.65-.08.21-.29.38-.5.37-.23-.01-.68-.27-.64-.48M437.84 337.4l-.13.87c-.01.1-.01.24.09.28.09.04.2-.05.22-.14.02-.1 0-.2.02-.3 0-.1.06-.22.16-.22.1-.01.18.07.24.15.06.08.15.17.25.14s.12-.14.1-.23c-.02-.09-.1-.16-.15-.23-.06-.07-.11-.15-.1-.25 0-.23.32-.33.37-.55a.47.47 0 0 0-.23-.55c-.57-.29-.78.65-.84 1.02M430.29 344.02c.19.01.36.1.53.2l.43.23c.04.02.08.05.1.09.02.05 0 .12-.05.16-.05.04-.12.05-.18.06l-.5.11c-.17.04-.35.08-.52.05-.69-.1-.42-.95.19-.9M429.18 343.21c.09.05.18.13.16.22-.02.1-.16.13-.27.13-.2 0-.85-.02-.72-.36.11-.32.65-.08.83.01M432.59 344.38c.15-.02.3.01.45.04l1.05.22c.1.02.22.06.28.15.07.1.02.27-.1.35-.1.08-.24.1-.38.11-.47.04-.96-.02-1.42-.17-.53-.17-.37-.63.12-.7M430.97 345.33c-.1.15.03.33.15.45l.05.04c.16.16.34.3.54.41.45.28.56-.11.34-.44-.14-.22-.82-.84-1.08-.46M435.06 345.27c-.4.41-.9.72-1.45.88-.1.02-.2.05-.27.1-.08.06-.14.16-.12.25.03.1.14.16.25.16.1 0 .21-.05.3-.1.79-.38 1.57-.77 2.36-1.17.34-.16 1.07-.85.36-1.08-.59-.19-1.1.61-1.43.96M437.98 344.7c.06.23.32.35.56.4.3.05.62.03.92-.06.45-.13.97-.99.2-.95-.16 0-1.62.84-1.68.61M442.33 343.86c.02-.15-.01-.3-.06-.44-.09-.31-.24-.62-.44-.88-.1-.12-.24-.25-.4-.2-.19.08-.15.38-.28.54-.09.1-.23.14-.36.17-.13.04-.27.1-.32.23-.1.29.25.4.46.4.26-.03.34-.16.53.05.15.16.11.45.36.54.27.1.48-.16.51-.41M437.54 340.87c-.09.1-.16.24-.1.35.04.1.14.14.24.15.1 0 .2-.03.29-.05.45-.09.93 0 1.32.25.1.06.2.13.3.16.1.05.23.06.33-.01.14-.1.15-.3.11-.47-.27-1.13-1.84-1.18-2.5-.38M436.17 340.8c-.06.1-.06.22 0 .3.07.08.18.1.29.13.1.02.21.04.3-.01.2-.1.16-.45 0-.57-.17-.13-.5-.02-.6.15M444.06 357.87a26.19 26.19 0 0 1-23.13-.59 89.2 89.2 0 0 0 2.04-1 24.9 24.9 0 0 0 4.66-2.98c1.24-1.04 2.5-2.32 4-2.3.78.02 1.51.4 2.22.77l3.15 1.68 1.92 1.03c1.78 1 3.5 2.14 5.14 3.4M432.77 312.82a5.62 5.62 0 0 1-.48 3.1 6.46 6.46 0 0 1-8.18 3.4l.68.6a1.63 1.63 0 0 0-2.13 1.43c-.05.6.25 1.18.64 1.65.38.46.86.84 1.27 1.29.4.43.73.92.9 1.48.17.57.16 1.2-.1 1.71-.28.56-.8.95-1.32 1.31l-1.32.95c-.21.15-.46.3-.71.22-.29-.09-.38-.44-.45-.73a5.2 5.2 0 0 0-1.11-2.1c-.33-.38-.8-.73-1.28-.61-.45.1-.72.6-.78 1.06-.12.9.28 1.78.78 2.53.51.75 1.13 1.43 1.53 2.23.36.7.53 1.48.7 2.25.05.25.1.52-.02.73-.11.22-.38.33-.62.31a1.2 1.2 0 0 1-.67-.3c-.65-.53-.92-1.39-1.08-2.2-.17-.83-.27-1.68-.69-2.41-.32-.56-.83-1.02-1.12-1.6a4.55 4.55 0 0 1-.25-2.68c.12-.9.32-1.81.2-2.72a1.2 1.2 0 0 0-.2-.61c-.14-.18-.38-.29-.59-.2-.17.06-.28.23-.42.34-.41.29-1.02-.02-1.22-.48-.2-.47-.1-.99 0-1.48.1-.52-.31-1.11-.59-1.57-.28-.45-.8-.8-1.32-.73-.36.05-.66.27-.98.44-.16.08-.36.15-.54.16a26.21 26.21 0 0 1 19.92-11.61h-.03c-.24.13-.51.24-.65.47-.18.28-.1.66.07.93.19.28.45.48.7.7.77.72 1.3 1.7 1.46 2.74M436.84 310.08c-.23.35-.68.56-1.09.45-.46-.13-.71-.62-.85-1.08-.14-.45-.22-.95-.54-1.3a1.66 1.66 0 0 0-.23-.22 27.39 27.39 0 0 1 2.72.25c.08.22.16.45.2.69.06.41.02.86-.21 1.2"/>
    <path fill="#ebf3f9" d="M424.32 321.77c-.08.36.1.77.42.97.32.2.76.2 1.08 0 .32-.2.52-.58.51-.95 0-.43-.29-1.06-.78-1.04-.5.02-1.12.52-1.23 1.02M433.4 319.06c0 .19 0 .37-.06.55a.75.75 0 0 1-.33.44c-.26.15-.6.05-.8-.17-.2-.22-.25-.54-.21-.83.04-.3.18-.57.32-.82.15-.27.66-1.3 1.05-.96.3.27.05 1.42.04 1.79M443.73 310.16c-.09.14-.23.27-.38.35-.32.17-.69.2-1.05.25-1.38.2-2.68.88-3.65 1.88-.6-.1-1.14-.49-1.2-1.09-.06-.78.54-1.47 1.22-1.85.58-.32 1.22-.49 1.82-.73 1.12.33 2.2.73 3.24 1.19M437.13 316.18c-.03.16.03.34.18.4.14.06.3 0 .4-.1.12-.1.2-.23.29-.34.23-.3.54-.34.83-.53.27-.18.3-.61-.08-.66-.3-.04-.6.32-.8.48-.27.22-.74.37-.82.75M444.36 311.8a.38.38 0 0 0-.07.17.51.51 0 0 0 0 .28c.02.09.08.17.17.2a.3.3 0 0 0 .24-.01.5.5 0 0 0 .2-.16c.06-.1.12-.2.1-.32a.3.3 0 0 0-.16-.23c-.1-.04-.18-.02-.27 0-.07 0-.15.02-.2.08"/>
</svg>