<svg xmlns="http://www.w3.org/2000/svg" viewBox="280 1180 3405 47">
    <path fill="#C0779D"
          d="M2181.63 1189.21a145005.4 145005.4 0 0 0 59.97.55 579224.53 579224.53 0 0 1 223.31 2.05 6092530.08 6092530.08 0 0 0 108.68 1l3.56.03a2559461.87 2559461.87 0 0 1 415.88 3.82 25320283.25 25320283.25 0 0 0 541.34 4.96l2.96.03L3684 1203v2l-146.42 1.38-2.9.02-307.98 2.89-6.87.06a10735977.5 10735977.5 0 0 1-456.67 4.28l-167.16 1.56-3.5.04a2520940.2 2520940.2 0 0 1-106.66.99l-3.38.03-106.86 1a360727 360727 0 0 1-123.37 1.15l-3 .03-40.37.38c-83.04.8-166.07 1.45-452.58-.02l-40.61-.39-3.02-.02a1119473.78 1119473.78 0 0 0-123.72-1.16l-107.02-1-3.4-.03a3861844.83 3861844.83 0 0 0-106.83-1l-3.5-.03a1607477.07 1607477.07 0 0 1-225.25-2.11l-3.63-.04a1951543.1 1951543.1 0 0 0-402.14-3.75l-307.65-2.88-2.9-.03L283 1205v-2l149.72-1.38 2.96-.02a7824539.29 7824539.29 0 0 1 724.77-6.65l3.7-.03a15136977.69 15136977.69 0 0 0 229.94-2.11l3.56-.04a3996220.73 3996220.73 0 0 1 347.13-3.17l3.05-.03 41.33-.38c179.14-1.68 179.14-1.68 392.47.02Z"/>
</svg>