<svg xmlns="http://www.w3.org/2000/svg" width="512px" height="512px" viewBox="75 75 365 365"
     data-bbox="87.34068779712402 87.07584597432916 337.84830805134175 337.84830805134175" style="overflow: visible;">
    <path transform="matrix(3.3784830570220947, 0, 0, 3.3784830570220947, 87.34068867805581, 87.07584714889526)"
          fill="rgba(34, 83, 120, 1)" data-type="circle" data-cx="50" data-cy="50" data-r="50"
          d="M50,50m-50,0a50,50 0 1, 0 100,0a50,50 0 1, 0 -100,0" data-uid="o-e09a5a177e784039b48ef8396f05c0db"></path>
    <path text="Crea-Voyages" fill="#ebf3f9" space="preserve" text-anchor="middle" offset="0.5" font-scale="contain"
          font-size="40" font-family="Arimo"
          transform="matrix(0.9458935856819153, 0, 0, 1, 255.9876954013489, 174.5572926934152)" font-style="normal"
          font-weight="400" data-uid="o-a49e09848d5c40e8a15ccdc0567ac842" data-fl-textpath=""
          d="M-111.113-2.676L-111.113-2.676Q-105.332-2.676 -102.422-8.398L-102.422-8.398L-99.375-6.875Q-101.074-3.32 -104.15-1.465Q-107.227 0.391 -111.289 0.391L-111.289 0.391Q-115.469 0.391 -118.477-1.348Q-121.484-3.086 -123.096-6.299Q-124.707-9.512 -124.707-13.887L-124.707-13.887Q-124.707-18.281 -123.105-21.426Q-121.504-24.57 -118.496-26.25Q-115.488-27.93 -111.309-27.93L-111.309-27.93Q-106.914-27.93 -103.965-26.211Q-101.016-24.492 -99.629-21.113L-99.629-21.113L-103.164-19.941Q-104.121-22.344 -106.24-23.613Q-108.359-24.883 -111.269-24.883L-111.269-24.883Q-115.84-24.883 -118.379-21.943Q-120.918-19.004 -120.918-13.887L-120.918-13.887Q-120.918-10.527 -119.717-7.998Q-118.516-5.469 -116.318-4.072Q-114.121-2.676 -111.113-2.676ZM-91.562-11.016L-91.562-11.016L-91.562 0L-95.078 0L-95.078-16.211Q-95.078-17.324 -95.107-18.555Q-95.137-19.785 -95.195-21.133L-95.195-21.133L-91.875-21.133Q-91.836-20.234 -91.807-19.512Q-91.777-18.789 -91.758-18.252Q-91.738-17.715 -91.729-17.354Q-91.719-16.992 -91.719-16.816L-91.719-16.816L-91.641-16.816Q-91.055-18.73 -90.352-19.785L-90.352-19.785Q-89.668-20.762 -88.789-21.143Q-87.91-21.523 -86.621-21.523L-86.621-21.523Q-85.898-21.523 -85.195-21.328L-85.195-21.328L-85.195-18.105Q-85.859-18.301 -87.07-18.301L-87.07-18.301Q-89.258-18.301 -90.41-16.416Q-91.562-14.531 -91.562-11.016ZM-64.062-9.824L-79.141-9.824Q-79.141-6.191 -77.637-4.219Q-76.133-2.246 -73.242-2.246L-73.242-2.246Q-70.957-2.246 -69.58-3.164Q-68.203-4.082 -67.715-5.488L-67.715-5.488L-64.629-4.609Q-66.523 0.391 -73.242 0.391L-73.242 0.391Q-77.93 0.391 -80.381-2.402Q-82.832-5.195 -82.832-10.703L-82.832-10.703Q-82.832-15.938 -80.381-18.73Q-77.93-21.523 -73.379-21.523L-73.379-21.523Q-68.711-21.523 -66.387-18.711Q-64.062-15.898 -64.062-10.293L-64.062-10.293L-64.062-9.824ZM-79.102-12.52L-67.695-12.52Q-67.988-15.859 -69.395-17.393Q-70.801-18.926 -73.437-18.926L-73.437-18.926Q-75.996-18.926 -77.49-17.217Q-78.984-15.508 -79.102-12.52L-79.102-12.52ZM-54.199 0.391L-54.199 0.391Q-57.383 0.391 -58.984-1.289Q-60.586-2.969 -60.586-5.898L-60.586-5.898Q-60.586-9.18 -58.428-10.938Q-56.27-12.695 -51.465-12.813L-51.465-12.813L-46.719-12.891L-46.719-14.043Q-46.719-16.621 -47.812-17.734Q-48.906-18.848 -51.25-18.848L-51.25-18.848Q-53.613-18.848 -54.687-18.047Q-55.762-17.246 -55.977-15.488L-55.977-15.488L-59.648-15.82Q-58.75-21.523 -51.172-21.523L-51.172-21.523Q-47.187-21.523 -45.176-19.697Q-43.164-17.871 -43.164-14.414L-43.164-14.414L-43.164-5.313Q-43.164-3.75 -42.754-2.959Q-42.344-2.168 -41.191-2.168L-41.191-2.168Q-40.645-2.168 -40.039-2.305L-40.039-2.305L-40.039-0.117Q-40.703 0.039 -41.387 0.117Q-42.07 0.195 -42.754 0.195L-42.754 0.195Q-44.707 0.195 -45.596-0.83Q-46.484-1.855 -46.602-4.043L-46.602-4.043L-46.719-4.043Q-48.066-1.621 -49.854-0.615Q-51.641 0.391 -54.199 0.391ZM-46.719-8.691L-46.719-10.43L-50.566-10.352Q-53.027-10.332 -54.316-9.844L-54.316-9.844Q-55.605-9.375 -56.289-8.398Q-56.973-7.422 -56.973-5.84L-56.973-5.84Q-56.973-4.121 -56.045-3.184Q-55.117-2.246 -53.398-2.246L-53.398-2.246Q-51.445-2.246 -49.961-3.125L-49.961-3.125Q-48.457-4.004 -47.588-5.537Q-46.719-7.07 -46.719-8.691L-46.719-8.691ZM-38.262-12.188L-28.496-12.188L-28.496-9.063L-38.262-9.063L-38.262-12.188ZM-4.141-27.52L-0.215-27.52L-11.445 0L-15.312 0L-26.543-27.52L-22.617-27.52L-15-8.145Q-14.531-6.953 -14.15-5.723Q-13.77-4.492 -13.359-3.281L-13.359-3.281Q-12.969-4.492 -12.539-5.82Q-12.109-7.148 -11.719-8.145L-11.719-8.145L-4.141-27.52ZM 18.32-10.586L 18.32-10.586Q 18.32-5.039  15.879-2.324Q 13.438 0.391  8.789 0.391L 8.789 0.391Q 4.16 0.391  1.797-2.432Q-0.566-5.254 -0.566-10.586L-0.566-10.586Q-0.566-16.055  1.807-18.789Q 4.18-21.523  8.906-21.523L 8.906-21.523Q 13.75-21.523  16.035-18.857Q 18.32-16.191  18.32-10.586ZM 14.629-10.586L 14.629-10.586Q 14.629-14.961  13.33-16.943Q 12.031-18.926  8.965-18.926L 8.965-18.926Q 5.879-18.926  4.502-16.904Q 3.125-14.883  3.125-10.586L 3.125-10.586Q 3.125-6.406  4.482-4.307Q 5.84-2.207  8.75-2.207L 8.75-2.207Q 11.914-2.207  13.272-4.238Q 14.629-6.269  14.629-10.586ZM 23.73 8.301L 23.73 8.301Q 22.324 8.301  21.309 8.086L 21.309 8.086L 21.309 5.449Q 22.051 5.566  22.949 5.566L 22.949 5.566Q 24.59 5.566  25.986 4.346Q 27.383 3.125  28.477-0.098L 28.477-0.098L 20.098-21.133L 23.848-21.133L 28.301-9.453Q 28.789-8.203  29.346-6.621Q 29.902-5.039  30.215-3.828L 30.215-3.828Q 30.703-5.215  31.201-6.582Q 31.699-7.949  32.168-9.316L 32.168-9.316L 36.211-21.133L 39.922-21.133L 31.797 0Q 31.133 1.68  30.527 2.939Q 29.922 4.199  29.355 5.019L 29.355 5.019Q 28.223 6.68  26.846 7.49Q 25.469 8.301  23.73 8.301ZM 48.086 0.391L 48.086 0.391Q 44.902 0.391  43.301-1.289Q 41.699-2.969  41.699-5.898L 41.699-5.898Q 41.699-9.18  43.857-10.938Q 46.016-12.695  50.82-12.813L 50.82-12.813L 55.566-12.891L 55.566-14.043Q 55.566-16.621  54.473-17.734Q 53.379-18.848  51.035-18.848L 51.035-18.848Q 48.672-18.848  47.598-18.047Q 46.523-17.246  46.309-15.488L 46.309-15.488L 42.637-15.82Q 43.535-21.523  51.113-21.523L 51.113-21.523Q 55.098-21.523  57.109-19.697Q 59.121-17.871  59.121-14.414L 59.121-14.414L 59.121-5.313Q 59.121-3.75  59.531-2.959Q 59.941-2.168  61.094-2.168L 61.094-2.168Q 61.641-2.168  62.246-2.305L 62.246-2.305L 62.246-0.117Q 61.582 0.039  60.898 0.117Q 60.215 0.195  59.531 0.195L 59.531 0.195Q 57.578 0.195  56.689-0.83Q 55.801-1.855  55.684-4.043L 55.684-4.043L 55.566-4.043Q 54.219-1.621  52.432-0.615Q 50.645 0.391  48.086 0.391ZM 55.566-8.691L 55.566-10.43L 51.719-10.352Q 49.258-10.332  47.969-9.844L 47.969-9.844Q 46.68-9.375  45.996-8.398Q 45.313-7.422  45.313-5.84L 45.313-5.84Q 45.313-4.121  46.24-3.184Q 47.168-2.246  48.887-2.246L 48.887-2.246Q 50.84-2.246  52.324-3.125L 52.324-3.125Q 53.828-4.004  54.697-5.537Q 55.566-7.07  55.566-8.691L 55.566-8.691ZM 72.949 8.301L 72.949 8.301Q 69.492 8.301  67.441 6.943Q 65.391 5.586  64.805 3.086L 64.805 3.086L 68.34 2.578Q 68.691 4.043  69.893 4.834Q 71.094 5.625  73.047 5.625L 73.047 5.625Q 75.664 5.625  76.982 4.082Q 78.301 2.539  78.301-0.527L 78.301-0.527L 78.301-3.926L 78.262-3.926Q 77.266-1.895  75.527-0.869Q 73.789 0.156  71.465 0.156L 71.465 0.156Q 67.578 0.156  65.752-2.422Q 63.926-5  63.926-10.527L 63.926-10.527Q 63.926-16.133  65.889-18.799Q 67.852-21.465  71.855-21.465L 71.855-21.465Q 74.102-21.465  75.752-20.439Q 77.402-19.414  78.301-17.52L 78.301-17.52L 78.34-17.52Q 78.34-17.91  78.379-18.74Q 78.418-19.57  78.477-20.313Q 78.535-21.055  78.574-21.133L 78.574-21.133L 81.914-21.133Q 81.797-20.078  81.797-16.758L 81.797-16.758L 81.797-0.606Q 81.797 3.848  79.59 6.074Q 77.383 8.301  72.949 8.301ZM 78.301-10.566L 78.301-10.566Q 78.301-14.414  76.728-16.631Q 75.156-18.848  72.715-18.848L 72.715-18.848Q 70.019-18.848  68.789-16.895Q 67.559-14.941  67.559-10.566L 67.559-10.566Q 67.559-6.231  68.711-4.336Q 69.863-2.441  72.656-2.441L 72.656-2.441Q 75.156-2.441  76.728-4.619Q 78.301-6.797  78.301-10.566ZM 104.961-9.824L 89.883-9.824Q 89.883-6.191  91.387-4.219Q 92.891-2.246  95.781-2.246L 95.781-2.246Q 98.066-2.246  99.443-3.164Q 100.82-4.082  101.309-5.488L 101.309-5.488L 104.394-4.609Q 102.5 0.391  95.781 0.391L 95.781 0.391Q 91.094 0.391  88.643-2.402Q 86.191-5.195  86.191-10.703L 86.191-10.703Q 86.191-15.938  88.643-18.73Q 91.094-21.523  95.644-21.523L 95.644-21.523Q 100.312-21.523  102.637-18.711Q 104.961-15.898  104.961-10.293L 104.961-10.293L 104.961-9.824ZM 89.922-12.52L 101.328-12.52Q 101.035-15.859  99.629-17.393Q 98.223-18.926  95.586-18.926L 95.586-18.926Q 93.027-18.926  91.533-17.217Q 90.039-15.508  89.922-12.52L 89.922-12.52ZM 125.293-5.84L 125.293-5.84Q 125.293-2.852  123.037-1.23Q 120.781 0.391  116.719 0.391L 116.719 0.391Q 112.773 0.391  110.635-0.908Q 108.496-2.207  107.852-4.961L 107.852-4.961L 110.957-5.566Q 111.406-3.867  112.812-3.076Q 114.219-2.285  116.719-2.285L 116.719-2.285Q 119.395-2.285  120.635-3.106Q 121.875-3.926  121.875-5.566L 121.875-5.566Q 121.875-6.816  121.016-7.598Q 120.156-8.379  118.242-8.887L 118.242-8.887Q 115.977-9.492  114.639-9.883Q 113.301-10.273  112.578-10.557Q 111.855-10.84  111.426-11.094L 111.426-11.094Q 110.137-11.836  109.414-12.91Q 108.691-13.984  108.691-15.547L 108.691-15.547Q 108.691-18.438  110.752-19.951Q 112.812-21.465  116.758-21.465L 116.758-21.465Q 120.254-21.465  122.314-20.234Q 124.375-19.004  124.922-16.289L 124.922-16.289L 121.758-15.898Q 121.465-17.305  120.186-18.057Q 118.906-18.809  116.758-18.809L 116.758-18.809Q 114.375-18.809  113.242-18.086Q 112.109-17.363  112.109-15.898L 112.109-15.898Q 112.109-14.824  112.754-14.131Q 113.398-13.438  115.215-12.988L 115.215-12.988Q 117.656-12.402  119.863-11.709Q 122.07-11.016  123.027-10.332L 123.027-10.332Q 124.141-9.531  124.717-8.447Q 125.293-7.363  125.293-5.84Z"></path>
    <path text="By Charlène" fill="#ebf3f9" space="preserve" text-anchor="middle" offset="0.5" font-scale="contain"
          font-size="23" font-family="Parisienne" transform="matrix(1, 0, 0, 1, 255.79334113243203, 378.4522470053603)"
          font-style="normal" font-weight="400" data-uid="o-b8e3830be74c4030938ab4e151e66af9" data-fl-textpath=""
          d="M-39.217-16.543L-38.891-16.149Q-39.071-15.925 -39.234-15.717Q-39.397-15.509 -39.554-15.285L-39.554-15.285Q-38.419-14.869 -37.723-14.257Q-37.027-13.645 -36.645-12.977Q-36.263-12.309 -36.134-11.663Q-36.005-11.017 -36.005-10.545L-36.005-10.545Q-36.005-9.883 -36.224-9.282Q-36.443-8.681 -36.808-8.187Q-37.173-7.693 -37.656-7.328Q-38.139-6.963 -38.667-6.772L-38.667-6.772Q-37.577-5.873 -37.044-4.773Q-36.51-3.672 -36.51-2.549L-36.51-2.549Q-36.51-1.606 -36.898-0.764Q-37.285 0.079 -37.948 0.708Q-38.61 1.336 -39.514 1.707Q-40.418 2.078 -41.44 2.078L-41.44 2.078Q-42.328 2.078 -43.074 1.791Q-43.821 1.505 -44.411 1.011Q-45.001 0.517 -45.433-0.157Q-45.865-0.831 -46.112-1.595L-46.112-1.595L-45.551-1.763Q-45.135-0.415 -44.181 0.32Q-43.226 1.056 -41.878 1.056L-41.878 1.056Q-41.047 1.056 -40.289 0.747Q-39.531 0.438 -38.959-0.096Q-38.386-0.629 -38.049-1.353Q-37.712-2.078 -37.712-2.92L-37.712-2.92Q-37.712-3.493 -37.869-4.009Q-38.026-4.526 -38.285-4.986Q-38.543-5.447 -38.863-5.834Q-39.183-6.222 -39.52-6.525L-39.52-6.525Q-39.823-6.469 -40.126-6.435Q-40.43-6.401 -40.722-6.401L-40.722-6.401Q-41.126-6.401 -41.547-6.463Q-41.968-6.525 -42.311-6.648Q-42.653-6.772 -42.872-6.974Q-43.091-7.176 -43.091-7.468L-43.091-7.468Q-43.091-7.536 -43.058-7.665Q-43.024-7.794 -42.917-7.918Q-42.811-8.041 -42.597-8.136Q-42.384-8.232 -42.013-8.232L-42.013-8.232Q-41.665-8.232 -41.311-8.153Q-40.958-8.075 -40.632-7.946Q-40.306-7.816 -40.003-7.654Q-39.7-7.491 -39.453-7.322L-39.453-7.322Q-39.048-7.502 -38.638-7.811Q-38.229-8.12 -37.892-8.569Q-37.555-9.018 -37.341-9.602Q-37.128-10.186 -37.128-10.916L-37.128-10.916Q-37.128-12.196 -37.835-13.218Q-38.543-14.24 -39.936-14.779L-39.936-14.779Q-40.609-13.836 -41.193-12.904Q-41.777-11.972 -42.283-11.04Q-42.788-10.107 -43.232-9.175Q-43.675-8.243 -44.08-7.289L-44.08-7.289Q-45.012-5.11 -45.899-3.566Q-46.786-2.022 -47.791-1.044Q-48.796-0.067 -49.981 0.388Q-51.166 0.842 -52.693 0.842L-52.693 0.842Q-53.873 0.842 -54.726 0.455Q-55.58 0.067 -56.13-0.606Q-56.68-1.28 -56.944-2.173Q-57.208-3.066 -57.208-4.077L-57.208-4.077Q-57.208-5.2 -56.849-6.396Q-56.489-7.592 -55.782-8.782L-55.782-8.782Q-55.333-9.535 -54.67-10.349Q-54.007-11.163 -53.154-11.955Q-52.3-12.747 -51.25-13.46Q-50.2-14.173 -48.982-14.706Q-47.763-15.24 -46.376-15.56Q-44.989-15.88 -43.451-15.88L-43.451-15.88Q-42.507-15.88 -41.727-15.784Q-40.946-15.689 -40.284-15.509L-40.284-15.509Q-40.025-15.768 -39.761-16.026Q-39.498-16.284 -39.217-16.543L-39.217-16.543ZM-43.361-11.489L-43.361-11.489Q-42.766-12.477 -42.12-13.347Q-41.474-14.218 -40.733-15.026L-40.733-15.026Q-41.16-15.127 -41.637-15.184Q-42.114-15.24 -42.642-15.24L-42.642-15.24Q-44.338-15.24 -45.983-14.774Q-47.628-14.308 -49.116-13.477Q-50.605-12.646 -51.874-11.5Q-53.143-10.354 -54.069-9.012Q-54.996-7.67 -55.518-6.177Q-56.04-4.683 -56.04-3.144L-56.04-3.144Q-56.04-2.381 -55.832-1.758Q-55.625-1.134 -55.209-0.691Q-54.793-0.247 -54.181-0.006Q-53.569 0.236 -52.772 0.236L-52.772 0.236Q-51.436 0.236 -50.436-0.264Q-49.437-0.764 -48.656-1.628Q-47.876-2.493 -47.247-3.644Q-46.618-4.795 -46.017-6.098Q-45.416-7.401 -44.787-8.782Q-44.158-10.164 -43.361-11.489ZM-40.216-7.098L-40.216-7.098Q-40.385-7.221 -40.615-7.328Q-40.845-7.435 -41.092-7.508Q-41.339-7.581 -41.586-7.625Q-41.834-7.67 -42.013-7.67L-42.013-7.67Q-42.328-7.67 -42.412-7.597Q-42.496-7.524 -42.496-7.468L-42.496-7.468Q-42.496-7.367 -42.345-7.289Q-42.193-7.21 -41.963-7.148Q-41.732-7.086 -41.452-7.053Q-41.171-7.019 -40.901-7.019L-40.901-7.019Q-40.778-7.019 -40.621-7.03Q-40.463-7.042 -40.216-7.098ZM-29.57-2.504L-29.57-2.504Q-30.008-2.022 -30.457-1.612Q-30.906-1.202 -31.344-0.898Q-31.782-0.595 -32.203-0.421Q-32.625-0.247 -33.018-0.247L-33.018-0.247Q-33.456-0.247 -33.809-0.41Q-34.163-0.573 -34.416-0.876Q-34.668-1.179-34.803-1.595Q-34.938-2.01-34.938-2.516L-34.938-2.516Q-34.938-3.189-34.657-3.919Q-34.376-4.649 -33.933-5.34Q-33.489-6.031 -32.945-6.648Q-32.4-7.266 -31.883-7.715L-31.883-7.715L-31.4-7.378Q-31.535-7.188 -31.771-6.851Q-32.007-6.514 -32.276-6.07Q-32.546-5.627 -32.821-5.11Q-33.096-4.593 -33.321-4.054Q-33.545-3.515 -33.686-2.976Q-33.826-2.437 -33.826-1.965L-33.826-1.965Q-33.826-1.741 -33.787-1.533Q-33.748-1.325 -33.652-1.168Q-33.557-1.011 -33.399-0.921Q-33.242-0.831 -32.995-0.831L-32.995-0.831Q-32.602-0.831 -32.136-1.073Q-31.67-1.314 -31.17-1.735Q-30.67-2.156 -30.148-2.718Q-29.626-3.279 -29.121-3.919Q-28.615-4.56 -28.144-5.239Q-27.672-5.918 -27.268-6.581L-27.268-6.581Q-26.908-7.176 -26.549-7.777Q-26.189-8.378 -25.83-8.951L-25.83-8.951L-25.302-8.681Q-25.314-8.659 -25.51-8.26Q-25.707-7.861 -26.032-7.182Q-26.358-6.502 -26.79-5.61Q-27.223-4.717 -27.706-3.712Q-28.189-2.707 -28.688-1.651Q-29.188-0.595 -29.66 0.404L-29.66 0.404Q-28.076-0.472 -26.79-1.673Q-25.504-2.875 -24.584-4.189L-24.584-4.189L-24.168-3.874Q-25.145-2.381 -26.594-1.117Q-28.043 0.146 -30.086 1.303L-30.086 1.303Q-31.019 3.302 -31.911 4.953Q-32.804 6.604 -33.697 7.783Q-34.59 8.962-35.483 9.608Q-36.376 10.253-37.296 10.253L-37.296 10.253Q-37.903 10.253-38.307 9.849Q-38.711 9.445-38.711 8.692L-38.711 8.692Q-38.711 8.063-38.431 7.401Q-38.15 6.738-37.656 6.07Q-37.162 5.402-36.482 4.745Q-35.803 4.088-35 3.481Q-34.197 2.875 -33.315 2.325Q-32.434 1.774 -31.524 1.314L-31.524 1.314Q-31.288 0.82 -31.019 0.275Q-30.749-0.27 -30.491-0.78Q-30.232-1.292 -29.991-1.746Q-29.75-2.201 -29.57-2.504ZM-32.041 2.403L-32.041 2.403Q-33.332 3.201 -34.438 4.105Q-35.544 5.009-36.359 5.89Q-37.173 6.772-37.633 7.547Q-38.094 8.322-38.094 8.861L-38.094 8.861Q-38.094 9.22-37.886 9.434Q-37.678 9.647-37.353 9.647L-37.353 9.647Q-36.915 9.647-36.449 9.349Q-35.982 9.052-35.516 8.535Q-35.05 8.019-34.59 7.317Q-34.129 6.615 -33.686 5.812Q-33.242 5.009 -32.827 4.138Q-32.411 3.268 -32.041 2.403ZM-10.658-7.738L-10.658-7.738Q-10.647-7.715 -10.489-7.586Q-10.332-7.457 -10.046-7.3Q-9.759-7.143 -9.344-7.019Q-8.928-6.896 -8.4-6.896L-8.4-6.896Q-7.513-6.896 -6.727-7.232Q-5.941-7.569 -5.273-8.12Q-4.605-8.67 -4.071-9.377Q-3.538-10.085 -3.167-10.826Q-2.796-11.567 -2.594-12.286Q-2.392-13.005 -2.392-13.578L-2.392-13.578Q-2.392-14.263 -2.594-14.768Q-2.796-15.273 -3.139-15.599Q-3.481-15.925 -3.948-16.082Q-4.414-16.239 -4.953-16.239L-4.953-16.239Q-6.02-16.239 -7.07-15.863Q-8.12-15.487 -9.108-14.835Q-10.096-14.184 -11.006-13.303Q-11.916-12.421 -12.702-11.41Q-13.488-10.399 -14.128-9.304Q-14.768-8.21 -15.223-7.131Q-15.678-6.053 -15.925-5.037Q-16.172-4.021 -16.172-3.167L-16.172-3.167Q-16.172-2.179 -15.886-1.303Q-15.599-0.427 -15.026 0.225Q-14.454 0.876 -13.595 1.252Q-12.735 1.628 -11.59 1.628L-11.59 1.628Q-10.568 1.628 -9.467 1.314Q-8.367 1 -7.272 0.303Q-6.177-0.393 -5.11-1.499Q-4.043-2.606 -3.066-4.189L-3.066-4.189L-2.662-3.874Q-3.717-2.156 -4.863-0.988Q-6.008 0.18 -7.154 0.893Q-8.299 1.606 -9.411 1.915Q-10.523 2.224 -11.522 2.224L-11.522 2.224Q-12.96 2.224 -14.061 1.713Q-15.161 1.202 -15.902 0.371Q-16.644-0.46 -17.02-1.522Q-17.396-2.583 -17.396-3.684L-17.396-3.684Q-17.396-4.627 -17.132-5.694Q-16.868-6.761 -16.385-7.861Q-15.902-8.962 -15.223-10.063Q-14.543-11.163 -13.707-12.168Q-12.87-13.173 -11.893-14.038Q-10.916-14.903 -9.844-15.537Q-8.771-16.172 -7.631-16.537Q-6.491-16.902 -5.312-16.902L-5.312-16.902Q-4.571-16.902 -3.891-16.694Q-3.212-16.486 -2.695-16.037Q-2.179-15.588 -1.876-14.886Q-1.572-14.184 -1.572-13.196L-1.572-13.196Q-1.572-12.533 -1.774-11.758Q-1.977-10.983 -2.364-10.203Q-2.751-9.422 -3.307-8.692Q-3.863-7.962 -4.565-7.407Q-5.267-6.851 -6.115-6.514Q-6.963-6.177 -7.918-6.177L-7.918-6.177Q-8.939-6.177 -9.698-6.519Q-10.456-6.862 -10.995-7.367L-10.995-7.367L-10.658-7.738ZM-0.056-7.39L-1.426-4.391Q-0.831-5.2 -0.191-5.879Q 0.449-6.559  1.101-7.053Q 1.752-7.547  2.386-7.822Q 3.021-8.097  3.616-8.097L 3.616-8.097Q 4.02-8.097  4.284-7.974Q 4.548-7.85  4.7-7.654Q 4.852-7.457  4.913-7.221Q 4.975-6.985  4.975-6.75L 4.975-6.75Q 4.975-6.345  4.807-5.879Q 4.638-5.413  4.385-4.908Q 4.133-4.402  3.841-3.874Q 3.549-3.347  3.296-2.841Q 3.043-2.336  2.875-1.859Q 2.707-1.381  2.707-0.966L 2.707-0.966Q 2.707-0.708  2.824-0.488Q 2.942-0.27  3.246-0.27L 3.246-0.27Q 3.605-0.27  4.043-0.634Q 4.481-1  4.936-1.567Q 5.391-2.134  5.845-2.83Q 6.3-3.526  6.693-4.189L 6.693-4.189L 7.098-3.874Q 6.974-3.706  6.761-3.33Q 6.547-2.954  6.261-2.487Q 5.975-2.022  5.621-1.527Q 5.267-1.033  4.868-0.623Q 4.47-0.213  4.032 0.051Q 3.594 0.315  3.144 0.315L 3.144 0.315Q 2.853 0.315  2.561 0.247Q 2.269 0.18  2.033 0Q 1.797-0.18  1.651-0.488Q 1.505-0.797  1.505-1.269L 1.505-1.269Q 1.505-1.819  1.69-2.386Q 1.875-2.954  2.151-3.51Q 2.426-4.065  2.751-4.588Q 3.077-5.11  3.352-5.57Q 3.627-6.031  3.813-6.407Q 3.998-6.783  3.998-7.042L 3.998-7.042Q 3.998-7.502  3.549-7.502L 3.549-7.502Q 2.909-7.502  2.196-7.081Q 1.482-6.66  0.764-5.986Q 0.045-5.312 -0.651-4.475Q-1.348-3.639 -1.954-2.808L-1.954-2.808L-3.661 0.404L-4.683 0Q-3.257-3.111 -1.937-6.149Q-0.618-9.187  0.775-12.151L 0.775-12.151Q 0.988-12.612  1.275-13.151Q 1.561-13.69  1.892-14.229Q 2.224-14.768  2.605-15.262Q 2.987-15.756  3.392-16.138Q 3.796-16.52  4.228-16.75Q 4.661-16.98  5.099-16.98L 5.099-16.98Q 5.593-16.98  5.868-16.705Q 6.143-16.43  6.143-15.925L 6.143-15.925Q 6.143-15.397  5.862-14.729Q 5.582-14.06  5.11-13.319Q 4.638-12.578  4.015-11.792Q 3.392-11.006  2.701-10.231Q 2.01-9.456  1.303-8.732Q 0.595-8.007 -0.056-7.39L-0.056-7.39ZM 5.155-16.385L 5.155-16.385Q 4.649-16.385  4.228-15.998Q 3.807-15.61  3.313-14.723Q 2.819-13.836  2.179-12.41Q 1.539-10.983  0.618-8.906L 0.618-8.906Q 1.853-10.107  2.78-11.236Q 3.706-12.365  4.324-13.297Q 4.941-14.229  5.25-14.92Q 5.559-15.61  5.559-15.947L 5.559-15.947Q 5.559-16.149  5.447-16.267Q 5.334-16.385  5.155-16.385ZM 15.262-7.625L 15.622-7.468Q 15.476-7.176  15.212-6.705Q 14.948-6.233  14.645-5.666Q 14.341-5.099  14.032-4.481Q 13.724-3.863  13.471-3.274Q 13.218-2.684  13.055-2.162Q 12.893-1.64  12.893-1.28L 12.893-1.28Q 12.893-0.921  13.033-0.814Q 13.173-0.708  13.398-0.708L 13.398-0.708Q 13.724-0.708  14.066-0.898Q 14.409-1.089  14.74-1.393Q 15.071-1.696  15.386-2.078Q 15.7-2.459  15.975-2.847Q 16.25-3.234  16.475-3.588Q 16.7-3.942  16.857-4.189L 16.857-4.189L 17.261-3.874Q 17.07-3.515  16.812-3.1Q 16.554-2.684  16.245-2.263Q 15.936-1.842  15.577-1.449Q 15.217-1.056  14.819-0.752Q 14.42-0.449  13.982-0.27Q 13.544-0.09  13.083-0.09L 13.083-0.09Q 12.41-0.09  12.095-0.494Q 11.781-0.898  11.781-1.539L 11.781-1.539Q 11.781-1.583  11.786-1.735Q 11.792-1.887  11.814-1.977L 11.814-1.977Q 11.253-1.269  10.742-0.809Q 10.231-0.348  9.754-0.079Q 9.276 0.191  8.833 0.298Q 8.389 0.404  7.985 0.404L 7.985 0.404Q 7.558 0.404  7.182 0.264Q 6.806 0.123 6.519-0.146Q 6.233-0.415 6.07-0.809Q 5.907-1.202 5.907-1.718L 5.907-1.718Q 5.907-2.358 6.194-3.184Q 6.48-4.009  7.21-4.964L 7.21-4.964Q 7.828-5.784  8.496-6.345Q 9.164-6.907  9.81-7.249Q 10.456-7.592  11.04-7.738Q 11.624-7.884  12.084-7.884L 12.084-7.884Q 13.117-7.884  13.645-7.541Q 14.173-7.199  14.285-6.491L 14.285-6.491Q 14.51-6.772  14.757-7.053Q 15.004-7.333  15.262-7.625L 15.262-7.625ZM 12.174-3.201L 12.174-3.201Q 12.32-3.437  12.533-3.801Q 12.747-4.167  12.982-4.554Q 13.218-4.941  13.443-5.301Q 13.667-5.66  13.836-5.907L 13.836-5.907Q 13.836-6.008  13.808-6.233Q 13.78-6.457  13.656-6.688Q 13.533-6.918  13.263-7.086Q 12.994-7.255  12.511-7.255L 12.511-7.255Q 12.163-7.255  11.73-7.148Q 11.298-7.042  10.809-6.789Q 10.321-6.536  9.804-6.121Q 9.288-5.705  8.771-5.087L 8.771-5.087Q 7.996-4.155  7.575-3.217Q 7.154-2.28  7.154-1.527L 7.154-1.527Q 7.154-0.887  7.446-0.539Q 7.738-0.191  8.277-0.191L 8.277-0.191Q 8.895-0.191  9.434-0.466Q 9.973-0.741  10.444-1.179Q 10.916-1.617  11.343-2.151Q 11.77-2.684  12.174-3.201ZM 23.528-4.189L 23.943-3.874Q 23.775-3.627  23.545-3.206Q 23.314-2.785  23.011-2.297Q 22.708-1.808  22.343-1.303Q 21.978-0.797  21.546-0.393Q 21.113 0.011  20.608 0.27Q 20.103 0.528  19.53 0.528L 19.53 0.528Q 19.215 0.528  18.935 0.432Q 18.654 0.337  18.44 0.135Q 18.227-0.067  18.104-0.365Q 17.98-0.663  17.98-1.067L 17.98-1.067Q 17.98-1.617  18.199-2.218Q 18.418-2.819  18.71-3.38Q 19.002-3.942  19.294-4.408Q 19.586-4.874  19.721-5.155L 19.721-5.155Q 19.855-5.436  19.855-5.638L 19.855-5.638Q 19.855-5.784  19.76-5.896Q 19.665-6.008  19.524-6.115Q 19.384-6.222  19.232-6.34Q 19.081-6.457  18.98-6.626L 18.98-6.626Q 18.699-6.177  18.407-5.716L 18.407-5.716Q 18.148-5.323  17.845-4.835Q 17.542-4.346  17.261-3.874L 17.261-3.874L 16.857-4.189L 19.26-7.951L 19.586-7.783Q 19.563-7.715  19.513-7.569Q 19.462-7.423  19.462-7.255L 19.462-7.255Q 19.462-7.131  19.502-7.013Q 19.541-6.896  19.665-6.794L 19.665-6.794Q 20.114-6.39  20.372-6.171Q 20.63-5.952  20.748-5.823Q 20.866-5.694  20.894-5.61Q 20.922-5.525  20.922-5.391L 20.922-5.391Q 20.922-5.256  20.877-5.065Q 20.833-4.874  20.726-4.604Q 20.619-4.335  20.434-3.97Q 20.249-3.605  19.968-3.122L 19.968-3.122Q 19.799-2.83  19.636-2.533Q 19.474-2.235  19.344-1.932Q 19.215-1.628  19.137-1.325Q 19.058-1.022  19.058-0.741L 19.058-0.741Q 19.058-0.528  19.12-0.399Q 19.182-0.27  19.283-0.202Q 19.384-0.135  19.502-0.112Q 19.62-0.09  19.732-0.09L 19.732-0.09Q 20.103-0.09  20.468-0.309Q 20.833-0.528  21.186-0.876Q 21.54-1.224  21.871-1.668Q 22.203-2.111  22.506-2.572Q 22.809-3.032  23.067-3.453Q 23.326-3.874  23.528-4.189L 23.528-4.189ZM 31.659-16.34L 31.659-16.34Q 32.052-16.34  32.316-16.149Q 32.58-15.959  32.58-15.453L 32.58-15.453Q 32.58-15.105  32.439-14.622Q 32.299-14.139  32.057-13.572Q 31.816-13.005  31.49-12.382Q 31.165-11.758  30.788-11.141Q 30.412-10.523  30.002-9.939Q 29.592-9.355  29.188-8.861L 29.188-8.861Q 28.379-7.861  27.79-7.176Q 27.2-6.491  26.773-6.014Q 26.347-5.537  26.055-5.239Q 25.763-4.941  25.538-4.728Q 25.313-4.515  25.123-4.341Q 24.932-4.167  24.73-3.953L 24.73-3.953Q 24.64-3.526  24.645-3.139Q 24.651-2.752  24.651-2.426L 24.651-2.426Q 24.651-1.449  24.965-0.977Q 25.28-0.505  25.853-0.505L 25.853-0.505Q 26.234-0.505  26.622-0.702Q 27.009-0.898  27.391-1.213Q 27.773-1.527  28.132-1.926Q 28.492-2.325  28.812-2.735Q 29.132-3.144  29.39-3.526Q 29.648-3.908  29.839-4.189L 29.839-4.189L 30.255-3.874Q 30.221-3.83  30.036-3.521Q 29.851-3.212  29.547-2.774Q 29.244-2.336  28.829-1.836Q 28.413-1.336  27.93-0.91Q 27.447-0.483  26.914-0.202Q 26.38 0.079  25.83 0.079L 25.83 0.079Q 25.37 0.079  24.949-0.096Q 24.527-0.27  24.207-0.646Q 23.887-1.022  23.691-1.606Q 23.494-2.19 23.494-3.01L 23.494-3.01Q 23.494-4.032  23.736-5.149Q 23.977-6.267  24.393-7.395Q 24.808-8.524  25.37-9.624Q 25.931-10.725  26.566-11.719Q 27.2-12.713  27.891-13.561Q 28.582-14.409  29.25-15.026Q 29.918-15.644  30.536-15.992Q 31.153-16.34  31.659-16.34ZM 24.932-4.953L 24.932-4.953Q 25.886-5.941  26.779-6.957Q 27.672-7.974  28.452-8.967Q 29.233-9.961  29.884-10.899Q 30.536-11.837  30.996-12.668Q 31.457-13.499  31.715-14.184Q 31.973-14.869  31.973-15.363L 31.973-15.363Q 31.973-15.453  31.883-15.605Q 31.793-15.756  31.67-15.756L 31.67-15.756Q 31.322-15.756  30.749-15.296Q 30.176-14.835  29.508-14.044Q 28.84-13.252  28.127-12.196Q 27.414-11.141  26.785-9.939Q 26.156-8.737  25.662-7.457Q 25.167-6.177  24.932-4.953ZM 30.693-2.561L 30.693-2.561Q 30.67-2.426  30.659-2.291Q 30.648-2.156  30.648-2.022L 30.648-2.022Q 30.648-1.617  30.766-1.252Q 30.884-0.887  31.114-0.612Q 31.344-0.337  31.687-0.18Q 32.029-0.022  32.467-0.022L 32.467-0.022Q 33.938-0.022  35.309-1.022Q 36.679-2.022  38.038-4.189L 38.038-4.189L 38.419-3.852Q 37.678-2.617  36.915-1.769Q 36.151-0.921  35.393-0.393Q 34.635 0.135  33.905 0.371Q 33.175 0.606  32.512 0.606L 32.512 0.606Q 32.029 0.606  31.49 0.472Q 30.951 0.337  30.496 0.022Q 30.041-0.292 29.744-0.82Q 29.446-1.348 29.446-2.134L 29.446-2.134Q 29.446-2.976 29.733-3.757Q 30.019-4.537  30.479-5.211Q 30.94-5.885  31.535-6.441Q 32.13-6.997  32.742-7.39Q 33.354-7.783  33.938-8.002Q 34.522-8.221  34.972-8.221L 34.972-8.221Q 35.264-8.221  35.567-8.131Q 35.87-8.041  36.112-7.85Q 36.353-7.659  36.505-7.345Q 36.656-7.03  36.656-6.592L 36.656-6.592Q 36.656-5.997  36.381-5.475Q 36.106-4.953  35.646-4.509Q 35.185-4.065  34.579-3.712Q 33.972-3.358  33.31-3.111Q 32.647-2.864  31.973-2.718Q 31.299-2.572  30.693-2.561ZM 30.783-3.043L 30.783-3.043Q 31.535-3.122  32.198-3.358Q 32.86-3.594  33.411-3.936Q 33.961-4.279  34.393-4.683Q 34.826-5.087  35.118-5.503Q 35.41-5.918  35.567-6.3Q 35.724-6.682  35.724-6.985L 35.724-6.985Q 35.724-7.289  35.561-7.468Q 35.398-7.648  35.174-7.648L 35.174-7.648Q 34.68-7.648  34.062-7.294Q 33.444-6.94  32.827-6.317Q 32.209-5.694  31.664-4.852Q 31.12-4.009  30.783-3.043ZM 36.308-9.613L 35.769-9.613L 34.028-11.792L 35.432-11.792L 36.308-9.613ZM 47.415-5.829L 47.415-5.829Q 47.415-5.346  47.247-4.846Q 47.078-4.346  46.82-3.846Q 46.561-3.347  46.269-2.864Q 45.977-2.381  45.719-1.932Q 45.461-1.482  45.292-1.073Q 45.124-0.663  45.124-0.326L 45.124-0.326Q 45.124-0.067  45.236 0.022Q 45.349 0.112  45.483 0.112L 45.483 0.112Q 45.91 0.112  46.438-0.309Q 46.966-0.73  47.51-1.37Q 48.055-2.01  48.594-2.763Q 49.133-3.515  49.571-4.189L 49.571-4.189L 49.976-3.874Q 49.886-3.74  49.65-3.341Q 49.414-2.942  49.066-2.431Q 48.718-1.92  48.285-1.365Q 47.853-0.809  47.359-0.343Q 46.865 0.123  46.342 0.427Q 45.82 0.73  45.292 0.73L 45.292 0.73Q 44.989 0.73  44.742 0.629Q 44.495 0.528  44.321 0.348Q 44.147 0.169  44.046-0.073Q 43.945-0.315  43.945-0.584L 43.945-0.584Q 43.945-1.022  44.141-1.533Q 44.338-2.044  44.63-2.583Q 44.922-3.122  45.27-3.667Q 45.618-4.211  45.91-4.706Q 46.202-5.2  46.399-5.621Q 46.595-6.042  46.595-6.345L 46.595-6.345Q 46.595-6.693  46.41-6.929Q 46.225-7.165  45.888-7.165L 45.888-7.165Q 45.528-7.165  45.057-6.867Q 44.585-6.57  44.001-5.997Q 43.417-5.424  42.726-4.588Q 42.036-3.751  41.227-2.684L 41.227-2.684Q 40.767-2.066  40.329-1.494L 40.329-1.494Q 40.138-1.247  39.947-0.988Q 39.756-0.73  39.565-0.477Q 39.374-0.225  39.206 0.006Q 39.037 0.236  38.902 0.404L 38.902 0.404L 37.914 0L 39.228-1.808Q 39.509-2.19  39.801-2.628Q 40.093-3.066  40.379-3.532Q 40.665-3.998  40.924-4.47Q 41.182-4.941  41.407-5.391L 41.407-5.391Q 41.732-6.064  41.856-6.508Q 41.979-6.952  41.979-7.221L 41.979-7.221Q 41.979-7.524  41.867-7.62Q 41.755-7.715  41.553-7.715L 41.553-7.715Q 41.339-7.715  41.064-7.496Q 40.789-7.277  40.497-6.935Q 40.205-6.592  39.907-6.16Q 39.61-5.728  39.34-5.301Q 39.071-4.874  38.835-4.492Q 38.599-4.11  38.442-3.874L 38.442-3.874L 38.038-4.189Q 38.61-5.087  39.076-5.834Q 39.542-6.581  39.975-7.12Q 40.407-7.659  40.817-7.957Q 41.227-8.254  41.687-8.254L 41.687-8.254Q 41.935-8.254  42.165-8.153Q 42.395-8.052  42.569-7.856Q 42.743-7.659  42.844-7.378Q 42.945-7.098  42.945-6.727L 42.945-6.727Q 42.945-6.435  42.878-6.121L 42.878-6.121Q 43.372-6.604  43.799-6.918Q 44.226-7.232  44.585-7.418Q 44.944-7.603  45.248-7.682Q 45.551-7.76  45.798-7.76L 45.798-7.76Q 46.011-7.76  46.292-7.682Q 46.573-7.603  46.82-7.39Q 47.067-7.176  47.241-6.8Q 47.415-6.424  47.415-5.829ZM 50.425-2.561L 50.425-2.561Q 50.402-2.426  50.391-2.291Q 50.38-2.156  50.38-2.022L 50.38-2.022Q 50.38-1.617  50.498-1.252Q 50.616-0.887  50.846-0.612Q 51.076-0.337  51.419-0.18Q 51.761-0.022  52.199-0.022L 52.199-0.022Q 53.67-0.022  55.04-1.022Q 56.411-2.022  57.769-4.189L 57.769-4.189L 58.151-3.852Q 57.41-2.617  56.646-1.769Q 55.883-0.921  55.125-0.393Q 54.367 0.135  53.637 0.371Q 52.907 0.606  52.244 0.606L 52.244 0.606Q 51.761 0.606  51.222 0.472Q 50.683 0.337  50.228 0.022Q 49.773-0.292 49.476-0.82Q 49.178-1.348 49.178-2.134L 49.178-2.134Q 49.178-2.976 49.465-3.757Q 49.751-4.537  50.211-5.211Q 50.672-5.885  51.267-6.441Q 51.862-6.997  52.474-7.39Q 53.086-7.783  53.67-8.002Q 54.254-8.221  54.704-8.221L 54.704-8.221Q 54.996-8.221  55.299-8.131Q 55.602-8.041  55.843-7.85Q 56.085-7.659  56.237-7.345Q 56.388-7.03  56.388-6.592L 56.388-6.592Q 56.388-5.997  56.113-5.475Q 55.838-4.953  55.377-4.509Q 54.917-4.065  54.311-3.712Q 53.704-3.358  53.041-3.111Q 52.379-2.864  51.705-2.718Q 51.031-2.572  50.425-2.561ZM 50.515-3.043L 50.515-3.043Q 51.267-3.122  51.93-3.358Q 52.592-3.594  53.143-3.936Q 53.693-4.279  54.125-4.683Q 54.558-5.087  54.85-5.503Q 55.142-5.918  55.299-6.3Q 55.456-6.682  55.456-6.985L 55.456-6.985Q 55.456-7.289  55.293-7.468Q 55.13-7.648  54.906-7.648L 54.906-7.648Q 54.412-7.648  53.794-7.294Q 53.176-6.94  52.559-6.317Q 51.941-5.694  51.396-4.852Q 50.852-4.009  50.515-3.043Z"></path>
    <g transform="matrix(1.1557338237762451, 0, 0, 1.1557338237762451, 182.31018279990099, 197.82017444924412)"
       fill="rgba(235, 243, 249, 1)" stroke="#225378" data-uid="o-e873d019938340eba1b3cb1b01533bd4">
        <path d="m11.21 32.75a1 1 0 0 0 .83-.43c.42-.62 10.38-15.23 10.38-21.11a11.21 11.21 0 1 0 -22.42 0c0 5.88 10 20.49 10.38 21.1a1 1 0 0 0 .83.44zm0-30.75a9.22 9.22 0 0 1 9.21 9.21c0 4-6 13.94-9.21 18.75-3.21-4.81-9.21-14.77-9.21-18.75a9.22 9.22 0 0 1 9.21-9.21z"
              transform="matrix(1, 0, 0, 1, 0, 0)" fill="rgba(235, 243, 249, 1)" stroke="#225378"
              data-uid="o-42aaa45628f1477f82e5dffdf67f7334"></path>
        <path d="m17.37 11.21a6.17 6.17 0 1 0 -6.17 6.17 6.17 6.17 0 0 0 6.17-6.17zm-10.37 0a4.17 4.17 0 1 1 4.17 4.17 4.17 4.17 0 0 1 -4.17-4.17z"
              transform="matrix(1, 0, 0, 1, 0, 0)" fill="rgba(235, 243, 249, 1)" stroke="#225378"
              data-uid="o-dfeff2a0ff534fe7a72a05d5546cfd77"></path>
        <path d="m50.07 124.42c-1.88-.44-3.77-1-5.61-1.58a62.07 62.07 0 0 1 -39.29-78.38 62.73 62.73 0 0 1 3.1-7.62l.42-.84a1 1 0 0 0 -1.79-.9l-.43.9a64.92 64.92 0 0 0 -3.2 7.87 64.07 64.07 0 0 0 40.55 80.92c1.9.63 3.85 1.18 5.79 1.63h.23a1 1 0 0 0 .23-2z"
              transform="matrix(1, 0, 0, 1, 0, 0)" fill="rgba(235, 243, 249, 1)" stroke="#225378"
              data-uid="o-e20af7b15cff44a1a788703b8baa2ca0"></path>
        <path d="m62.88 126c-1.53 0-3.07-.11-4.6-.26a1 1 0 0 0 -.19 2c1.58.15 3.17.24 4.75.27a1 1 0 0 0 0-2z"
              transform="matrix(1, 0, 0, 1, 0, 0)" fill="rgba(235, 243, 249, 1)" stroke="#225378"
              data-uid="o-a2e8840979c34dd8a45f2db81708c6f5"></path>
        <path d="m73.94 2.8a62.71 62.71 0 0 1 9.58 2.37 62 62 0 0 1 39.28 78.39 62.9 62.9 0 0 1 -3.26 8 1 1 0 0 0 1.79.88 64.88 64.88 0 0 0 3.37-8.21 64 64 0 0 0 -40.55-80.96 64.78 64.78 0 0 0 -9.89-2.44 1 1 0 1 0 -.32 2z"
              transform="matrix(1, 0, 0, 1, 0, 0)" fill="rgba(235, 243, 249, 1)" stroke="#225378"
              data-uid="o-96c16adeb6a0465495c72ed0c5c06f1a"></path>
        <path d="m60.07 2.12h.06c1.65-.1 3.32-.14 5-.11a1 1 0 0 0 1-1 1 1 0 0 0 -1-1c-1.7-.01-3.42-.01-5.13.12a1 1 0 0 0 .06 2z"
              transform="matrix(1, 0, 0, 1, 0, 0)" fill="rgba(235, 243, 249, 1)" stroke="#225378"
              data-uid="o-b24bac3307dd4014bb64e58e287a827b"></path>
        <path d="m118 99a10 10 0 0 0 -10 10c0 5.11 8.2 17.24 9.14 18.6a1 1 0 0 0 1.65 0c.94-1.37 9.14-13.49 9.14-18.6a10 10 0 0 0 -9.93-10zm0 26.2c-2.81-4.26-8-12.81-8-16.24a8 8 0 0 1 16 .04c0 3.39-5.16 11.94-8 16.2z"
              transform="matrix(1, 0, 0, 1, 0, 0)" fill="rgba(235, 243, 249, 1)" stroke="#225378"
              data-uid="o-70476e013e954b9bb129bc2c607c69b0"></path>
        <path d="m118 103.42a5.54 5.54 0 1 0 5.54 5.54 5.54 5.54 0 0 0 -5.54-5.54zm0 9.08a3.54 3.54 0 1 1 3.54-3.54 3.54 3.54 0 0 1 -3.54 3.54z"
              transform="matrix(1, 0, 0, 1, 0, 0)" fill="rgba(235, 243, 249, 1)" stroke="#225378"
              data-uid="o-6ed2e435482d4cf18f6b37b4d7e9440d"></path>
        <path d="m111.7 98a1 1 0 0 0 1-1v-45.74a1 1 0 0 0 -1-1h-91.29a1 1 0 0 0 -1 1v45.74a1 1 0 0 0 1 1zm-1-2h-62.13v-43.74h62.13zm-89.29-43.74h25.16v43.74h-25.16z"
              transform="matrix(1, 0, 0, 1, 0, 0)" fill="rgba(235, 243, 249, 1)" stroke="#225378"
              data-uid="o-4a644dc816a948549eb6bad89f04e952"></path>
        <path d="m73.25 75.72h.58l-.83 3.67a1 1 0 0 0 1 1.23h1a1 1 0 0 0 .58-.18l3.48-2.44c2.16.23 4.54.47 7 .59l-4.12 10.6-.6.6a1 1 0 0 0 .66 1.71h.5.22l1.7-.39a1 1 0 0 0 .54-.33l8-9.52 2-2.58c4.26-.14 11.79-1.94 11.79-4.05s-7.5-3.95-11.75-4.09c-.42-.52-1.26-1.6-2-2.61l-8-9.49a1 1 0 0 0 -.54-.33l-1.7-.39h-.22-.54a1 1 0 0 0 -.71 1.71l.6.6 4.11 10.58c-2.42.12-4.77.37-7.05.61l-3.41-2.46a1 1 0 0 0 -.59-.19h-1a1 1 0 0 0 -1 1.23l.86 3.63h-.63c-1.32.1-2 .16-2 1.11s.67 1.06 2.07 1.18zm2.75-1.12a1 1 0 0 0 0-.52l-.72-3 2.82 2a1 1 0 0 0 .69.18c2.8-.3 5.7-.61 8.69-.69a1 1 0 0 0 .9-1.36l-4-10.36 7 8.34c2.23 2.88 2.37 3 2.44 3.08a1 1 0 0 0 .68.27 25.72 25.72 0 0 1 9.67 2.06 25.72 25.72 0 0 1 -9.67 2.06 1 1 0 0 0 -.67.27c-.07.06-.21.2-2.43 3.05l-7 8.37 4-10.36a1 1 0 0 0 -.9-1.36c-3-.09-5.86-.39-8.62-.68h-.1a1 1 0 0 0 -.58.18l-2.9 2 .7-3.01a1 1 0 0 0 0-.52z"
              transform="matrix(1, 0, 0, 1, 0, 0)" fill="rgba(235, 243, 249, 1)" stroke="#225378"
              data-uid="o-457e379d62124e5c88500b36f30e9967"></path>
        <path d="m27.92 59.85h12a1 1 0 1 0 0-2h-12a1 1 0 0 0 0 2z" transform="matrix(1, 0, 0, 1, 0, 0)"
              fill="rgba(235, 243, 249, 1)" stroke="#225378" data-uid="o-4f634488460f4fb887d9a817c479154e"></path>
        <path d="m39.94 73.08h-12a1 1 0 0 0 0 2h12a1 1 0 1 0 0-2z" transform="matrix(1, 0, 0, 1, 0, 0)"
              fill="rgba(235, 243, 249, 1)" stroke="#225378" data-uid="o-bc26cab51b25430e9033082a407f74a1"></path>
        <path d="m39.94 80.34h-12a1 1 0 0 0 0 2h12a1 1 0 1 0 0-2z" transform="matrix(1, 0, 0, 1, 0, 0)"
              fill="rgba(235, 243, 249, 1)" stroke="#225378" data-uid="o-86395839de3d44608b96a1d3c71a113d"></path>
        <path d="m39.94 87.61h-12a1 1 0 0 0 0 2h12a1 1 0 1 0 0-2z" transform="matrix(1, 0, 0, 1, 0, 0)"
              fill="rgba(235, 243, 249, 1)" stroke="#225378" data-uid="o-aa6d2c6782de4607ae65debd965e2302"></path>
        <path d="m54.63 60.2h12a1 1 0 0 0 0-2h-12a1 1 0 0 0 0 2z" transform="matrix(1, 0, 0, 1, 0, 0)"
              fill="rgba(235, 243, 249, 1)" stroke="#225378" data-uid="o-c5f2cc265d124910b3981a7ef9305870"></path>
        <path d="m54.63 75.42h12a1 1 0 0 0 0-2h-12a1 1 0 0 0 0 2z" transform="matrix(1, 0, 0, 1, 0, 0)"
              fill="rgba(235, 243, 249, 1)" stroke="#225378" data-uid="o-fae3741d7c90460b8675340e6cebb7c0"></path>
        <path d="m54.63 82.69h12a1 1 0 0 0 0-2h-12a1 1 0 1 0 0 2z" transform="matrix(1, 0, 0, 1, 0, 0)"
              fill="rgba(235, 243, 249, 1)" stroke="#225378" data-uid="o-2788db6495dc4f049296cf8083cde82c"></path>
        <path d="m66.66 88h-12a1 1 0 1 0 0 2h12a1 1 0 0 0 0-2z" transform="matrix(1, 0, 0, 1, 0, 0)"
              fill="rgba(235, 243, 249, 1)" stroke="#225378" data-uid="o-79389387f605497c91e0d1f7e2d240c3"></path>
        <path d="m96.9 46.31a1 1 0 0 0 1.38.33c3.85-2.38 3.61-3.32 3.49-3.77-.53-2-8.27-1.9-12.43-1l-2.63-2-10.06-7.2a1 1 0 0 0 -.61-.19h-1.74-.22l-.48.13a1 1 0 0 0 -.26 1.83l.73.43 7.45 10.38a1 1 0 0 0 1.63-1.17l-6.47-9 8.84 6.33c2.88 2.23 3.05 2.33 3.14 2.37a1 1 0 0 0 .72.09 25.84 25.84 0 0 1 9.87-.43 17.32 17.32 0 0 1 -2 1.42 1 1 0 0 0 -.35 1.45z"
              transform="matrix(1, 0, 0, 1, 0, 0)" fill="rgba(235, 243, 249, 1)" stroke="#225378"
              data-uid="o-5ffa9807fd744f588f34d430c492fdfe"></path>
        <path d="m40.39 46a1 1 0 0 0 1 .75 1 1 0 0 0 .25 0 1 1 0 0 0 .72-1.22l-2.5-9.67 60.14-15.6 6.62 25.74a1 1 0 0 0 1.94-.5l-6.9-26.69a1 1 0 0 0 -1.22-.72l-88.39 22.83a1 1 0 0 0 -.72 1.22l3.07 11.86a1 1 0 0 0 1 .75 1 1 0 0 0 .25 0 1 1 0 0 0 .72-1.22l-2.85-10.92 24.36-6.3z"
              transform="matrix(1, 0, 0, 1, 0, 0)" fill="rgba(235, 243, 249, 1)" stroke="#225378"
              data-uid="o-03da72ac75174ea0b48b8939603f4462"></path>
        <path d="m58.82 37-11.64 3a1 1 0 0 0 .25 2 1 1 0 0 0 .25 0l11.64-3a1 1 0 1 0 -.5-1.94z"
              transform="matrix(1, 0, 0, 1, 0, 0)" fill="rgba(235, 243, 249, 1)" stroke="#225378"
              data-uid="o-ff0f6e622c4e4e86ba2dbdfe9570bd2b"></path>
        <path d="m36.81 104.49c-.13-.43-.32-1.33-.45-2.08a1 1 0 0 0 -2 0c-.13.74-.32 1.64-.45 2.08-.35.12-1 .29-1.67.43a1 1 0 0 0 0 2c.64.14 1.31.31 1.67.43.13.43.32 1.33.45 2.08a1 1 0 0 0 2 0c.13-.74.32-1.64.45-2.08.35-.12 1-.29 1.67-.43a1 1 0 0 0 0-2c-.57-.13-1.29-.31-1.67-.43z"
              transform="matrix(1, 0, 0, 1, 0, 0)" fill="rgba(235, 243, 249, 1)" stroke="#225378"
              data-uid="o-ec1ed3357f81403c9bc89097f1ca1a77"></path>
        <path d="m41.18 16.95a30.23 30.23 0 0 1 3.15.7c.2.69.51 2.58.73 4.16a1 1 0 0 0 2 0c.21-1.58.53-3.46.73-4.16a30.71 30.71 0 0 1 3.15-.7 1 1 0 0 0 0-2 30.28 30.28 0 0 1 -3.15-.7c-.2-.7-.51-2.58-.73-4.16a1 1 0 0 0 -2 0c-.21 1.58-.53 3.46-.73 4.16a30.51 30.51 0 0 1 -3.15.7 1 1 0 0 0 0 2zm4.63-1.22a1.07 1.07 0 0 0 .24-.34 1.08 1.08 0 0 0 .24.34 1.18 1.18 0 0 0 .33.24 1.16 1.16 0 0 0 -.33.24 1.06 1.06 0 0 0 -.24.34 1.07 1.07 0 0 0 -.24-.34 1.17 1.17 0 0 0 -.33-.24 1.18 1.18 0 0 0 .33-.25z"
              transform="matrix(1, 0, 0, 1, 0, 0)" fill="rgba(235, 243, 249, 1)" stroke="#225378"
              data-uid="o-c8a58251b6ad4f31a961b8db2e29da59"></path>
        <path d="m93.15 113a22.09 22.09 0 0 1 -2.52-.67 28.66 28.66 0 0 1 -.63-3.13 1 1 0 0 0 -2 0 28.54 28.54 0 0 1 -.69 3.08 22.08 22.08 0 0 1 -2.52.67 1 1 0 0 0 0 2 22.08 22.08 0 0 1 2.52.67 28.66 28.66 0 0 1 .69 3.08 1 1 0 0 0 2 0 28.54 28.54 0 0 1 .69-3.08 22.09 22.09 0 0 1 2.52-.67 1 1 0 0 0 0-2zm-4 1.19a1.12 1.12 0 0 0 -.21.28 1.11 1.11 0 0 0 -.21-.28 1.19 1.19 0 0 0 -.28-.21 1.21 1.21 0 0 0 .28-.21 1.12 1.12 0 0 0 .21-.28 1.11 1.11 0 0 0 .21.28 1.19 1.19 0 0 0 .28.21 1.21 1.21 0 0 0 -.25.16z"
              transform="matrix(1, 0, 0, 1, 0, 0)" fill="rgba(235, 243, 249, 1)" stroke="#225378"
              data-uid="o-6686e204c9c14965b538e6d1cc0b17ab"></path>
    </g>
</svg>