<svg xmlns="http://www.w3.org/2000/svg" xmlns:xlink="http://www.w3.org/1999/xlink" version="1.0" viewBox="90 70 215 220">
    <defs>
        <path id="reuse-0" fill="#fff" d="M-37.5-37.5h450v450h-450z"/>
    </defs>
    <defs>
        <clipPath id="a">
            <path d="M93.94 84.75h205.5v205.5H93.93Zm0 0"/>
        </clipPath>
        <clipPath id="b">
            <path d="M73 235h257v140H73Zm0 0"/>
        </clipPath>
        <clipPath id="c">
            <path d="M73.04 422.42 84.88 235.3l244.76 15.48-11.84 187.13Zm0 0"/>
        </clipPath>
        <clipPath id="d">
            <path d="M122.06 129.28H272v105.75H122.06Zm0 0"/>
        </clipPath>
        <clipPath id="e">
            <path d="M121.31 128.53h150v105.75h-150Zm0 0"/>
        </clipPath>
        <clipPath id="f">
            <path d="M152.17 16.22h89.25v85.5h-89.25Zm0 0"/>
        </clipPath>
    </defs>
    <use xlink:href="#reuse-0"/>
    <use xlink:href="#reuse-0"/>
    <g clip-path="url(#a)">
        <path fill="#225378" d="M299.44 187.54c0 56.6-46.11 102.71-102.79 102.71-56.68 0-102.71-46.1-102.71-102.71 0-56.61 46.1-102.72 102.71-102.72 56.68-.07 102.79 46.04 102.79 102.72Zm-203.76 0c0 55.7 45.27 100.97 100.97 100.97 55.7 0 101.05-45.34 101.05-100.97 0-55.64-45.34-101.05-101.05-101.05-55.7 0-100.97 45.34-100.97 101.05Zm0 0"/>
    </g>
    <g clip-path="url(#b)">
        <g clip-path="url(#c)">
            <path fill="#fff" d="M73.04 422.42 84.88 235.3l244.76 15.48-11.84 187.13Zm0 0"/>
        </g>
    </g>
    <g clip-path="url(#d)">
        <path fill="#c0779d" d="M235.64 129.4c0 .03.49.85 1.09 1.77.58.92 1.34 2.13 1.64 2.66.32.53.75 1.28 1 1.64.25.36.42.7.38.72-.04.02-.47.24-1 .47-.51.22-1.63.75-2.44 1.17-.83.4-1.54.66-1.6.56-.05-.09-.6-.54-1.2-1.03-1.03-.83-1.65-1.1-1.65-.72 0 .19.72 2.04.98 2.53.1.2.16.37.12.4l-1.48.65c-.77.34-1.6.78-1.84.98-.27.2-.53.36-.6.36-.1 0-.91.36-1.84.8a28.8 28.8 0 0 1-2.54 1.13c-.38.17-1.47.58-2.46.92-.96.32-1.82.68-1.92.75-.11.1-.3.18-.41.18-.42 0-2.8 1.16-3.5 1.71-.37.3-.77.55-.84.55-.25 0-1.53 1.08-2.68 2.2-.55.55-1.06 1-1.15 1-.08 0-.23.18-.32.36-.17.36-.85 1.23-2.1 2.66-.33.4-.62.76-.62.81 0 .08-.43.72-.96 1.46-1.53 2.09-2.53 2.5-4.75 1.98-.76-.2-1.51-.42-1.7-.51a8.68 8.68 0 0 0-1.98-.19c-2.25-.02-3.36.55-4.36 2.19-.36.56-.4.75-.23 1.37.28.98.36 1.08 1.44 1.7.84.5 1.1.55 2.5.51a4.68 4.68 0 0 0 2.55-.53 6.6 6.6 0 0 0 2.57-2.79c.19-.4.4-.53.8-.53.31 0 .9-.15 1.3-.35.46-.23.75-.29.8-.15.04.13 1.08.2 2.98.2 3.11.02 4.57-.26 6.9-1.32a8.67 8.67 0 0 1 1.1-.45c.15 0 1.47-.6 4.85-2.25a27.55 27.55 0 0 1 3.03-1.33.8.8 0 0 0 .44-.18c.36-.34 2.72-.64 4.92-.62 2.89.02 4.85.4 8.26 1.6 2.99 1.06 4.6 1.5 5.06 1.35.23-.08 1.23-.51 2.2-1 1.73-.83 1.87-.87 3.4-.87 1.72.02 4.2.49 5.57 1.05a77 77 0 0 0 6.22 1.48c.63.1 2.36.22 3.87.28 2.94.07 4.22.36 5.15 1.11.64.53.55.93-.32 1.34-.89.42-1.32.87-1.8 1.87-.45.92-.45 1.5-.05 3.28.17.76.15.81-.23.81-.6 0-1.1-.41-2.2-1.83-.55-.72-1.23-1.5-1.51-1.79a8.6 8.6 0 0 0-4.45-2.17c-.67-.1-2.51.44-2.51.72 0 .09-.12.17-.27.17-.15 0-.34.17-.4.37-.05.21-.18.38-.26.38-.22 0-.6 1.25-.47 1.62.06.21.98 1.2 2.04 2.21l1.9 1.83-.02 2.19c-.03 2.32-.4 3.64-1 3.68-.17.02-.84.05-1.52.07-1.85.08-1.85.08-2.36.68-.32.4-.47.8-.47 1.28 0 .74.3 1.2 2.19 3.25 1.52 1.66 1.94 3.4 1.07 4.36-.5.56-1.89 1.2-3.17 1.47-3 .66-3.71 1.7-2.8 4.13.23.66.44 1.53.44 1.94 0 .76-.47 3.1-.75 3.83-.08.2-.3.87-.47 1.47a5.23 5.23 0 0 1-.65 1.47c-.26.34-.37.36-.78.17-.95-.43-1.59-1.83-2.27-4.96-.6-2.83-1-3.7-2.15-4.9-1.22-1.3-4.11-2.17-5.45-1.64a9.6 9.6 0 0 0-2.1 1.8c-1.22 1.27-1.75 2-2.54 3.57-1.13 2.19-1.47 2.45-2.62 2.08-1.29-.44-2.14-1.63-1.91-2.64.55-2.51.36-3.95-.64-4.66a15.69 15.69 0 0 0-2.77-1.47c-.55 0-2.1-1-2.89-1.85-.5-.53-1.32-1.23-1.8-1.55-.78-.51-1.07-.56-1.86-.51-.96.1-1.5.3-2 .81-.68.68-.22 1.36 1.59 2.38 1.32.74 2.39 1.88 2.66 2.85.1.4.17.75.13.79-.08.08-1.13.26-2.32.4a5.4 5.4 0 0 0-1.23.26c-.34.17-1.15.11-2.2-.17-.57-.15-1.03-.5-1.65-1.2a4.76 4.76 0 0 1-.86-1.2c0-.13-.08-.26-.16-.3-.13-.05-.7-1.01-2.07-3.54-1.57-2.9-3.4-4.08-8.05-5.2-3.06-.75-3.38-.86-3.74-1.3-1.6-1.86-2.11-2.2-3.45-2.3-.83-.05-1.08 0-1.53.38-1.1.93-1.11 2.57-.07 3.32.77.55 2.28.66 3.79.29 1.43-.36 1.41-.36 2.26-.12.36.1 1.26.34 2 .51 1.23.3 1.36.4 1.77 1.1a42.17 42.17 0 0 0 3.51 4.77 4.1 4.1 0 0 1 1.02 2.11c0 .89 2.34 4.45 3.1 4.72.2.07 1.44.96 1.62 1.17.05.05.5.3 1.02.56 1 .5 2.56 1.83 2.56 2.21 0 .13.1.4.2.58.14.2.18.57.1.85-.13.55-1.06 1.63-1.4 1.63-.13 0-.8.54-1.52 1.22-2.06 1.94-2.28 2.76-2.04 7.13.11 2 .1 2.29-.24 2.93-.5.92-.64 1.1-1.98 2.2-.63.51-1.23 1.08-1.36 1.23a17.4 17.4 0 0 0-1.55 3.2c-.83 2.72-1.32 3.97-1.55 3.97-.07 0-.18.2-.24.45-.17.68-1.64 1.87-2.68 2.19-2.28.7-3.25 0-4.28-3.11-1.72-5.2-2.2-8.5-1.55-10.76.43-1.53.45-1.92.15-3.01-.15-.53-.3-1.21-.34-1.52-.26-1.9-.36-2.32-.68-2.98-.22-.41-.45-.66-.58-.58-.13.08-.15.06-.08-.1.2-.28-1.83-2.24-2.66-2.58-.98-.41-2.6-.32-4.77.3-2.17.65-2.88.63-4.24-.01-2.68-1.25-3.83-5.3-2.8-9.7.38-1.64.68-2.1 3.27-4.94.2-.23.37-.51.37-.6 0-.12.12-.27.27-.34.15-.08.4-.5.55-.93.36-1.07.13-2.77-.6-4.34-.7-1.5-.76-2.32-.16-2.85a3.3 3.3 0 0 1 1.96-.88c1.06-.15 2.04-.76 2.28-1.4.52-1.32.36-4.28-.28-5.45-.43-.81-1.9-1.53-3.62-1.77-3.56-.51-5.13-.99-6.03-1.81l-.46-.4.83-.23c.45-.1 1.34-.34 1.96-.5 1.66-.44 3.93-1.84 4.32-2.65.44-.9.23-1.8-.56-2.49-1.15-1.02-3.42-.94-5.72.2-2.02.95-3.05 1.82-3.88 3.27-.55.9-.85 1.02-1.9.68l-2.25-.7c-.93-.3-1.72-.6-1.76-.67-.04-.08-.22-.15-.43-.15-.2 0-.68-.16-1.08-.34a7.3 7.3 0 0 0-1.64-.6 17.76 17.76 0 0 0-8.2-.8c-.66.17-2.7.4-3.62.41-.3 0-1.52 1.51-1.97 2.46-.96 2-.94 3.41.06 4.05.28.19 1.04.38 1.71.44 1.7.13 2.34-.23 3.06-1.74.66-1.45 1.13-1.87 2.5-2.3 1.28-.4 2.05-.23 3.27.68.93.68 2.74 3.56 2.83 4.5a3.1 3.1 0 0 1-.9 2.22c-.34.37-.5.41-1.83.32-1.57-.12-3.15.24-3.77.86-.17.17-.66.6-1.08.98-.43.38-1.24 1.27-1.81 1.98-1.59 1.97-1.75 2.1-3.36 2.32-1.07.17-1.58.36-2.11.78-.38.32-.76.56-.85.56-.26 0-.98 1.21-1.1 1.8-.03.32-.13 1.17-.16 1.9a9.16 9.16 0 0 1-.23 1.64c-.15.42-.88.6-1.36.34-.2-.11-.4-.15-.45-.11-.06.06-.55-.04-1.11-.21-1.51-.45-2.5-.41-3.23.15-1.17.89-1.7 3.51-1.02 5.11.32.8 1.57 2.02 2.02 2.02.2 0 .38.08.43.17.06.1.46.34.87.57 1.44.73 2.83 2.37 2.83 3.3 0 .32-1.19.28-2.15-.08a63.17 63.17 0 0 1-7.28-3.75c-.36-.2-.79-.46-.94-.53-1.17-.53-5.28-4.02-5.28-4.47 0-.08-.18-.36-.38-.64-.51-.68-.94-2.21-.94-3.24.02-.78.66-4.38 1.14-6.33.27-1.05.74-3.45.84-4.24.05-.36.15-.87.2-1.13.17-.72.1-3.77-.11-4.55-.5-1.81-2.28-2.7-4.53-2.22a22 22 0 0 0-3.2.9c-.93.32-2.04.59-2.46.59-.66 0-.79-.08-.96-.51-.34-.93.17-2.44 1.19-3.38.74-.72 1.5-1.1 3.04-1.6 1.66-.55 2.96-.62 5.53-.36l3.18.34c2.32.24 4.32.13 5.85-.3.98-.3 2.24-.5 3.64-.55 2.1-.11 2.11-.11 2.11-.58v-.48l-2.2.12c-1.23.07-2.7.26-3.27.43-2.37.7-2.87.72-6.47.38-5.77-.55-7.88-.36-10.6.92-.81.4-2.1 1.59-2.53 2.34-.6 1.08-.41 3.8.27 3.8.15 0 .28.09.32.2.1.3 1.64.24 2.6-.11a23.8 23.8 0 0 1 4.81-1.32c1-.11 1.2-.08 1.8.32.84.58 1.15 1.49 1.15 3.55-.02 1.44-.46 5.1-.66 5.44-.1.16-.82 3.17-.99 4.17-.05.27-.13.63-.19.8-.16.56-.24 1.13-.34 2.5a9.44 9.44 0 0 0 .38 3.4c.19.81 1.93 3.08 3.12 4.06.56.47 1.05.88 1.1.96.06.06.48.36.95.64s.89.58.95.64c.05.06.26.21.46.32l1.9 1.02c.82.45 1.8.98 2.16 1.19 3.43 1.92 5.08 2.58 6.34 2.5.4-.03.98.08 1.28.22.51.26.53.3.42 1.33a89.45 89.45 0 0 1-.7 4.4c-.93 5.26-.38 7.83 2.1 9.73.56.44 1.1.8 1.2.81.34 0 3.59 2.29 3.94 2.74.45.6.55 1.7.8 8.77.05 1.72.2 3.66.3 4.34.1.68.24 1.5.28 1.87.13.96.43 2.28.77 3.22l.32 1.04c.1.55 1.17 2.38 1.78 3.06.88.96 1.52 1.37 2.1 1.32.78-.06.91-.57 1-4 .05-3.04.08-3.27.57-4.25.38-.75.7-1.15 1.23-1.41.38-.2.9-.62 1.17-.93.45-.5 1.53-2.31 2.19-3.62.47-.96 2.43-3.17 3.11-3.5a61.6 61.6 0 0 1 1.6-.72c1.96-.81 2.44-2.06 1.78-4.64-.7-2.74-.6-3.89.47-5.08.92-1.04 1.38-1.7 1.5-2.2.18-.7-.52-2.06-1.45-2.8-.9-.73-3.71-2.26-4.14-2.26-.2 0-.34-.1-.34-.19 0-.11-.1-.19-.21-.19-.1 0-.66-.2-1.23-.47-.56-.26-1.07-.47-1.11-.47-.36 0-2.36-1.64-3.77-3.1-1.93-2-3.5-3.13-5-3.63-1.29-.42-5.3-.5-6-.1-.25.15-1.2.28-2.13.34-1.9.08-2.44-.11-2.44-.89 0-.54-1.2-2.5-1.9-3.1-.57-.46-.92-.69-2.34-1.4-1.43-.74-2.24-1.8-2.24-2.9.01-1.21.24-2.12.66-2.65.34-.44.52-.5 1.47-.5.58 0 1.15.08 1.26.2.1.1.47.2.83.24.36.04.81.14 1.02.23.19.07.64.07 1.02-.02.94-.25 1.4-1.17 1.43-3.05.06-1.72.25-2.25 1.06-2.95a4.84 4.84 0 0 1 2.8-1.2c1.35-.25 1.88-.63 3.61-2.66 1.96-2.29 2.96-3.16 3.96-3.34a9.39 9.39 0 0 1 2.83.02c1.23.26 2.93-2.02 2.72-3.66a3.48 3.48 0 0 0-.44-1.32c-.18-.27-.52-.87-.75-1.34-.83-1.6-2.53-3.21-3.43-3.21-.29 0-.59-.1-.64-.19-.15-.22-1.46-.24-1.7-.02-.11.1-.5.27-.87.38a4.11 4.11 0 0 0-2.45 2.4c-.29.64-.66 1.2-.83 1.28-.89.34-2.9-.04-2.94-.53-.12-1.23.82-3.68 1.6-4.17.22-.13.9-.28 1.53-.36 1.26-.13 1.53-.17 3.37-.47 2.17-.38 5.32.25 9.08 1.77 3.05 1.25 5.7 1.95 6.5 1.74.21-.06.38-.04.38.06 0 .07.38.18.85.24.66.1.98.28 1.45.8 1.17 1.33 2.89 2.07 5.74 2.44 3.22.46 3.56.55 4.26 1.38.53.62.76 1.9.62 3.44l-.07 1.07c-.04.43-.63.81-1.96 1.2-1.65.48-2.47 1.08-2.78 1.97-.26.81-.13 1.5.6 3.11.63 1.38.72 2.7.27 3.8a12.6 12.6 0 0 1-1.56 2.16c-.7.82-1.53 1.82-1.83 2.23-1.72 2.28-1.7 8.15.03 10.88a5.05 5.05 0 0 0 4.78 2.62c.79 0 1.48-.05 1.56-.13.17-.19 1.85-.62 2.76-.71.36-.06.75-.14.88-.2.3-.1 1.94.5 2.4.88 1.84 1.54 2.11 2.16 3.04 7.35.05.25-.08.95-.25 1.53-.47 1.49-.4 4.58.13 6.85 1.04 4.34 2.11 7.1 3.06 7.92 1.41 1.17 4.28.7 5.98-1a16.75 16.75 0 0 0 2.73-5.32c.06-.15.21-.62.34-1.04a6.43 6.43 0 0 1 2.7-3.75c1.92-1.47 2.54-2.94 2.28-5.4-.28-2.54-.28-3.13-.08-3.96a4.9 4.9 0 0 1 .5-1.22c.37-.57 2.35-2.55 2.54-2.55.38 0 1.46-1 1.76-1.6.34-.76.24-1.68-.29-2.74a4.75 4.75 0 0 0-1.6-1.72c-.11-.03-.9-.48-1.77-1.01-2.68-1.63-4.08-3.25-4.83-5.65a7.99 7.99 0 0 0-1.47-2.78c-2.6-3.34-3.2-4.14-3.12-4.21.06-.06.57.07 1.18.28 1.64.55 2.24 1.06 4.09 3.4.19.2.64 1.03 1.01 1.85.4.79.93 1.71 1.16 2.05.24.32.45.68.45.8 0 .31.96 1.33 1.87 1.95.79.55 1 .61 2.49.63.9.02 2-.04 2.45-.11.45-.1 1.13-.21 1.5-.27.8-.13 1.5-.72 1.5-1.26 0-.51-1.1-2.72-1.59-3.15-.2-.21-.9-.64-1.52-.98-1.68-.91-1.72-.96-1.23-1.36.89-.72 2.04-.38 3.43 1.02 1.34 1.34 2.16 1.94 3.17 2.32 1.23.47 2.06.86 2.97 1.45l.77.53-.04 1.26a18.5 18.5 0 0 1-.2 2.24c-.12.84-.09 1.1.25 1.7.57.98 1.9 1.81 3.08 1.93.78.07 1 .02 1.42-.36.26-.25.54-.62.64-.83.1-.2.24-.5.34-.66.1-.15.41-.76.7-1.32.26-.57.65-1.25.84-1.49.81-1.04 2.06-2.3 2.68-2.72.6-.41.77-.43 1.5-.28 3.82.87 4.31 1.5 5.7 7.7.4 1.79 1.23 3.2 2.27 3.84.55.36.87.72 1.02 1.21.62 1.87.2 2.89-2.04 5.07-.58.57-2.54 1.16-4.24 1.29-2.21.15-2.72.98-3.04 4.9a16.5 16.5 0 0 1-.87 3.85c-.47 1.28-.28 2.41.63 3.81.68 1.02.9 1.1 1.75.58.32-.18 1.25-.62 2.07-.96l2.12-.88c2-.91 4.58-.7 5.68.45a4.02 4.02 0 0 1 1.28 2.59c.1 1.78.3 3.54.45 3.97.27.7.85.57 1.94-.45.55-.49 1.32-1.22 1.74-1.6.41-.38.8-.7.9-.7.08 0 .14-.1.14-.2 0-.12.79-.99 1.75-1.95 3.85-3.85 3.8-3.75 3.66-7.57-.1-2.52-.17-3.05-.7-4.71a40.77 40.77 0 0 0-.96-2.68 3.43 3.43 0 0 0-2.85-1.88c-.75-.04-.94.01-1.26.43-.23.28-.4.57-.4.66 0 .07-.07.35-.19.62-.17.43-.22.45-.77.27-.34-.12-1.34-.7-2.23-1.29-1.68-1.11-2.52-1.6-3.07-1.77-.19-.06-.34-.28-.34-.53s-.13-.9-.28-1.47c-.23-.87-.23-1.06 0-1.32.4-.45.94-1.85 1.32-3.4.19-.77.37-1.5.45-1.6.19-.34.26-.92.28-2.36 0-1.07-.09-1.68-.43-2.49-.7-1.7-.28-2.38 1.58-2.66.97-.15 3-.94 3.78-1.47.32-.23.73-.73.92-1.13.32-.62.32-.85.15-1.77-.24-1.17-.88-2.23-2.53-4.1-1.77-2.03-1.49-2.66 1.23-2.75a6.82 6.82 0 0 0 1.98-.27c.7-.58 1.06-2.28 1.08-5.05 0-1.85-.29-2.41-1.78-3.62-1.13-.9-2.28-2-2.28-2.17 0-.32.98-1.74 1.28-1.83 1.47-.43 2.27-.32 4.1.6 1 .51 2.26 1.74 3.03 2.9.25.4.78 1.03 1.17 1.39.59.54.83.66 1.59.66 1.07 0 1.38-.4 1.2-1.59-.36-2.28-.36-2.4.08-3.23.26-.5.66-.94 1.02-1.11.34-.15.83-.55 1.13-.89.45-.5.5-.67.36-1.16-.1-.36-.43-.78-.81-1.02l-.85-.57c-.51-.4-2.34-.66-4.9-.73a32.95 32.95 0 0 1-8.2-1.3c-2.94-.9-3.63-1.08-4.2-1.16l-1.28-.2c-1.6-.25-2.55-.27-3.36-.06-.85.2-3.22 1.26-3.43 1.53-.19.22-1.19.3-1.83.13l-.98-.25-2.2-.77c-2.76-1-4.2-1.4-5.46-1.5-.62-.07-1.41-.18-1.74-.27-.96-.25-3.65-.19-4.88.11-.63.15-1.32.3-1.59.34-.52.07-2.24.8-3.64 1.53-.49.26-.98.47-1.11.47-.11 0-.36.11-.5.24-.18.16-.61.38-.97.51-.36.14-.8.36-.94.48-.4.32-3.66 1.5-6.57 2.4-.34.09-1.43.16-2.45.16-2.83-.04-2.75 0-2.13-.79.19-.25.68-.93 1.07-1.51 2.08-3.02 4.7-5.88 6.6-7.26 1.25-.87 3.85-2.28 4.53-2.44.45-.09 4.34-1.58 5.83-2.22.62-.26 2.4-1.13 3.94-1.9 1.57-.8 2.96-1.44 3.14-1.44.3 0 .52.42 1.5 2.72.55 1.3.83.94.91-1.16.04-.96.15-1.75.28-1.88.2-.21 5.02-1.64 5.15-1.53.02.04.42 1.59.85 3.45.89 3.72 1.26 4.47 1.42 2.89.1-1.27.48-5.72.54-6.58.04-.51.12-1 .19-1.12.11-.19 1.85-1.36 2.7-1.83.25-.13.75-.49 1.13-.77.4-.3.9-.66 1.15-.77.64-.36.27-.57-1.17-.72a4.1 4.1 0 0 0-1.86.13 53.85 53.85 0 0 0-2.99 1.3c-.28.17-.7-.17-3.4-2.71-2.05-1.95-3.03-2.74-3.39-2.74-.2 0-.37.04-.37.1Zm-49.78 26.48c.3.3.54.72.54.92 0 .36-1.15 1.55-1.5 1.55-.1 0-.3.11-.42.25-.3.3-2.28.94-3.81 1.26a4.1 4.1 0 0 1-2.13 0c-.55-.13-1-.32-1-.41 0-1.14 3.28-3.51 5.47-3.95 1.53-.3 2.26-.2 2.85.38Zm15.88 2.87c.7.2 1.26.45 1.26.54 0 .5-1.36 2.02-2.17 2.46a6.23 6.23 0 0 1-4.2.2c-1.63-.68-1.29-2.52.62-3.45.94-.43 2.58-.36 4.49.25Zm-3.32 14.6c.45.22 1.94 1.8 1.7 1.8-.04 0-.55.08-1.16.2-1.43.26-2.48.07-2.86-.5-.81-1.24.8-2.28 2.32-1.5Zm-38.84 19.12c1.8.36 3.19 1.29 5.4 3.53a16.8 16.8 0 0 0 2.33 2.15c.14 0 .23.06.23.14 0 .09.19.24.43.35a75.05 75.05 0 0 0 4.94 2.38c1.46.57 2.61 1.36 3.7 2.49.72.76.59 1.47-.49 2.64-.26.28-.71.89-.98 1.3-.45.72-.47.89-.4 2.5.06.93.21 1.9.33 2.14.13.25.26.98.26 1.64.04 1.46-.15 1.68-2.1 2.51-1.73.74-3.26 2.25-4.56 4.58-.53.91-.94 1.7-.94 1.76 0 .13-.76 1.2-1.13 1.6-.15.17-.66.53-1.1.83-.6.38-.94.8-1.26 1.5-.62 1.35-.68 1.75-.78 4.92a30.94 30.94 0 0 1-.15 2.9c-.15.13-1.2-.68-1.58-1.24-1.51-2.12-2.64-5.81-2.77-9.1-.04-.56-.12-2.4-.17-4.05a88.34 88.34 0 0 0-.42-6.66c-.11-1.55-.13-1.57-.98-2.41a15.94 15.94 0 0 0-2.19-1.72c-.73-.47-1.54-1-1.8-1.19a22.4 22.4 0 0 0-1.08-.64c-.68-.34-1.44-1.5-1.83-2.81-.34-1.15-.23-3.24.35-6.74.25-1.5.5-3.15.55-3.65.04-.5.15-.99.25-1.06.07-.08.79-.2 1.56-.26.78-.06 2.1-.23 2.93-.38a6.68 6.68 0 0 1 3.45.05Zm92.75 9.28c.32.2.77.46 1.04.59.26.13.5.28.56.34a14.8 14.8 0 0 0 2.51 1.66c1.44.77 1.89.6 2.34-.85.36-1.11.64-1.22 1.81-.74.9.38 1.27.9 1.64 2.32.2.7.47 1.61.64 2 .44.98.74 6.04.4 6.83-.13.3-.87 1.29-1.64 2.17-1.5 1.72-6.58 6.66-6.7 6.53-.13-.14-.26-1.15-.32-2.51-.07-1.72-.24-2.25-.98-3.28-.66-.93-1.38-1.5-1.85-1.5-.15 0-.3-.09-.34-.22-.1-.28-3.67-.28-3.98.02a.82.82 0 0 1-.49.2c-.17 0-.54.14-.84.3-.29.14-.63.27-.76.27-.12 0-.89.34-1.72.76-.83.41-1.58.75-1.7.75-.28-.01-.84-.87-1.05-1.56-.11-.44-.1-.89.1-1.55.54-1.85.84-3.41.97-5 .23-2.8.66-3.4 2.42-3.4 1.41 0 3.41-.67 4.56-1.56a8.04 8.04 0 0 0 1.62-1.8c.46-.63.9-1.16 1-1.14.1 0 .46.17.76.37Zm0 0"/>
    </g>
    <g clip-path="url(#e)">
        <path fill="#c0779d" d="M234.89 128.64c0 .04.49.86 1.09 1.78a95.7 95.7 0 0 1 1.64 2.66c.32.53.75 1.28 1 1.64.25.36.42.7.38.72-.04.02-.47.24-1 .47-.5.22-1.62.75-2.43 1.17-.84.4-1.55.66-1.6.56-.06-.09-.61-.54-1.22-1.03-1.01-.83-1.64-1.1-1.64-.72 0 .19.72 2.04.98 2.53.1.2.16.37.12.4l-1.47.65c-.78.34-1.6.78-1.85.98-.26.2-.53.36-.6.36-.1 0-.91.36-1.83.8a27.19 27.19 0 0 1-2.55 1.13c-.38.17-1.47.58-2.45.92-.96.32-1.84.68-1.93.75-.11.1-.3.18-.41.18-.42 0-2.8 1.16-3.5 1.71-.37.3-.76.55-.84.55-.24 0-1.53 1.08-2.68 2.2-.55.55-1.06 1-1.15 1-.07 0-.23.18-.32.36a18.6 18.6 0 0 1-2.1 2.66c-.33.4-.62.76-.62.81 0 .08-.43.72-.96 1.46-1.53 2.09-2.53 2.5-4.75 1.98-.76-.2-1.51-.42-1.7-.51a8.68 8.68 0 0 0-1.98-.19c-2.25-.02-3.36.55-4.36 2.19-.36.56-.4.75-.23 1.37.29.98.36 1.08 1.44 1.7.85.5 1.1.55 2.5.51a4.69 4.69 0 0 0 2.56-.53 6.6 6.6 0 0 0 2.56-2.79c.19-.4.4-.53.81-.53.3 0 .89-.15 1.28-.35.47-.23.76-.29.81-.15.04.13 1.08.2 2.99.2 3.1.02 4.56-.26 6.9-1.32a9.21 9.21 0 0 1 1.1-.45c.14 0 1.46-.6 4.84-2.25a27.2 27.2 0 0 1 3.04-1.33c.13 0 .32-.08.43-.18.36-.34 2.72-.64 4.92-.62 2.89.02 4.85.4 8.26 1.6 2.99 1.06 4.61 1.5 5.06 1.35.23-.08 1.23-.51 2.21-1 1.72-.83 1.87-.87 3.4-.87 1.71.02 4.2.49 5.56 1.05.53.21 4.86 1.25 6.22 1.48.63.1 2.36.22 3.87.28 2.94.07 4.23.36 5.15 1.11.64.53.55.93-.32 1.34-.89.42-1.32.87-1.8 1.87-.45.92-.45 1.5-.05 3.28.17.76.15.81-.22.81-.61 0-1.1-.41-2.21-1.83-.55-.72-1.23-1.5-1.51-1.79a8.6 8.6 0 0 0-4.45-2.17c-.66-.1-2.51.44-2.51.72 0 .09-.11.17-.27.17-.15 0-.34.17-.4.37-.05.21-.18.38-.26.38-.22 0-.6 1.25-.47 1.62.06.21.98 1.2 2.04 2.21l1.9 1.83-.01 2.19c-.04 2.32-.4 3.64-1 3.68-.18.02-.85.05-1.53.07-1.85.08-1.85.08-2.36.68-.32.4-.47.8-.47 1.28 0 .74.3 1.2 2.19 3.25 1.53 1.66 1.94 3.4 1.07 4.36-.5.56-1.88 1.2-3.16 1.47-3 .66-3.72 1.7-2.82 4.13.25.66.46 1.53.46 1.94 0 .76-.48 3.1-.76 3.83-.08.2-.3.87-.47 1.47a5.24 5.24 0 0 1-.64 1.47c-.27.34-.38.36-.8.17-.94-.43-1.58-1.83-2.26-4.96-.6-2.83-1-3.7-2.15-4.9-1.22-1.3-4.11-2.17-5.45-1.64-.32.11-1.26.92-2.1 1.8-1.22 1.27-1.75 2-2.54 3.57-1.13 2.19-1.47 2.45-2.62 2.08-1.28-.44-2.13-1.63-1.9-2.64.54-2.51.35-3.95-.65-4.66a15.82 15.82 0 0 0-2.77-1.47c-.55 0-2.1-1-2.89-1.85a12.8 12.8 0 0 0-1.8-1.55c-.78-.51-1.06-.56-1.86-.51-.96.1-1.5.3-2 .81-.68.68-.22 1.36 1.59 2.38 1.32.74 2.4 1.88 2.66 2.85.11.4.17.75.13.79-.08.08-1.13.26-2.32.4a5.4 5.4 0 0 0-1.23.26c-.33.17-1.15.11-2.2-.17-.57-.15-1.02-.5-1.65-1.2a4.87 4.87 0 0 1-.86-1.2c0-.13-.08-.26-.15-.3-.13-.05-.7-1.01-2.08-3.54-1.56-2.9-3.4-4.08-8.05-5.2-3.06-.75-3.38-.86-3.74-1.3-1.6-1.86-2.11-2.2-3.45-2.3-.83-.05-1.08 0-1.53.38-1.1.93-1.1 2.57-.07 3.32.77.55 2.28.66 3.79.29 1.43-.36 1.41-.36 2.26-.12.36.1 1.27.34 2 .51 1.23.3 1.36.4 1.77 1.1a42.65 42.65 0 0 0 3.51 4.77 4.1 4.1 0 0 1 1.02 2.11c0 .89 2.34 4.45 3.1 4.72.2.07 1.45.96 1.62 1.17.06.05.5.3 1.02.56 1 .5 2.56 1.83 2.56 2.21 0 .13.1.4.21.58.13.2.17.57.1.85-.14.55-1.06 1.63-1.4 1.63-.13 0-.81.54-1.53 1.22-2.06 1.94-2.28 2.76-2.04 7.13.12 2 .1 2.29-.24 2.93-.5.92-.64 1.1-1.98 2.2-.63.51-1.23 1.08-1.36 1.23a17.4 17.4 0 0 0-1.55 3.2c-.83 2.72-1.32 3.97-1.54 3.97-.08 0-.2.2-.25.45-.17.68-1.64 1.87-2.68 2.19-2.28.7-3.25 0-4.28-3.11-1.72-5.2-2.19-8.5-1.55-10.76.44-1.53.46-1.92.16-3.01-.16-.53-.31-1.21-.34-1.52-.27-1.9-.36-2.32-.68-2.98-.23-.41-.46-.66-.59-.58-.13.08-.15.06-.07-.1.18-.28-1.84-2.24-2.66-2.58-.99-.41-2.61-.32-4.78.3-2.17.65-2.88.63-4.24-.01-2.68-1.25-3.83-5.3-2.8-9.7.39-1.64.69-2.1 3.27-4.94.2-.23.38-.51.38-.6 0-.12.11-.27.26-.34.15-.08.4-.5.55-.93.36-1.07.13-2.77-.6-4.34-.7-1.5-.76-2.32-.16-2.85a3.3 3.3 0 0 1 1.97-.88c1.05-.15 2.03-.76 2.28-1.4.5-1.32.36-4.28-.29-5.45-.43-.81-1.9-1.53-3.62-1.77-3.56-.51-5.13-.99-6.03-1.81l-.46-.4.84-.23c.45-.1 1.33-.34 1.96-.5 1.66-.44 3.92-1.84 4.32-2.65.43-.9.22-1.8-.57-2.49-1.15-1.02-3.41-.94-5.71.2-2.02.95-3.06 1.82-3.9 3.27-.54.9-.84 1.02-1.9.68l-2.24-.7c-.93-.3-1.72-.6-1.76-.67-.03-.08-.22-.15-.43-.15-.2 0-.68-.16-1.08-.34a7.26 7.26 0 0 0-1.64-.6 17.76 17.76 0 0 0-8.2-.8c-.66.17-2.7.4-3.62.41-.3 0-1.51 1.51-1.96 2.46-.97 2-.95 3.41.05 4.05.28.19 1.04.38 1.72.44 1.7.13 2.34-.23 3.05-1.74.66-1.45 1.14-1.87 2.5-2.3 1.28-.4 2.05-.23 3.28.68.92.68 2.73 3.56 2.82 4.5.06.68-.28 1.56-.9 2.22-.34.37-.5.41-1.83.32-1.57-.12-3.15.24-3.77.86-.17.17-.66.6-1.08.98-.43.38-1.24 1.27-1.81 1.98-1.58 1.97-1.75 2.1-3.36 2.32-1.07.17-1.58.36-2.1.78-.39.32-.76.56-.86.56-.26 0-.98 1.21-1.09 1.8-.04.32-.13 1.17-.17 1.9a8.47 8.47 0 0 1-.23 1.64c-.15.42-.88.6-1.35.34-.21-.11-.4-.15-.46-.11-.06.06-.54-.04-1.11-.21-1.51-.45-2.5-.41-3.23.15-1.16.89-1.7 3.51-1.02 5.11.32.8 1.57 2.02 2.02 2.02.2 0 .38.08.44.17.05.1.45.34.86.57 1.44.73 2.83 2.37 2.83 3.3 0 .32-1.19.28-2.15-.08a62.86 62.86 0 0 1-7.28-3.75c-.36-.2-.79-.46-.94-.53-1.17-.53-5.28-4.02-5.28-4.47 0-.08-.17-.36-.38-.64a6.52 6.52 0 0 1-.94-3.24c.02-.78.66-4.38 1.15-6.33.26-1.05.73-3.45.83-4.24.05-.36.15-.87.2-1.13.18-.72.1-3.77-.1-4.55-.5-1.81-2.3-2.7-4.53-2.22-1.25.26-1.52.34-3.21.9-.93.32-2.04.59-2.45.59-.66 0-.8-.08-.96-.51-.34-.93.16-2.44 1.18-3.38.74-.72 1.5-1.1 3.04-1.6 1.66-.55 2.96-.62 5.53-.36l3.18.34c2.32.24 4.32.13 5.85-.3.98-.3 2.25-.5 3.64-.55 2.1-.11 2.11-.11 2.11-.58v-.48l-2.2.12c-1.23.07-2.7.26-3.26.43-2.38.7-2.87.72-6.48.38-5.77-.55-7.88-.36-10.6.92-.8.4-2.1 1.59-2.53 2.34-.6 1.08-.41 3.8.27 3.8.15 0 .28.09.32.2.1.3 1.64.24 2.6-.11 2.17-.77 3.78-1.2 4.81-1.32 1-.11 1.21-.08 1.8.32.84.58 1.15 1.49 1.15 3.55-.02 1.44-.46 5.1-.66 5.44-.1.16-.81 3.17-.99 4.17-.05.27-.13.63-.18.8a10.9 10.9 0 0 0-.34 2.5 9.42 9.42 0 0 0 .37 3.4c.2.81 1.93 3.08 3.12 4.06.56.47 1.05.88 1.1.96.07.06.48.36.95.64s.9.58.95.64a3 3 0 0 0 .47.32c.2.12 1.05.57 1.89 1.02.82.45 1.8.98 2.16 1.19 3.44 1.92 5.08 2.58 6.34 2.5.4-.03.98.08 1.28.22.51.26.53.3.42 1.33a89.45 89.45 0 0 1-.7 4.4c-.92 5.26-.38 7.83 2.1 9.73.56.44 1.1.8 1.2.81.34 0 3.59 2.29 3.95 2.74.45.6.54 1.7.79 8.77.05 1.72.2 3.66.3 4.34.11.68.25 1.5.28 1.87.13.96.43 2.28.77 3.22.16.47.3.95.32 1.04.1.55 1.18 2.38 1.78 3.06.88.96 1.52 1.37 2.1 1.32.78-.06.92-.57 1-4 .05-3.04.08-3.27.58-4.25.38-.75.7-1.15 1.22-1.41.38-.2.91-.62 1.17-.93.45-.5 1.53-2.31 2.19-3.62.47-.96 2.43-3.17 3.11-3.5.36-.18 1.08-.5 1.6-.72 1.97-.81 2.44-2.06 1.78-4.64-.7-2.74-.6-3.89.47-5.08.93-1.04 1.38-1.7 1.51-2.2.17-.7-.53-2.06-1.45-2.8-.9-.73-3.72-2.26-4.15-2.26-.2 0-.34-.1-.34-.19 0-.11-.1-.19-.21-.19-.1 0-.66-.2-1.23-.47a11.7 11.7 0 0 0-1.1-.47c-.37 0-2.37-1.64-3.78-3.1-1.93-2-3.5-3.13-5-3.63-1.28-.42-5.3-.5-6-.1-.24.15-1.2.28-2.13.34-1.9.08-2.43-.11-2.43-.89 0-.54-1.21-2.5-1.9-3.1-.58-.46-.93-.69-2.35-1.4-1.43-.74-2.24-1.8-2.24-2.9.02-1.21.24-2.12.66-2.65.34-.44.53-.5 1.47-.5.58 0 1.15.08 1.26.2.1.1.48.2.83.24.36.04.81.14 1.02.23.19.07.64.07 1.02-.02.94-.25 1.4-1.17 1.43-3.05.06-1.72.25-2.25 1.06-2.95a4.84 4.84 0 0 1 2.8-1.2c1.35-.25 1.88-.63 3.61-2.66 1.96-2.29 2.96-3.16 3.96-3.34a9.42 9.42 0 0 1 2.84.02c1.22.26 2.92-2.02 2.71-3.66a3.48 3.48 0 0 0-.43-1.32c-.19-.27-.53-.87-.76-1.34-.83-1.6-2.52-3.21-3.43-3.21-.29 0-.59-.1-.64-.19-.15-.22-1.45-.24-1.7-.02-.11.1-.49.27-.87.38a4.12 4.12 0 0 0-2.45 2.4c-.28.64-.66 1.2-.83 1.28-.88.34-2.9-.04-2.94-.53-.12-1.23.83-3.68 1.6-4.17.23-.13.9-.28 1.53-.36 1.26-.13 1.53-.17 3.37-.47 2.18-.38 5.32.25 9.08 1.77 3.05 1.25 5.7 1.95 6.5 1.74.21-.06.39-.04.39.06 0 .07.37.18.84.24.66.1.98.28 1.46.8 1.16 1.33 2.88 2.07 5.73 2.44 3.23.46 3.57.55 4.26 1.38.53.62.76 1.9.63 3.44l-.08 1.07c-.04.43-.62.81-1.96 1.2-1.64.48-2.47 1.08-2.78 1.97-.26.81-.13 1.5.61 3.11.62 1.38.71 2.7.26 3.8-.15.35-.85 1.33-1.56 2.16-.7.82-1.53 1.82-1.83 2.23-1.72 2.28-1.7 8.15.04 10.88a5.04 5.04 0 0 0 4.77 2.62c.79 0 1.49-.05 1.56-.13.17-.19 1.85-.62 2.76-.71.36-.06.75-.14.88-.2.3-.1 1.95.5 2.4.88 1.85 1.54 2.11 2.16 3.04 7.35.06.25-.08.95-.25 1.53-.47 1.49-.4 4.58.13 6.85 1.04 4.34 2.12 7.1 3.06 7.92 1.42 1.17 4.28.7 5.98-1a16.76 16.76 0 0 0 2.73-5.32c.06-.15.21-.62.34-1.04a6.45 6.45 0 0 1 2.7-3.75c1.92-1.47 2.55-2.94 2.28-5.4-.28-2.54-.28-3.13-.07-3.96.13-.47.34-1.02.49-1.22.38-.57 2.36-2.55 2.54-2.55.38 0 1.46-1 1.76-1.6.34-.76.24-1.68-.28-2.74a4.72 4.72 0 0 0-1.6-1.72c-.12-.03-.91-.48-1.78-1.01-2.68-1.63-4.08-3.25-4.83-5.65a7.92 7.92 0 0 0-1.47-2.78c-2.6-3.34-3.19-4.14-3.11-4.21.05-.06.56.07 1.17.28 1.64.55 2.24 1.06 4.09 3.4.19.2.64 1.03 1.02 1.85.4.79.92 1.71 1.15 2.05.24.32.45.68.45.8 0 .31.97 1.33 1.87 1.95.79.55 1 .61 2.49.63.9.02 2-.04 2.45-.11.46-.1 1.13-.21 1.51-.27.8-.13 1.49-.72 1.49-1.26 0-.51-1.1-2.72-1.58-3.15-.21-.21-.9-.64-1.53-.98-1.68-.91-1.72-.96-1.23-1.36.89-.72 2.04-.38 3.44 1.02 1.34 1.34 2.15 1.94 3.16 2.32 1.23.47 2.06.86 2.97 1.45l.77.53-.04 1.26c-.02.72-.11 1.72-.2 2.24-.12.84-.08 1.1.26 1.7.56.98 1.89 1.81 3.07 1.93.78.07 1 .02 1.42-.36.26-.25.54-.62.64-.83.1-.2.24-.5.34-.66.1-.15.42-.76.7-1.32.26-.57.66-1.25.84-1.49.82-1.04 2.06-2.3 2.68-2.72.6-.41.78-.43 1.5-.28 3.82.87 4.31 1.5 5.71 7.7.4 1.79 1.23 3.2 2.26 3.84.55.36.87.72 1.02 1.21.62 1.87.2 2.89-2.04 5.07-.58.57-2.54 1.16-4.24 1.29-2.2.15-2.72.98-3.04 4.9a16.5 16.5 0 0 1-.87 3.85c-.46 1.28-.28 2.41.63 3.81.68 1.02.9 1.1 1.75.58a22 22 0 0 1 2.08-.96l2.11-.88c2-.91 4.58-.7 5.68.45a4.02 4.02 0 0 1 1.28 2.59c.1 1.78.3 3.54.46 3.97.26.7.84.57 1.94-.45l1.73-1.6c.41-.38.81-.7.9-.7.08 0 .14-.1.14-.2 0-.12.8-.99 1.75-1.95 3.85-3.85 3.8-3.75 3.66-7.57-.09-2.52-.17-3.05-.7-4.71a43.77 43.77 0 0 0-.96-2.68 3.43 3.43 0 0 0-2.84-1.88c-.76-.04-.95.01-1.27.43-.23.28-.4.57-.4.66 0 .07-.07.35-.19.62-.16.43-.22.45-.77.27-.34-.12-1.34-.7-2.22-1.29-1.68-1.11-2.53-1.6-3.08-1.77-.19-.06-.34-.28-.34-.53s-.13-.9-.28-1.47c-.23-.87-.23-1.06 0-1.32.4-.45.94-1.85 1.32-3.4a11 11 0 0 1 .45-1.6c.19-.34.27-.92.28-2.36 0-1.07-.09-1.68-.43-2.49-.7-1.7-.28-2.38 1.59-2.66.96-.15 3-.94 3.77-1.47.32-.23.73-.73.92-1.13.32-.62.32-.85.15-1.77-.24-1.17-.88-2.23-2.52-4.1-1.78-2.03-1.5-2.66 1.22-2.75a6.87 6.87 0 0 0 1.98-.27c.7-.58 1.06-2.28 1.08-5.05 0-1.85-.28-2.41-1.78-3.62-1.13-.9-2.28-2-2.28-2.17 0-.32.98-1.74 1.28-1.83 1.48-.43 2.27-.32 4.1.6 1 .51 2.26 1.74 3.04 2.9.24.4.77 1.03 1.17 1.39.58.54.82.66 1.58.66 1.08 0 1.38-.4 1.2-1.59-.35-2.28-.35-2.4.08-3.23.27-.5.66-.94 1.02-1.11.34-.15.83-.55 1.13-.89.45-.5.51-.67.36-1.16a2 2 0 0 0-.8-1.02l-.86-.57c-.5-.4-2.34-.66-4.9-.73a32.98 32.98 0 0 1-8.2-1.3c-2.93-.9-3.63-1.08-4.2-1.16l-1.28-.2c-1.6-.25-2.54-.27-3.36-.06-.85.2-3.22 1.26-3.43 1.53-.19.22-1.19.3-1.83.13l-.98-.25-2.19-.77c-2.77-1-4.2-1.4-5.47-1.5a12.6 12.6 0 0 1-1.73-.27 14.8 14.8 0 0 0-4.9.11 24 24 0 0 1-1.57.34c-.53.07-2.25.8-3.64 1.53-.5.26-.98.47-1.12.47-.11 0-.36.11-.5.24-.18.16-.61.38-.97.51-.36.14-.8.36-.94.48-.4.32-3.66 1.5-6.57 2.4-.34.09-1.43.16-2.45.16-2.83-.04-2.75 0-2.13-.79.19-.25.68-.93 1.07-1.51 2.08-3.02 4.7-5.88 6.6-7.26 1.25-.87 3.85-2.28 4.53-2.44.46-.09 4.34-1.58 5.83-2.22.63-.26 2.4-1.13 3.94-1.9a25 25 0 0 1 3.14-1.44c.3 0 .52.42 1.5 2.72.55 1.3.84.94.91-1.16a5.1 5.1 0 0 1 .29-1.88c.2-.21 5.01-1.64 5.14-1.53.02.04.42 1.59.85 3.45.89 3.72 1.27 4.47 1.42 2.89.1-1.27.49-5.72.54-6.58.04-.51.12-1 .2-1.12.1-.19 1.84-1.36 2.69-1.83.25-.13.75-.49 1.13-.77.4-.3.9-.66 1.15-.77.64-.36.27-.57-1.17-.72a4.11 4.11 0 0 0-1.86.13 55.23 55.23 0 0 0-2.99 1.3c-.28.17-.7-.17-3.39-2.71-2.05-1.95-3.04-2.74-3.4-2.74-.2 0-.37.04-.37.1Zm-49.78 26.49c.3.3.55.72.55.92 0 .36-1.16 1.55-1.52 1.55-.09 0-.28.11-.41.25-.3.3-2.28.94-3.81 1.26a4.1 4.1 0 0 1-2.13 0c-.55-.13-1-.32-1-.41 0-1.14 3.28-3.51 5.47-3.95 1.53-.3 2.26-.2 2.85.38Zm15.88 2.87c.7.2 1.26.45 1.26.54 0 .5-1.36 2.02-2.16 2.46a6.23 6.23 0 0 1-4.21.2c-1.62-.68-1.29-2.52.62-3.45.95-.43 2.59-.36 4.49.25Zm-3.32 14.6c.45.22 1.94 1.8 1.7 1.8-.04 0-.55.08-1.15.2-1.43.26-2.5.07-2.87-.5-.81-1.24.8-2.28 2.32-1.5Zm-38.84 19.12c1.8.36 3.19 1.29 5.4 3.53 1.16 1.2 2.2 2.15 2.34 2.15.13 0 .22.06.22.14 0 .09.19.24.44.35a75.04 75.04 0 0 0 4.94 2.38c1.45.57 2.6 1.36 3.7 2.49.71.76.58 1.47-.5 2.64-.26.28-.71.89-.98 1.3-.45.72-.47.89-.4 2.5.06.93.21 1.9.33 2.14.13.25.26.98.26 1.64.04 1.46-.15 1.68-2.1 2.51-1.73.74-3.26 2.25-4.56 4.58-.53.91-.94 1.7-.94 1.76 0 .13-.75 1.2-1.13 1.6-.15.17-.66.53-1.1.83-.6.38-.94.8-1.26 1.5-.62 1.35-.68 1.75-.78 4.92a31.75 31.75 0 0 1-.14 2.9c-.16.13-1.21-.68-1.59-1.24-1.5-2.12-2.64-5.81-2.77-9.1-.04-.56-.12-2.4-.17-4.05a101.62 101.62 0 0 0-.41-6.66c-.12-1.55-.14-1.57-.99-2.41a15.75 15.75 0 0 0-2.19-1.72c-.73-.47-1.54-1-1.8-1.19l-1.08-.64c-.68-.34-1.43-1.5-1.83-2.81-.34-1.15-.23-3.24.36-6.74.24-1.5.49-3.15.54-3.65.04-.5.16-.99.25-1.06.07-.08.8-.2 1.57-.26s2.1-.23 2.92-.38a6.7 6.7 0 0 1 3.45.05Zm92.75 9.28c.32.2.78.46 1.04.59.26.13.5.28.56.34a14.8 14.8 0 0 0 2.51 1.66c1.44.77 1.89.6 2.34-.85.36-1.11.64-1.22 1.81-.74.91.38 1.27.9 1.64 2.32.2.7.48 1.61.64 2 .44.98.74 6.04.4 6.83-.13.3-.87 1.29-1.64 2.17-1.5 1.72-6.58 6.66-6.7 6.53-.13-.14-.26-1.15-.32-2.51-.07-1.72-.24-2.25-.98-3.28-.66-.93-1.38-1.5-1.84-1.5-.16 0-.31-.09-.34-.22-.1-.28-3.68-.28-3.99.02a.82.82 0 0 1-.49.2c-.17 0-.54.14-.84.3-.29.14-.63.27-.76.27-.11 0-.89.34-1.72.76-.83.41-1.58.75-1.7.75-.28-.01-.84-.87-1.05-1.56-.11-.44-.1-.89.1-1.55.54-1.85.84-3.41.98-5 .22-2.8.66-3.4 2.41-3.4 1.41 0 3.41-.67 4.56-1.56a8.04 8.04 0 0 0 1.63-1.8c.45-.63.88-1.16 1-1.14.1 0 .45.17.75.37Zm0 0"/>
    </g>
    <g clip-path="url(#f)">
        <path fill="#fff" d="M152.17 16.22h89.25v85.5h-89.25Zm0 0"/>
    </g>
    <path fill="#225378" d="M118.16 254a8.09 8.09 0 0 1-3.36-2.6c-1.94-2.43-2.19-5.17-1.75-6.76 1.11.28 2.56.17 4.03-.11l4.46-.85c2.34-.45 3.18-.43 3.68.2.3.37.22.74-.14 1.04-.45.36-1.06.39-2.15.03-.55-.17-.83 1.06-.28 1.23.9.22 2.1.27 2.9-.37.81-.66 1-1.88.33-2.73-.9-1.1-2.3-1.27-4.92-.7l-5.19 1.04c-.94.17-1.62.26-2.17.2.03-.28-.05-.64-.31-.95-.41-.52-1.13-.64-1.58-.28-.4.33-.46.86.01 1.45.13.16.28.3.46.42a8.51 8.51 0 0 0 4.9 10.4c.99.37 1.67-.41 1.08-.66Zm0 0"/>
    <path fill="#225378" d="M127.55 253.73c-2.49.33-6.03.1-7.56-1.55-.49-.51-.47-.9-.05-1.3.12-.12.3-.24.5-.35 2.98 2.03 5.76 2.03 6.56 1.28.55-.5.66-1.67-.14-2.53-1.66-1.79-6.55-.85-8 .5-.7.67-.66 1.8.22 2.71 1.89 2.04 5.45 2.25 8.6 1.82Zm-1.2-3.36c.26.27.23.52 0 .73-.6.57-2.76.55-5.08-.95 1.7-.56 4.26-.66 5.07.22Zm0 0"/>
    <path fill="#225378" d="M132.6 258.25c-1.8.4-4.37.68-6.2.09.97.17 2.08.05 2.82-.75.75-.81.89-2.03.56-3.19.76-.01 1.42-.14 1.69-.48.34-.38.2-.99-.08-1.25-.4-.36-1.44-.27-2.03.39-.2.22-.35.48-.4.8-.28.07-.54.15-.85.21-.14.02-.07.63.17.58.22-.04.4-.1.62-.15a2.81 2.81 0 0 1-.68 2.01c-.82.9-1.9 1.02-2.99.56.19-.2.25-.7-.12-1.04-.38-.35-1.02-.4-1.43.01-.34.4-.32.93.2 1.43 2.63 2.42 5.94 1.95 8.9 1.34ZM143.2 265.94c-1.18.39-2.43.12-2.34-1.13.93-.4 1.61-.8 1.85-1.14.25-.37.04-1-.24-1.2-.53-.4-1.48-.14-2.03.6-.25.37-.4.71-.48 1.09-1.88.83-4.9 1.31-5.97.53-.28-.2-.28-.52.1-.74.91-.53 2.68-1.43 5.23-2.65.58-.28-.08-1.66-.67-1.33a141.1 141.1 0 0 1-5.52 2.9c-.83.38-.9 1.7-.03 2.32 1.53 1.12 4.56.73 6.84-.03.08.51.36.93.7 1.2.77.55 1.63.5 2.8.11Zm0 0"/>
    <path fill="#225378" d="M150.46 270.19c-1.53.62-2.47.22-2.92-.33.71-.37 1.3-.8 1.51-1.17.24-.42-.03-.97-.34-1.16-.58-.34-1.6.13-2 .8a2 2 0 0 0-.25 1.05c-1.49.76-3.74 1.28-4.75.67-.36-.22-.42-.56-.16-1.02.75-1.25 3.99-2.8 5.97-2.34.27.06.44.05.53-.11.19-.33.08-.78-.4-1.05-2.15-1.12-6.43 1.06-7.44 2.75-.5.85-.11 1.9.8 2.44 1.26.78 3.8.31 5.71-.45.16.18.33.39.6.54.68.43 1.84.6 3.42-.1Zm0 0"/>
    <path fill="#225378" d="M158.77 274c-2.26 1.16-4.59 2.07-6.45 1.74.47-.34 1-.73 1.81-1.22 1.27-.76 3.5-2.3 3.83-2.5.64-.4-.22-1.54-.69-1.19-3.48 2.52-6.4 3.38-7.36 2.91-.37-.17-.28-.55.15-.87 1.23-.96 2.98-2.14 4.04-2.88.46-.3-.03-1.1-.44-1.31-.14-.06-.28-.08-.42.01a56.48 56.48 0 0 1-4.84 3.75c-.67.46-.66 1.5.01 2-1.2.27-2.4.7-2.84 1.6-.45.9.08 2.1 1.14 2.64 1.25.6 2.81.25 3.9-1.1.43-.53.77-.92 1.1-1.26 2.1.6 4.5-.33 7.4-1.81Zm-9.06 2.6c-1 1.19-1.81 1.52-2.75 1.05-.58-.28-.78-.82-.56-1.28.5-1 2.1-1.32 3.6-1.64.77-.05 1.7-.3 2.68-.72-1.34.76-1.64 1-2.97 2.59Zm0 0"/>
    <path fill="#225378" d="M167.4 277.13c-1.94 1.37-5.14 2.68-5.86 2.42-.2-.08-.19-.28.05-.47a56.67 56.67 0 0 1 3.97-3.4c.54-.44-.44-1.5-.9-1.12-3.3 2.79-5.64 4.02-6.68 3.61-.33-.14-.5-.43-.3-.95.44-1.12 3.4-3.56 6.16-3.01.25 0 .39-.1.45-.27.13-.31-.03-.73-.53-.92-2.6-1-6.81 1.86-7.52 3.72-.36.9.13 1.87.91 2.17.97.37 2.33-.06 3.97-1.05l-.85.72c-.54.44-.37 1.4.38 1.69 1.36.51 4.75-1.05 7.12-2.67Zm0 0"/>
    <path fill="#225378" d="M176.05 279.4a9.3 9.3 0 0 1-5.45 2.05l.83-.77 2.8-2.5c.54-.52-.52-1.47-.94-1.05-3.02 3.03-4.82 4.03-5.85 3.74-.39-.11-.62-.42-.48-.94.37-1.27 2.92-3.28 5.33-3.14a.4.4 0 0 0 .4-.28c.1-.36-.08-.74-.6-.88-2.45-.7-6.12 2.27-6.62 4-.23.8.19 1.55.85 1.91-1.35.45-2.74 1.08-3.03 2.14-.29.97.46 2.06 1.59 2.4 1.31.37 2.78-.24 3.62-1.76.57-.98.9-1.58 1.47-2.22 2.22.22 4.4-.58 6.49-2.28Zm-8.6 4.1c-.79 1.34-1.54 1.82-2.5 1.54-.6-.17-.95-.67-.8-1.17.3-1.11 2.07-1.67 3.64-2.14a4.3 4.3 0 0 0 1.15-.4c-.48.5-.83 1-1.5 2.16Zm0 0"/>
    <path fill="#225378" d="M183.36 280.7c-1.82 1.69-4.86 3.56-7.07 3.12-.68-.14-.89-.48-.78-1.03.03-.17.1-.39.2-.58 3.63-.09 5.87-1.7 6.08-2.78.14-.72-.43-1.72-1.57-1.95-2.4-.48-5.82 3.08-6.2 5.03-.21.95.48 1.85 1.73 2.1 2.72.54 5.75-1.33 8.06-3.54Zm-2.94-2.06c.37.07.51.3.45.6-.15.82-1.94 2.04-4.7 2.2 1.06-1.46 3.1-3.04 4.25-2.8Zm0 0"/>
    <path fill="#225378" d="M190.1 281.4c-1.26 1.37-3.16 3.09-5 3.66.88-.4 1.71-1.17 1.85-2.23.14-1.11-.45-2.17-1.4-2.94.62-.45 1.09-.94 1.1-1.37.05-.5-.4-.91-.8-.96-.52-.06-1.3.61-1.41 1.49-.05.3.01.6.14.87-.18.24-.35.46-.57.69-.1.1.32.53.47.34.14-.14.27-.3.4-.46.34.46.76 1.09.63 2.03-.14 1.22-.95 1.92-2.1 2.2.04-.27-.2-.72-.7-.78-.52-.06-1.07.26-1.15.84-.06.52.27.94.99 1.03 3.54.46 5.96-1.86 8.01-4.07ZM203.75 281.53c-1.72 2.45-3.92 4.33-4.5 4.33-.24 0-.36-.2-.17-.53.84-1.63 4.17-8.02 5.06-9.57.34-.6-.97-1.25-1.22-.72-.36.79-1.52 3.1-2.66 5.35-2.1 3.72-3.8 5.45-4.82 5.45-.38 0-.66-.22-.66-.8.02-1.5 2.08-4.51 4.67-5 .24-.06.31-.21.31-.39 0-.32-.25-.67-.8-.67-2.85-.01-5.7 4.17-5.71 6.16 0 .95.78 1.69 1.6 1.7 1.05 0 2.09-.8 3.27-2.25l-.43.77c-.38.64.15 1.48 1 1.5 1.2 0 3.54-2.14 5.57-5.03Zm0 0"/>
    <path fill="#225378" d="M211.58 280.7c-1.28 2.15-3.69 4.78-5.94 4.97-.7.04-.97-.22-1.01-.78a2.2 2.2 0 0 1 .03-.63c3.45-1.06 5.15-3.22 5.07-4.33-.06-.73-.89-1.54-2.06-1.45-2.44.2-4.73 4.6-4.58 6.56.08.97.99 1.63 2.24 1.53 2.78-.22 5.15-2.87 6.8-5.6Zm-3.38-1.16c.38-.03.57.14.6.46.06.82-1.3 2.5-3.94 3.42.62-1.7 2.16-3.78 3.34-3.88ZM217.89 284.88c2.3-.46 4.28-2.55 5.95-6.35l-.53-.19c-1.46 3.22-3.33 5.2-5.36 5.61-1 .2-1.77-.25-1.99-1.34-.56-2.8 1.91-8.36 3.96-8.77.51-.1.87.13.98.63.11.53-.28 1.45-1.4 2.6-.33.35.57 1.16 1.1.65.88-.83 1.52-2.4 1.33-3.36-.22-1.06-1.56-1.77-2.51-1.58-3.05.61-5.6 6.92-4.96 10.11.3 1.52 1.75 2.33 3.43 1.99Zm0 0"/>
    <path fill="#225378" d="M232.37 275.63c-.89 2.69-2.55 5.25-3.2 5.44-.22.06-.3-.13-.27-.31a131 131 0 0 1 1.17-5.22c.18-.85-.84-1.64-1.7-1.38-.9.25-2.2 1.72-3.1 3.92.54-2.7 1.1-5.45 1.43-6.8.16-.68-1.34-.91-1.44-.32a226.3 226.3 0 0 1-2.37 11.83c-.17.73 1.33.9 1.43.33l.27-1.58v.01c.81-3.39 2.5-5.7 3.3-5.93.36-.11.53.18.5.64-.08.8-.72 3.8-.99 4.87-.15.77.74 1.3 1.47 1.08 1.3-.38 2.97-3.19 4.08-6.45Zm0 0"/>
    <path fill="#225378" d="M240.83 272.1c-.5 2.32-1.98 5.44-2.7 5.72-.2.08-.3-.07-.27-.37.14-1.88.33-3.4.63-5.19.1-.69-1.33-.81-1.41-.2-.55 4.25-1.45 6.75-2.5 7.15-.33.13-.66.02-.84-.5-.44-1.12.1-4.92 2.48-6.39.19-.15.24-.32.17-.48-.12-.33-.53-.52-1.01-.33-2.6 1.02-3.77 5.97-3.05 7.83a1.7 1.7 0 0 0 2.14.98c.99-.39 1.69-1.62 2.22-3.46-.03.4-.11.78-.13 1.14-.1.67.66 1.25 1.43.95 1.34-.53 2.78-3.97 3.43-6.77ZM247.18 268.67c-.58 3.52-1.67 5.64-2.24 5.9-.12.07-.2.02-.25-.12-.15-.87.19-3.58-.03-4.6-.22-.71-1.05-.63-2.83.09.43-.58.49-1.11.28-1.54-.2-.42-.67-.64-1.12-.42-.6.28-.84 1.14-.4 2.03.15.32.4.6.67.72l-.13.9c.2.06.4.07.61.02.05-.3.1-.64.12-.95.83-.33 1.18-.33 1.33-.01.35.7-.04 3.5.11 4.65.14.49.94.7 1.5.44 1.16-.58 2.35-3.19 2.97-7.08Zm0 0"/>
    <path fill="#225378" d="M252.8 265.28c-.3 3.01-2.1 6.23-2.96 6.72-.4.23-.6-.05-.6-.52l-.16-2.12c1.8-3.02 2.65-6.9 1.56-8.79-.4-.68-1.63-.95-2.35-.53-.71.4-.92 1.17-.87 2.14.06 2.2.42 7.78.48 10.1.04.92.99 1.42 1.93.87 1.32-.76 3.2-4.28 3.56-7.89Zm-4.04-3.27c.02-.62.18-1.03.47-1.2.25-.14.49-.03.69.33.86 1.48.34 4.51-.9 7-.18-3.46-.21-3.82-.26-6.13Zm0 0"/>
    <path fill="#225378" d="M255.87 259.15c.27-.17.24-.6 0-.69a7.02 7.02 0 0 1-2.21-1.17c-.35-.28-1.16.61-.8 1.14.34.53 2.48 1.08 3.01.72Zm3.36 1.66c-.06 2.5-.86 5.98-2.73 7.23-.58.4-.95.3-1.28-.17-.1-.14-.2-.31-.27-.55 2.47-2.62 2.92-5.36 2.3-6.28-.4-.6-1.53-.89-2.5-.23-2.02 1.36-1.88 6.31-.77 7.95.54.8 1.64.94 2.7.22 2.3-1.55 3.09-5.02 3.15-8.2Zm-3.51.65c.31-.21.56-.15.73.11.47.7.1 2.8-1.73 4.9-.28-1.79.01-4.35 1-5Zm0 0"/>
    <path fill="#225378" d="M266.4 254.94c.18 2.87-.34 5.84-.87 6.28-.17.14-.33-.03-.36-.2-.2-.94-.8-4.29-.92-5.27-.14-.86-1.38-1.2-2.1-.63-.71.57-1.3 2.36-1.35 4.69l-.33-1.95c-.13-.7-1.6-.33-1.47.25.51 2.08 1.1 4.84 1.4 7.1.1.74 1.58.32 1.46-.26-.14-.51-.24-1-.33-1.42-.61-3.61.1-6.34.73-6.86.3-.25.57-.03.7.39.23.77.79 3.8.98 4.88.14.78 1.17.9 1.76.43 1.05-.84 1.49-4.06 1.3-7.53Zm0 0"/>
    <path fill="#225378" d="M271.72 249.5c.36 2.5.15 6.05-1.5 7.6-.5.48-.9.45-1.3.05-.1-.13-.24-.3-.34-.5 2-3 1.99-5.78 1.22-6.58-.51-.55-1.65-.64-2.51.17-1.77 1.67-.82 6.53.56 7.97.67.7 1.78.66 2.7-.22 2.02-1.9 2.2-5.47 1.75-8.62Zm-3.34 1.24c.27-.27.52-.25.74-.02.56.6.54 2.75-.91 5.1-.6-1.7-.69-4.27.17-5.08ZM157.27 90.16c-.12-.13-.25-.3-.37-.55-.4-.86.55-2.05 2.33-2.9a7.06 7.06 0 0 1 3.8-.82c.59.02.67-1.37.06-1.26-1.11.17-2.44.57-3.9 1.28-2.82 1.34-3.7 2.93-3.18 4.01.53 1.13 1.5.5 1.26.24Zm2.88 5.89c.05-2.8.19-6.55.31-8.53.03-.55-1.23-.63-1.23-.02 0 1.72-.19 6.7-.3 8.56-.06.68 1.2.66 1.22-.01ZM168.3 88.08c-.74 2.97-1.83 4.72-2.32 4.91-.1.05-.19 0-.22-.1-.06-.77.42-3.06.3-3.98-.14-.6-.84-.6-2.42-.1.37-.46.48-.91.34-1.3-.15-.38-.55-.58-.95-.41-.5.19-.78.9-.49 1.69.13.3.33.54.55.67l-.17.75c.16.06.34.1.51.06.07-.25.13-.53.18-.8.73-.21 1.03-.21 1.14.08.23.61-.28 2.99-.2 3.97.06.45.74.67 1.23.47 1.03-.4 2.22-2.55 3.01-5.83Zm0 0"/>
    <path fill="#225378" d="M175.6 85.99c-.59 1.95-2.04 4.53-2.66 4.72-.2.06-.29-.05-.22-.35.23-1.57.48-2.85.86-4.37.14-.6-1.11-.78-1.2-.28-.74 3.62-1.66 5.69-2.57 5.97-.3.1-.56.01-.7-.44-.31-1 .37-4.23 2.51-5.33.2-.12.22-.28.18-.4-.1-.3-.41-.49-.85-.35-2.28.7-3.6 4.9-3.08 6.52.25.8 1.1 1.17 1.77.97.86-.27 1.55-1.29 2.1-2.83-.04.34-.12.65-.16.94-.14.59.48 1.14 1.14.92 1.2-.36 2.64-3.24 3.37-5.58Zm0 0"/>
    <path fill="#225378" d="M182.24 84.67c-.42.98-1.31 1.64-2.06.86.26-.79.39-1.47.31-1.83-.1-.36-.61-.58-.92-.52-.55.13-.9.86-.74 1.64.1.36.22.67.41.92-.53 1.7-1.9 3.91-3.02 4.16-.3.08-.5-.1-.42-.45.17-.9.56-2.55 1.24-4.9.14-.52-1.13-.87-1.24-.32a152.6 152.6 0 0 1-1.23 5.2c-.24.75.6 1.55 1.47 1.35 1.6-.38 3.04-2.52 3.86-4.46.36.25.8.31 1.15.24.8-.2 1.27-.77 1.67-1.75Zm0 0"/>
    <path fill="#225378" d="M187.97 83.95c-.97 1.92-2.86 4.32-4.78 4.62-.6.08-.86-.12-.92-.6a1.51 1.51 0 0 1 0-.54c2.86-1.14 4.2-3.1 4.06-4.03-.1-.63-.84-1.27-1.84-1.11-2.06.31-3.78 4.2-3.52 5.89.13.81.92 1.33 2 1.17 2.35-.36 4.25-2.78 5.47-5.22Zm-2.97-.8c.32-.05.49.1.53.37.11.7-.93 2.2-3.15 3.18.44-1.52 1.6-3.4 2.62-3.55Zm0 0"/>
    <path fill="#225378" d="M192.8 83.64c-1.32 2.26-3.87 4.1-4.73 4.19-.37.03-.42-.25-.28-.63l.63-1.69c2.51-1.73 4.56-4.43 4.39-6.3-.07-.67-.92-1.34-1.64-1.26-.7.06-1.13.61-1.46 1.34-.73 1.74-2.45 6.25-3.25 8.05-.3.72.27 1.45 1.2 1.38 1.29-.13 4.02-2.2 5.6-4.86Zm-1.96-3.97c.2-.52.5-.77.78-.78.25-.03.39.14.42.48.13 1.49-1.36 3.64-3.23 5.16 1.12-2.77 1.23-3.05 2.03-4.86ZM203.1 83.76c-1.21 1.69-3.12 3.3-5.09 3.76 1.67-.97 3.24-3.26 3.25-4.6 0-.7-.64-1.37-1.42-1.38-.9 0-1.8.69-2.56 1.56l.37-.64c.31-.55-.86-1.1-1.08-.64-.82 1.66-3.86 7.4-4.87 9.06-.33.53.87 1.07 1.1.6.71-1.4 1.79-3.46 2.79-5.3 1.31-2.23 2.83-3.8 3.77-3.78.39 0 .59.25.59.65-.02.99-1.34 3.47-3.95 4.3-.2.1-.27.17-.27.33 0 .28.25.58.55.58 3.31.03 5.65-1.99 7.26-4.25Zm0 0"/>
    <path fill="#225378" d="M208.15 84.34c-1.7 1.98-4.53 3.37-5.37 3.31-.4-.03-.4-.31-.19-.66l.9-1.56c2.77-1.28 5.26-3.6 5.41-5.45.05-.69-.67-1.49-1.39-1.55-.72-.04-1.23.4-1.67 1.1-1.03 1.59-3.48 5.73-4.58 7.37-.44.66 0 1.47.92 1.55 1.3.1 4.38-1.46 6.38-3.83Zm-1.28-4.25c.31-.47.64-.66.92-.64.25.01.36.22.33.56-.1 1.48-1.97 3.34-4.08 4.52 1.6-2.55 1.74-2.8 2.83-4.44Zm0 0"/>
    <path fill="#225378" d="M215.55 85.54c-1.37 1.5-3.8 3.2-4.45 3.09-.19-.02-.22-.17-.05-.4.9-1.32 1.69-2.37 2.69-3.59.37-.46-.66-1.17-.95-.75-2.25 2.93-3.97 4.4-4.93 4.25-.3-.04-.5-.25-.43-.71.15-1.04 2.18-3.63 4.6-3.7.2-.04.3-.15.32-.29.05-.28-.16-.6-.61-.67-2.36-.36-5.36 2.83-5.61 4.52-.12.82.47 1.53 1.17 1.64.9.14 1.94-.49 3.14-1.64-.2.3-.4.54-.6.8-.37.45-.02 1.21.65 1.32 1.23.19 3.78-1.75 5.47-3.56Zm0 0"/>
    <path fill="#225378" d="M222.54 87.37c-1.84 1.62-4.1 2.84-4.69 2.7-.18-.05-.17-.2-.07-.33.53-.64 2.47-2.8 3.07-3.4.52-.58.08-1.6-.68-1.78-.75-.18-2.28.36-3.88 1.56.35-.4.72-.78 1.13-1.22.42-.47-.61-1.27-.94-.88a58.6 58.6 0 0 1-4.05 4.7c-.45.45.61 1.26.92.85.3-.36.57-.67.79-.98 2.14-2.3 4.34-3.3 5.04-3.14.35.1.33.39.1.68-.4.57-2.14 2.55-2.78 3.24-.44.53.03 1.28.65 1.42 1.13.27 3.53-1.1 5.77-3.1Zm0 0"/>
    <path fill="#225378" d="M229.38 89.74c-1.97 1.49-4.34 2.5-4.9 2.32-.18-.05-.13-.22-.04-.33.58-.6 2.69-2.61 3.35-3.14.53-.53.18-1.6-.55-1.83-.74-.24-2.31.17-4 1.25.39-.38.8-.74 1.25-1.14.44-.44-.52-1.3-.88-.95a58.56 58.56 0 0 1-4.42 4.37c-.5.4.5 1.28.86.94l.86-.94c2.31-2.1 4.58-2.94 5.27-2.72.32.11.3.4.04.69-.43.53-2.33 2.37-3.03 3-.48.5-.06 1.28.55 1.47 1.1.36 3.6-.83 5.98-2.61Zm0 0"/>
    <path fill="#225378" d="M234.76 92.15c-1.8 1.16-4.67 2.25-6.47 1.52-.54-.22-.67-.55-.48-1 .05-.14.14-.3.27-.46 3.06.5 5.2-.5 5.56-1.37.23-.58-.1-1.53-1.02-1.9-1.93-.79-5.4 1.68-6.04 3.26-.32.76.12 1.6 1.14 2.03 2.2.89 5.04-.2 7.36-1.67Zm-2.14-2.2c.28.12.38.34.27.6-.27.65-1.94 1.38-4.33 1.09 1.16-1.07 3.11-2.08 4.06-1.7Zm0 0"/>
    <path fill="#225378" d="M239.83 94.81c-2.7 1.45-4.72 1.84-5.2 1.61-.1-.05-.1-.14-.05-.23.5-.57 2.52-1.77 3.11-2.47.35-.52-.12-1.03-1.56-1.88.6-.01 1.02-.25 1.19-.62.17-.36.06-.78-.33-.97-.5-.24-1.2.03-1.58.8-.14.28-.19.59-.12.84l-.66.39c.05.17.12.31.3.42.23-.14.47-.26.7-.42.66.39.83.6.7.89-.3.6-2.39 1.81-3.08 2.55-.25.32.04 1 .52 1.23 1 .49 3.36-.1 6.34-1.73Zm0 0"/>
</svg>