<svg xmlns="http://www.w3.org/2000/svg"
     viewBox="300 290 395 35" preserveAspectRatio="xMidYMid meet" version="1.0">
    <path
            d="M 390.492188 307.78125 C 390.492188 307.78125 390.449219 307.867188 390.371094 308.023438 C 390.289062 308.179688 390.226562 308.414062 390.214844 308.707031 C 390.21875 309.003906 390.347656 309.335938 390.613281 309.628906 C 390.878906 309.921875 391.289062 310.164062 391.753906 310.320312 C 391.988281 310.40625 392.242188 310.445312 392.492188 310.46875 C 392.621094 310.46875 392.75 310.484375 392.867188 310.460938 L 392.960938 310.453125 C 392.929688 310.460938 393.015625 310.445312 393.039062 310.441406 L 393.269531 310.390625 C 393.417969 310.355469 393.589844 310.328125 393.726562 310.28125 C 393.859375 310.230469 393.992188 310.179688 394.128906 310.132812 C 394.390625 310.03125 394.683594 309.882812 394.957031 309.734375 C 395.515625 309.429688 396.035156 309.003906 396.574219 308.566406 C 397.101562 308.113281 397.628906 307.617188 398.160156 307.109375 C 398.707031 306.613281 399.261719 306.113281 399.859375 305.648438 C 400.457031 305.1875 401.09375 304.777344 401.777344 304.476562 C 401.941406 304.390625 402.117188 304.335938 402.289062 304.269531 C 402.472656 304.210938 402.613281 304.144531 402.824219 304.097656 C 402.972656 304.0625 403.171875 304.03125 403.367188 304.003906 C 403.550781 303.992188 403.722656 303.972656 403.894531 303.976562 C 404.582031 303.96875 405.230469 304.089844 405.789062 304.308594 C 406.351562 304.519531 406.820312 304.847656 407.148438 305.210938 C 407.492188 305.558594 407.648438 305.96875 407.765625 306.277344 C 407.847656 306.605469 407.882812 306.859375 407.878906 307.039062 C 407.886719 307.210938 407.890625 307.304688 407.890625 307.304688 C 407.890625 307.304688 407.863281 307.214844 407.8125 307.050781 C 407.773438 306.882812 407.660156 306.65625 407.527344 306.378906 C 407.359375 306.117188 407.148438 305.8125 406.8125 305.574219 C 406.480469 305.328125 406.058594 305.132812 405.566406 305.019531 C 405.078125 304.910156 404.519531 304.886719 403.949219 304.941406 C 403.804688 304.953125 403.664062 304.984375 403.527344 305.011719 C 403.402344 305.039062 403.277344 305.066406 403.109375 305.125 C 402.863281 305.242188 402.546875 305.347656 402.273438 305.503906 C 401.707031 305.785156 401.183594 306.210938 400.636719 306.628906 C 400.097656 307.066406 399.574219 307.558594 399.042969 308.058594 C 398.5 308.554688 397.949219 309.054688 397.367188 309.53125 C 396.78125 310 396.152344 310.417969 395.480469 310.746094 C 395.140625 310.898438 394.816406 311.050781 394.449219 311.144531 C 394.265625 311.1875 394.085938 311.234375 393.90625 311.277344 C 393.734375 311.3125 393.582031 311.316406 393.425781 311.339844 L 393.191406 311.367188 L 393.039062 311.382812 L 392.898438 311.378906 C 392.714844 311.382812 392.539062 311.351562 392.371094 311.324219 C 392.042969 311.246094 391.734375 311.148438 391.464844 311.003906 C 390.917969 310.734375 390.484375 310.355469 390.21875 309.921875 C 389.945312 309.5 389.886719 309.023438 389.960938 308.683594 C 390.007812 308.511719 390.050781 308.363281 390.128906 308.253906 C 390.195312 308.132812 390.253906 308.046875 390.316406 307.984375 C 390.429688 307.851562 390.492188 307.78125 390.492188 307.78125 "
            fill-opacity="1" fill-rule="nonzero"/>
    <path
            d="M 382.050781 307.535156 C 382.046875 307.539062 382.015625 307.425781 381.898438 307.273438 C 381.777344 307.121094 381.542969 306.945312 381.207031 306.871094 C 380.878906 306.800781 380.417969 306.84375 380.09375 307.105469 C 379.746094 307.375 379.535156 307.875 379.578125 308.394531 C 379.617188 308.878906 379.957031 309.476562 380.425781 309.761719 C 380.898438 310.058594 381.589844 310.09375 382.304688 310.003906 L 382.601562 309.964844 L 382.847656 309.90625 C 383.007812 309.875 383.191406 309.808594 383.367188 309.75 C 383.714844 309.625 384.0625 309.464844 384.414062 309.285156 C 385.105469 308.917969 385.785156 308.449219 386.457031 307.953125 C 387.140625 307.464844 387.824219 306.945312 388.542969 306.464844 C 388.730469 306.339844 388.894531 306.238281 389.109375 306.105469 C 389.300781 306.003906 389.460938 305.90625 389.671875 305.808594 C 390.089844 305.613281 390.484375 305.449219 390.894531 305.328125 C 391.707031 305.066406 392.535156 304.941406 393.332031 304.972656 C 394.128906 304.996094 394.90625 305.214844 395.503906 305.628906 C 396.09375 306.039062 396.488281 306.59375 396.675781 307.117188 C 396.796875 307.371094 396.828125 307.628906 396.890625 307.851562 C 396.949219 308.082031 396.941406 308.332031 396.90625 308.527344 C 396.835938 308.929688 396.621094 309.1875 396.457031 309.3125 C 396.292969 309.4375 396.1875 309.460938 396.1875 309.460938 C 396.1875 309.460938 396.285156 309.410156 396.410156 309.261719 C 396.535156 309.113281 396.652344 308.84375 396.652344 308.5 C 396.664062 308.160156 396.457031 307.765625 396.230469 307.335938 C 395.996094 306.90625 395.601562 306.527344 395.113281 306.265625 C 394.113281 305.746094 392.65625 305.875 391.269531 306.40625 C 390.917969 306.53125 390.566406 306.703125 390.25 306.871094 C 390.089844 306.949219 389.902344 307.078125 389.730469 307.179688 L 389.246094 307.5 C 388.578125 307.960938 387.914062 308.484375 387.21875 309 C 386.515625 309.503906 385.78125 309.996094 384.984375 310.398438 C 384.582031 310.601562 384.164062 310.769531 383.734375 310.898438 C 383.515625 310.953125 383.308594 311.019531 383.066406 311.054688 L 382.71875 311.117188 L 382.417969 311.136719 C 381.972656 311.175781 381.546875 311.164062 381.105469 311.078125 C 380.671875 310.992188 380.226562 310.828125 379.867188 310.546875 C 379.507812 310.273438 379.242188 309.917969 379.078125 309.546875 C 378.996094 309.371094 378.929688 309.164062 378.886719 308.988281 C 378.84375 308.789062 378.828125 308.59375 378.835938 308.398438 C 378.867188 307.636719 379.285156 306.988281 379.816406 306.695312 C 380.375 306.386719 380.921875 306.480469 381.285156 306.628906 C 381.664062 306.78125 381.867188 307.054688 381.957031 307.234375 C 382.042969 307.425781 382.042969 307.535156 382.050781 307.535156 "
            fill-opacity="1" fill-rule="nonzero"/>
    <path
            d="M 453.398438 309.15625 C 453.402344 309.144531 453.261719 309.140625 453.039062 308.988281 C 452.824219 308.832031 452.574219 308.511719 452.410156 308.039062 C 452.246094 307.574219 452.128906 306.972656 452.207031 306.261719 C 452.226562 306.082031 452.257812 305.898438 452.324219 305.707031 C 452.402344 305.480469 452.472656 305.363281 452.550781 305.175781 C 452.628906 305.007812 452.765625 304.824219 452.878906 304.640625 C 453.007812 304.472656 453.144531 304.304688 453.292969 304.140625 C 453.910156 303.503906 454.753906 302.992188 455.714844 302.691406 C 456.671875 302.40625 457.734375 302.261719 458.820312 302.375 C 459.371094 302.417969 459.90625 302.53125 460.46875 302.6875 C 460.957031 302.824219 461.527344 303.039062 462.023438 303.261719 C 463.042969 303.71875 464.011719 304.28125 464.945312 304.847656 C 465.875 305.429688 466.78125 306.015625 467.695312 306.523438 C 468.605469 307.019531 469.527344 307.476562 470.453125 307.816406 C 472.308594 308.519531 474.144531 308.902344 475.742188 309.058594 C 477.339844 309.214844 478.691406 309.21875 479.574219 308.925781 C 480.015625 308.789062 480.339844 308.605469 480.546875 308.460938 C 480.652344 308.386719 480.726562 308.324219 480.773438 308.277344 C 480.824219 308.234375 480.851562 308.210938 480.851562 308.210938 C 480.851562 308.210938 480.828125 308.238281 480.785156 308.289062 C 480.746094 308.34375 480.683594 308.417969 480.589844 308.511719 C 480.410156 308.695312 480.117188 308.957031 479.671875 309.167969 C 478.777344 309.621094 477.355469 309.808594 475.703125 309.804688 C 474.039062 309.808594 472.074219 309.554688 470.074219 308.894531 C 469.074219 308.5625 468.066406 308.148438 467.09375 307.621094 C 466.125 307.097656 465.191406 306.515625 464.269531 305.953125 C 463.351562 305.378906 462.4375 304.832031 461.503906 304.398438 C 461.023438 304.183594 460.609375 304 460.089844 303.828125 C 459.648438 303.6875 459.167969 303.558594 458.699219 303.507812 C 457.757812 303.378906 456.820312 303.429688 455.972656 303.621094 C 455.128906 303.828125 454.378906 304.191406 453.804688 304.675781 C 453.667969 304.800781 453.535156 304.933594 453.414062 305.0625 C 453.3125 305.203125 453.199219 305.3125 453.101562 305.46875 C 452.890625 305.804688 452.761719 306.027344 452.691406 306.347656 C 452.558594 306.949219 452.566406 307.527344 452.65625 307.972656 C 452.746094 308.421875 452.910156 308.757812 453.089844 308.933594 C 453.257812 309.109375 453.40625 309.148438 453.398438 309.15625 "
            fill-opacity="1" fill-rule="nonzero"/>
    <path
            d="M 462.292969 304.203125 C 462.292969 304.203125 462.402344 304.371094 462.59375 304.695312 C 462.753906 305.035156 462.984375 305.570312 463.003906 306.300781 C 463.035156 307.019531 462.871094 307.914062 462.429688 308.832031 C 461.972656 309.738281 461.242188 310.6875 460.152344 311.375 C 459.050781 312.050781 457.691406 312.425781 456.246094 312.492188 C 454.800781 312.5625 453.296875 312.355469 451.804688 311.992188 C 448.828125 311.257812 445.773438 310.125 442.84375 308.691406 C 441.386719 307.96875 439.984375 307.183594 438.589844 306.480469 C 437.191406 305.78125 435.8125 305.117188 434.425781 304.660156 C 433.039062 304.207031 431.652344 303.910156 430.328125 303.851562 C 429 303.796875 427.753906 303.957031 426.644531 304.335938 C 425.582031 304.714844 424.644531 305.292969 423.9375 305.914062 C 423.226562 306.542969 422.71875 307.222656 422.390625 307.832031 C 422.066406 308.441406 421.902344 308.964844 421.808594 309.328125 C 421.738281 309.695312 421.703125 309.894531 421.703125 309.894531 C 421.703125 309.894531 421.714844 309.691406 421.738281 309.3125 C 421.792969 308.941406 421.878906 308.382812 422.164062 307.722656 C 422.445312 307.0625 422.910156 306.304688 423.597656 305.566406 C 424.296875 304.832031 425.210938 304.132812 426.394531 303.632812 C 427.539062 303.15625 428.914062 302.878906 430.34375 302.882812 C 431.78125 302.878906 433.285156 303.121094 434.769531 303.574219 C 436.253906 304.023438 437.722656 304.644531 439.148438 305.359375 C 440.582031 306.070312 441.992188 306.835938 443.417969 307.535156 C 444.835938 308.242188 446.289062 308.878906 447.746094 309.4375 C 449.203125 309.984375 450.664062 310.5 452.085938 310.886719 C 453.507812 311.265625 454.902344 311.53125 456.222656 311.527344 C 457.535156 311.523438 458.78125 311.257812 459.777344 310.734375 C 460.765625 310.191406 461.511719 309.398438 462.007812 308.601562 C 462.488281 307.792969 462.71875 306.976562 462.753906 306.296875 C 462.789062 305.613281 462.652344 305.078125 462.53125 304.726562 C 462.378906 304.382812 462.292969 304.203125 462.292969 304.203125 "
            fill-opacity="1" fill-rule="nonzero"/>
    <path
            d="M 457.40625 311.835938 C 457.40625 311.835938 457.398438 311.902344 457.382812 312.03125 C 457.355469 312.164062 457.34375 312.359375 457.359375 312.605469 C 457.371094 312.855469 457.433594 313.160156 457.546875 313.5 C 457.683594 313.832031 457.875 314.199219 458.152344 314.566406 C 458.71875 315.289062 459.628906 316.011719 460.820312 316.464844 C 462.011719 316.890625 463.488281 317.082031 465.050781 316.972656 C 466.617188 316.839844 468.292969 316.410156 469.941406 315.667969 C 471.59375 314.941406 473.210938 313.875 474.761719 312.644531 C 476.324219 311.40625 477.8125 309.957031 479.347656 308.492188 C 480.894531 307.03125 482.425781 305.488281 484.210938 304.140625 C 485.105469 303.476562 486.078125 302.882812 487.128906 302.4375 C 488.175781 301.992188 489.320312 301.710938 490.464844 301.667969 C 491.609375 301.617188 492.785156 301.820312 493.824219 302.324219 C 494.152344 302.480469 494.285156 302.5625 494.558594 302.746094 C 494.820312 302.914062 495.035156 303.09375 495.25 303.277344 C 495.675781 303.660156 496.039062 304.089844 496.339844 304.558594 C 496.933594 305.488281 497.316406 306.542969 497.378906 307.613281 C 497.394531 307.878906 497.398438 308.148438 497.375 308.410156 L 497.359375 308.609375 C 497.355469 308.648438 497.359375 308.65625 497.351562 308.726562 L 497.335938 308.816406 C 497.3125 308.9375 497.300781 309.046875 497.273438 309.175781 C 497.164062 309.71875 496.992188 310.179688 496.769531 310.640625 C 495.882812 312.453125 494.214844 313.675781 492.511719 314.011719 C 490.785156 314.351562 489.101562 313.789062 488.160156 312.710938 C 487.917969 312.441406 487.757812 312.15625 487.609375 311.828125 C 487.511719 311.5625 487.417969 311.203125 487.429688 310.902344 C 487.421875 310.289062 487.609375 309.753906 487.851562 309.332031 C 488.339844 308.460938 489.109375 308.089844 489.609375 308.023438 C 490.125 307.960938 490.386719 308.089844 490.386719 308.066406 C 490.386719 308.089844 490.109375 307.984375 489.621094 308.09375 C 489.140625 308.195312 488.476562 308.621094 488.074219 309.449219 C 487.875 309.855469 487.742188 310.359375 487.789062 310.886719 C 487.800781 311.164062 487.875 311.382812 488.003906 311.683594 C 488.128906 311.90625 488.292969 312.179688 488.515625 312.382812 C 489.367188 313.25 490.902344 313.640625 492.339844 313.285156 C 493.804688 312.921875 495.191406 311.785156 495.894531 310.226562 C 496.066406 309.84375 496.203125 309.410156 496.269531 309.019531 C 496.289062 308.914062 496.300781 308.785156 496.316406 308.671875 L 496.328125 308.582031 L 496.328125 308.519531 L 496.335938 308.355469 C 496.347656 308.140625 496.332031 307.917969 496.3125 307.699219 C 496.226562 306.824219 495.902344 305.945312 495.386719 305.1875 C 495.132812 304.808594 494.824219 304.457031 494.472656 304.160156 C 494.296875 304.011719 494.109375 303.867188 493.933594 303.753906 C 493.777344 303.652344 493.460938 303.472656 493.3125 303.414062 C 492.460938 303.027344 491.496094 302.875 490.519531 302.917969 C 488.542969 303 486.644531 303.925781 484.980469 305.179688 C 483.304688 306.425781 481.761719 307.945312 480.210938 309.398438 C 478.667969 310.863281 477.097656 312.289062 475.460938 313.542969 C 473.824219 314.804688 472.09375 315.839844 470.316406 316.554688 C 468.554688 317.285156 466.757812 317.65625 465.089844 317.710938 C 463.410156 317.753906 461.890625 317.457031 460.636719 316.90625 C 459.394531 316.335938 458.496094 315.511719 457.949219 314.714844 C 457.398438 313.902344 457.261719 313.113281 457.289062 312.605469 C 457.296875 312.34375 457.328125 312.15625 457.363281 312.027344 C 457.390625 311.902344 457.40625 311.835938 457.40625 311.835938 "
            fill-opacity="1" fill-rule="nonzero"/>
    <path
            d="M 414.589844 310.457031 C 414.589844 310.457031 414.539062 310.527344 414.441406 310.652344 C 414.332031 310.753906 414.125 310.957031 413.785156 310.902344 C 413.457031 310.851562 413.132812 310.53125 412.976562 310.089844 C 412.796875 309.664062 412.835938 309.007812 413.253906 308.542969 C 413.671875 308.058594 414.339844 307.765625 415.082031 307.738281 C 415.8125 307.714844 416.664062 307.910156 417.3125 308.558594 C 417.445312 308.722656 417.578125 308.886719 417.71875 309.050781 C 417.835938 309.238281 417.957031 309.445312 418.070312 309.652344 C 418.25 310.074219 418.40625 310.535156 418.441406 311.023438 C 418.542969 312 418.28125 313.054688 417.683594 313.953125 C 417.109375 314.863281 416.140625 315.601562 414.984375 315.898438 C 413.84375 316.175781 412.601562 316.046875 411.453125 315.652344 C 410.304688 315.242188 409.195312 314.515625 408.414062 313.429688 C 408.222656 313.160156 408.054688 312.867188 407.910156 312.558594 C 407.847656 312.394531 407.78125 312.257812 407.722656 312.070312 L 407.589844 311.632812 C 407.414062 310.964844 407.335938 310.316406 407.324219 309.644531 C 407.300781 308.3125 407.613281 306.953125 408.230469 305.714844 C 408.539062 305.09375 408.945312 304.511719 409.425781 303.992188 C 409.542969 303.859375 409.671875 303.738281 409.804688 303.617188 L 410.003906 303.4375 L 410.234375 303.265625 L 411.019531 302.683594 C 411.511719 302.277344 412.160156 301.957031 412.777344 301.621094 C 413.386719 301.246094 414.054688 301.078125 414.699219 300.816406 C 415.023438 300.679688 415.363281 300.617188 415.703125 300.539062 L 416.71875 300.308594 C 417.402344 300.210938 418.09375 300.148438 418.78125 300.097656 C 421.550781 300.023438 424.257812 300.609375 426.777344 301.46875 C 429.300781 302.328125 431.644531 303.503906 433.832031 304.742188 C 436.019531 305.984375 438.023438 307.359375 439.890625 308.671875 C 441.761719 309.964844 443.535156 311.167969 445.28125 312.070312 C 447.023438 312.976562 448.726562 313.578125 450.292969 313.859375 C 451.855469 314.140625 453.28125 314.097656 454.382812 313.8125 C 455.492188 313.523438 456.277344 313.035156 456.761719 312.65625 C 457.003906 312.460938 457.183594 312.304688 457.292969 312.1875 C 457.410156 312.074219 457.46875 312.019531 457.46875 312.019531 C 457.46875 312.019531 457.414062 312.078125 457.308594 312.203125 C 457.203125 312.324219 457.039062 312.496094 456.808594 312.710938 C 456.347656 313.121094 455.585938 313.703125 454.449219 314.050781 C 453.320312 314.414062 451.863281 314.539062 450.222656 314.335938 C 448.589844 314.136719 446.777344 313.609375 444.953125 312.734375 C 443.117188 311.886719 441.261719 310.726562 439.351562 309.472656 C 437.445312 308.214844 435.429688 306.925781 433.273438 305.738281 C 431.113281 304.550781 428.800781 303.476562 426.375 302.652344 C 423.953125 301.839844 421.378906 301.3125 418.824219 301.390625 C 418.191406 301.4375 417.558594 301.488281 416.929688 301.574219 L 416.003906 301.78125 C 415.695312 301.847656 415.382812 301.902344 415.09375 302.027344 C 414.515625 302.261719 413.878906 302.410156 413.367188 302.734375 C 412.828125 303.027344 412.28125 303.265625 411.757812 303.695312 L 410.964844 304.269531 L 410.800781 304.386719 L 410.640625 304.539062 C 410.53125 304.636719 410.421875 304.730469 410.328125 304.839844 C 409.917969 305.261719 409.570312 305.746094 409.300781 306.269531 C 408.757812 307.3125 408.457031 308.484375 408.464844 309.640625 C 408.460938 310.214844 408.53125 310.800781 408.652344 311.320312 L 408.777344 311.761719 C 408.804688 311.867188 408.867188 312 408.910156 312.121094 C 409.015625 312.367188 409.140625 312.605469 409.289062 312.824219 C 409.886719 313.710938 410.804688 314.367188 411.785156 314.746094 C 412.78125 315.121094 413.828125 315.25 414.792969 315.058594 C 415.722656 314.859375 416.554688 314.285156 417.070312 313.535156 C 418.1875 312.039062 417.992188 310.007812 416.957031 308.882812 C 416.480469 308.339844 415.738281 308.105469 415.085938 308.09375 C 414.425781 308.074219 413.8125 308.320312 413.449219 308.699219 C 413.058594 309.097656 413 309.632812 413.125 310.042969 C 413.238281 310.453125 413.511719 310.769531 413.800781 310.835938 C 414.101562 310.90625 414.3125 310.734375 414.429688 310.640625 C 414.535156 310.519531 414.589844 310.457031 414.589844 310.457031 "
            fill-opacity="1" fill-rule="nonzero"/>
    <path
            d="M 407.957031 311.25 L 310.226562 311.25 L 310.226562 309.953125 L 407.957031 309.953125 L 407.957031 311.25 "
            fill-opacity="1" fill-rule="nonzero"/>
    <path
            d="M 604.734375 307.78125 C 604.734375 307.78125 604.796875 307.851562 604.910156 307.984375 C 604.972656 308.046875 605.03125 308.132812 605.09375 308.253906 C 605.175781 308.363281 605.214844 308.511719 605.265625 308.683594 C 605.335938 309.023438 605.28125 309.5 605.007812 309.921875 C 604.742188 310.355469 604.304688 310.734375 603.761719 311.003906 C 603.488281 311.148438 603.183594 311.246094 602.851562 311.324219 C 602.683594 311.351562 602.511719 311.382812 602.324219 311.378906 L 602.1875 311.382812 L 602.035156 311.367188 L 601.800781 311.339844 C 601.640625 311.316406 601.492188 311.3125 601.316406 311.277344 C 601.136719 311.234375 600.957031 311.1875 600.777344 311.144531 C 600.40625 311.050781 600.082031 310.898438 599.742188 310.746094 C 599.074219 310.417969 598.445312 310 597.855469 309.53125 C 597.277344 309.054688 596.722656 308.554688 596.183594 308.058594 C 595.652344 307.558594 595.128906 307.066406 594.589844 306.628906 C 594.042969 306.210938 593.519531 305.785156 592.949219 305.503906 C 592.679688 305.347656 592.363281 305.242188 592.117188 305.125 C 591.949219 305.066406 591.824219 305.039062 591.699219 305.011719 C 591.5625 304.984375 591.417969 304.953125 591.273438 304.941406 C 590.707031 304.886719 590.144531 304.910156 589.65625 305.019531 C 589.167969 305.132812 588.742188 305.328125 588.414062 305.574219 C 588.078125 305.8125 587.867188 306.117188 587.699219 306.378906 C 587.566406 306.65625 587.453125 306.882812 587.414062 307.050781 C 587.363281 307.214844 587.335938 307.304688 587.335938 307.304688 C 587.335938 307.304688 587.339844 307.210938 587.347656 307.039062 C 587.339844 306.859375 587.378906 306.605469 587.460938 306.277344 C 587.578125 305.96875 587.730469 305.558594 588.078125 305.210938 C 588.40625 304.847656 588.871094 304.519531 589.433594 304.308594 C 589.996094 304.089844 590.640625 303.96875 591.328125 303.976562 C 591.503906 303.972656 591.675781 303.992188 591.859375 304.003906 C 592.054688 304.03125 592.253906 304.0625 592.402344 304.097656 C 592.613281 304.144531 592.753906 304.210938 592.933594 304.269531 C 593.109375 304.335938 593.285156 304.390625 593.449219 304.476562 C 594.128906 304.777344 594.769531 305.1875 595.367188 305.648438 C 595.960938 306.113281 596.519531 306.613281 597.066406 307.109375 C 597.597656 307.617188 598.121094 308.113281 598.652344 308.566406 C 599.191406 309.003906 599.710938 309.429688 600.269531 309.734375 C 600.542969 309.882812 600.832031 310.03125 601.097656 310.132812 C 601.230469 310.179688 601.367188 310.230469 601.496094 310.28125 C 601.636719 310.328125 601.808594 310.355469 601.957031 310.390625 L 602.1875 310.441406 C 602.210938 310.445312 602.296875 310.460938 602.265625 310.453125 L 602.359375 310.460938 C 602.476562 310.484375 602.605469 310.46875 602.730469 310.46875 C 602.984375 310.445312 603.238281 310.40625 603.46875 310.320312 C 603.9375 310.164062 604.34375 309.921875 604.609375 309.628906 C 604.878906 309.335938 605.003906 309.003906 605.011719 308.707031 C 605 308.414062 604.933594 308.179688 604.851562 308.023438 C 604.777344 307.867188 604.734375 307.78125 604.734375 307.78125 "
            fill-opacity="1" fill-rule="nonzero"/>
    <path
            d="M 613.171875 307.535156 C 613.179688 307.535156 613.179688 307.425781 613.269531 307.234375 C 613.355469 307.054688 613.5625 306.78125 613.941406 306.628906 C 614.304688 306.480469 614.851562 306.386719 615.410156 306.695312 C 615.941406 306.988281 616.359375 307.636719 616.386719 308.398438 C 616.394531 308.59375 616.382812 308.789062 616.335938 308.988281 C 616.296875 309.164062 616.230469 309.371094 616.148438 309.546875 C 615.984375 309.917969 615.714844 310.273438 615.355469 310.546875 C 614.996094 310.828125 614.554688 310.992188 614.117188 311.078125 C 613.675781 311.164062 613.253906 311.175781 612.808594 311.136719 L 612.503906 311.117188 L 612.15625 311.054688 C 611.914062 311.019531 611.710938 310.953125 611.492188 310.898438 C 611.058594 310.769531 610.640625 310.601562 610.242188 310.398438 C 609.445312 309.996094 608.710938 309.503906 608.003906 309 C 607.308594 308.484375 606.644531 307.960938 605.980469 307.5 L 605.496094 307.179688 C 605.324219 307.078125 605.136719 306.949219 604.976562 306.871094 C 604.660156 306.703125 604.308594 306.53125 603.957031 306.40625 C 602.570312 305.875 601.109375 305.746094 600.109375 306.265625 C 599.621094 306.527344 599.230469 306.90625 598.996094 307.335938 C 598.769531 307.765625 598.5625 308.160156 598.574219 308.5 C 598.574219 308.84375 598.691406 309.113281 598.816406 309.261719 C 598.9375 309.410156 599.039062 309.460938 599.039062 309.460938 C 599.039062 309.460938 598.933594 309.4375 598.765625 309.3125 C 598.605469 309.1875 598.390625 308.929688 598.320312 308.527344 C 598.285156 308.332031 598.277344 308.082031 598.335938 307.851562 C 598.398438 307.628906 598.429688 307.371094 598.550781 307.117188 C 598.734375 306.59375 599.132812 306.039062 599.722656 305.628906 C 600.316406 305.214844 601.09375 304.996094 601.890625 304.972656 C 602.691406 304.941406 603.519531 305.066406 604.332031 305.328125 C 604.742188 305.449219 605.132812 305.613281 605.550781 305.808594 C 605.761719 305.90625 605.921875 306.003906 606.113281 306.105469 C 606.328125 306.238281 606.496094 306.339844 606.679688 306.464844 C 607.402344 306.945312 608.082031 307.464844 608.765625 307.953125 C 609.441406 308.449219 610.117188 308.917969 610.8125 309.285156 C 611.160156 309.464844 611.507812 309.625 611.859375 309.75 C 612.035156 309.808594 612.21875 309.875 612.375 309.90625 L 612.621094 309.964844 L 612.921875 310.003906 C 613.632812 310.09375 614.328125 310.058594 614.796875 309.761719 C 615.265625 309.476562 615.605469 308.878906 615.648438 308.394531 C 615.6875 307.875 615.476562 307.375 615.132812 307.105469 C 614.804688 306.84375 614.34375 306.800781 614.019531 306.871094 C 613.683594 306.945312 613.445312 307.121094 613.328125 307.273438 C 613.210938 307.425781 613.179688 307.539062 613.171875 307.535156 "
            fill-opacity="1" fill-rule="nonzero"/>
    <path
            d="M 541.824219 309.15625 C 541.816406 309.148438 541.964844 309.109375 542.136719 308.933594 C 542.3125 308.757812 542.480469 308.421875 542.566406 307.972656 C 542.65625 307.527344 542.667969 306.949219 542.535156 306.347656 C 542.464844 306.027344 542.335938 305.804688 542.125 305.46875 C 542.023438 305.3125 541.910156 305.203125 541.808594 305.0625 C 541.6875 304.933594 541.558594 304.800781 541.417969 304.675781 C 540.847656 304.191406 540.097656 303.828125 539.253906 303.621094 C 538.40625 303.429688 537.46875 303.378906 536.527344 303.507812 C 536.058594 303.558594 535.578125 303.6875 535.132812 303.828125 C 534.617188 304 534.203125 304.183594 533.71875 304.398438 C 532.789062 304.832031 531.875 305.378906 530.957031 305.953125 C 530.035156 306.515625 529.097656 307.097656 528.128906 307.621094 C 527.15625 308.148438 526.152344 308.5625 525.148438 308.894531 C 523.152344 309.554688 521.1875 309.808594 519.523438 309.804688 C 517.867188 309.808594 516.445312 309.621094 515.554688 309.167969 C 515.109375 308.957031 514.8125 308.695312 514.632812 308.511719 C 514.539062 308.417969 514.480469 308.34375 514.441406 308.289062 C 514.394531 308.238281 514.375 308.210938 514.375 308.210938 C 514.375 308.210938 514.402344 308.234375 514.453125 308.277344 C 514.5 308.324219 514.574219 308.386719 514.675781 308.460938 C 514.886719 308.605469 515.207031 308.789062 515.648438 308.925781 C 516.535156 309.21875 517.882812 309.214844 519.484375 309.058594 C 521.078125 308.902344 522.914062 308.519531 524.769531 307.816406 C 525.699219 307.476562 526.617188 307.019531 527.53125 306.523438 C 528.441406 306.015625 529.347656 305.429688 530.277344 304.847656 C 531.214844 304.28125 532.183594 303.71875 533.199219 303.261719 C 533.695312 303.039062 534.269531 302.824219 534.757812 302.6875 C 535.316406 302.53125 535.855469 302.417969 536.402344 302.375 C 537.488281 302.261719 538.554688 302.40625 539.511719 302.691406 C 540.472656 302.992188 541.3125 303.503906 541.929688 304.140625 C 542.082031 304.304688 542.21875 304.472656 542.347656 304.640625 C 542.460938 304.824219 542.59375 305.007812 542.671875 305.175781 C 542.753906 305.363281 542.824219 305.480469 542.902344 305.707031 C 542.96875 305.898438 542.996094 306.082031 543.019531 306.261719 C 543.09375 306.972656 542.980469 307.574219 542.816406 308.039062 C 542.652344 308.511719 542.398438 308.832031 542.183594 308.988281 C 541.960938 309.140625 541.824219 309.144531 541.824219 309.15625 "
            fill-opacity="1" fill-rule="nonzero"/>
    <path
            d="M 532.933594 304.203125 C 532.933594 304.203125 532.84375 304.382812 532.695312 304.726562 C 532.574219 305.078125 532.4375 305.613281 532.472656 306.296875 C 532.503906 306.976562 532.734375 307.792969 533.21875 308.601562 C 533.714844 309.398438 534.460938 310.191406 535.449219 310.734375 C 536.441406 311.257812 537.691406 311.523438 539.003906 311.527344 C 540.324219 311.53125 541.71875 311.265625 543.140625 310.886719 C 544.5625 310.5 546.023438 309.984375 547.480469 309.4375 C 548.9375 308.878906 550.390625 308.242188 551.808594 307.535156 C 553.234375 306.835938 554.644531 306.070312 556.074219 305.359375 C 557.503906 304.644531 558.972656 304.023438 560.457031 303.574219 C 561.941406 303.121094 563.441406 302.878906 564.878906 302.882812 C 566.3125 302.878906 567.683594 303.15625 568.828125 303.632812 C 570.015625 304.132812 570.929688 304.832031 571.625 305.566406 C 572.316406 306.304688 572.78125 307.0625 573.058594 307.722656 C 573.347656 308.382812 573.429688 308.941406 573.488281 309.3125 C 573.511719 309.691406 573.523438 309.894531 573.523438 309.894531 C 573.523438 309.894531 573.488281 309.695312 573.414062 309.328125 C 573.320312 308.964844 573.15625 308.441406 572.832031 307.832031 C 572.507812 307.222656 572 306.542969 571.289062 305.914062 C 570.582031 305.292969 569.644531 304.714844 568.582031 304.335938 C 567.46875 303.957031 566.226562 303.796875 564.898438 303.851562 C 563.574219 303.910156 562.183594 304.207031 560.800781 304.660156 C 559.410156 305.117188 558.03125 305.78125 556.636719 306.480469 C 555.242188 307.183594 553.835938 307.96875 552.378906 308.691406 C 549.453125 310.125 546.398438 311.257812 543.421875 311.992188 C 541.929688 312.355469 540.421875 312.5625 538.976562 312.492188 C 537.535156 312.425781 536.171875 312.050781 535.074219 311.375 C 533.980469 310.6875 533.25 309.738281 532.796875 308.832031 C 532.355469 307.914062 532.191406 307.019531 532.21875 306.300781 C 532.242188 305.570312 532.472656 305.035156 532.632812 304.695312 C 532.824219 304.371094 532.933594 304.203125 532.933594 304.203125 "
            fill-opacity="1" fill-rule="nonzero"/>
    <path
            d="M 537.820312 311.835938 C 537.820312 311.835938 537.835938 311.902344 537.863281 312.027344 C 537.898438 312.15625 537.929688 312.34375 537.933594 312.605469 C 537.960938 313.113281 537.824219 313.902344 537.277344 314.714844 C 536.726562 315.511719 535.828125 316.335938 534.585938 316.90625 C 533.332031 317.457031 531.816406 317.753906 530.136719 317.710938 C 528.46875 317.65625 526.667969 317.285156 524.90625 316.554688 C 523.132812 315.839844 521.402344 314.804688 519.761719 313.542969 C 518.128906 312.289062 516.558594 310.863281 515.015625 309.398438 C 513.460938 307.945312 511.921875 306.425781 510.242188 305.179688 C 508.582031 303.925781 506.683594 303 504.707031 302.917969 C 503.730469 302.875 502.761719 303.027344 501.914062 303.414062 C 501.765625 303.472656 501.445312 303.652344 501.292969 303.753906 C 501.117188 303.867188 500.929688 304.011719 500.75 304.160156 C 500.398438 304.457031 500.09375 304.808594 499.835938 305.1875 C 499.320312 305.945312 498.996094 306.824219 498.910156 307.699219 C 498.890625 307.917969 498.875 308.140625 498.890625 308.355469 L 498.894531 308.519531 L 498.898438 308.582031 L 498.910156 308.671875 C 498.925781 308.785156 498.9375 308.914062 498.957031 309.019531 C 499.023438 309.410156 499.160156 309.84375 499.332031 310.226562 C 500.035156 311.785156 501.417969 312.921875 502.886719 313.285156 C 504.324219 313.640625 505.855469 313.25 506.710938 312.382812 C 506.929688 312.179688 507.097656 311.90625 507.222656 311.683594 C 507.351562 311.382812 507.421875 311.164062 507.4375 310.886719 C 507.484375 310.359375 507.351562 309.855469 507.148438 309.449219 C 506.75 308.621094 506.085938 308.195312 505.601562 308.09375 C 505.113281 307.984375 504.835938 308.089844 504.839844 308.066406 C 504.839844 308.089844 505.101562 307.960938 505.617188 308.023438 C 506.117188 308.089844 506.882812 308.460938 507.371094 309.332031 C 507.617188 309.753906 507.804688 310.289062 507.796875 310.902344 C 507.804688 311.203125 507.714844 311.5625 507.613281 311.828125 C 507.464844 312.15625 507.308594 312.441406 507.0625 312.710938 C 506.125 313.789062 504.441406 314.351562 502.714844 314.011719 C 501.011719 313.675781 499.339844 312.453125 498.457031 310.640625 C 498.234375 310.179688 498.0625 309.71875 497.949219 309.175781 C 497.925781 309.046875 497.910156 308.9375 497.890625 308.816406 L 497.875 308.726562 C 497.867188 308.65625 497.867188 308.648438 497.863281 308.609375 L 497.847656 308.410156 C 497.824219 308.148438 497.832031 307.878906 497.847656 307.613281 C 497.910156 306.542969 498.292969 305.488281 498.886719 304.558594 C 499.1875 304.089844 499.550781 303.660156 499.972656 303.277344 C 500.191406 303.09375 500.40625 302.914062 500.664062 302.746094 C 500.941406 302.5625 501.074219 302.480469 501.402344 302.324219 C 502.441406 301.820312 503.617188 301.617188 504.761719 301.667969 C 505.902344 301.710938 507.046875 301.992188 508.09375 302.4375 C 509.148438 302.882812 510.117188 303.476562 511.015625 304.140625 C 512.800781 305.488281 514.332031 307.03125 515.875 308.492188 C 517.414062 309.957031 518.902344 311.40625 520.464844 312.644531 C 522.011719 313.875 523.632812 314.941406 525.28125 315.667969 C 526.933594 316.410156 528.609375 316.839844 530.175781 316.972656 C 531.738281 317.082031 533.210938 316.890625 534.40625 316.464844 C 535.597656 316.011719 536.503906 315.289062 537.070312 314.566406 C 537.351562 314.199219 537.542969 313.832031 537.675781 313.5 C 537.792969 313.160156 537.851562 312.855469 537.867188 312.605469 C 537.878906 312.359375 537.867188 312.164062 537.84375 312.03125 C 537.828125 311.902344 537.820312 311.835938 537.820312 311.835938 "
            fill-opacity="1" fill-rule="nonzero"/>
    <path
            d="M 580.632812 310.457031 C 580.632812 310.457031 580.691406 310.519531 580.796875 310.640625 C 580.914062 310.734375 581.125 310.90625 581.421875 310.835938 C 581.710938 310.769531 581.988281 310.453125 582.101562 310.042969 C 582.226562 309.632812 582.164062 309.097656 581.777344 308.699219 C 581.410156 308.320312 580.796875 308.074219 580.136719 308.09375 C 579.484375 308.105469 578.746094 308.339844 578.269531 308.882812 C 577.230469 310.007812 577.039062 312.039062 578.152344 313.535156 C 578.667969 314.285156 579.5 314.859375 580.433594 315.058594 C 581.394531 315.25 582.445312 315.121094 583.4375 314.746094 C 584.421875 314.367188 585.335938 313.710938 585.933594 312.824219 C 586.085938 312.605469 586.210938 312.367188 586.3125 312.121094 C 586.355469 312 586.421875 311.867188 586.449219 311.761719 L 586.574219 311.320312 C 586.695312 310.800781 586.765625 310.214844 586.761719 309.640625 C 586.765625 308.484375 586.46875 307.3125 585.925781 306.269531 C 585.65625 305.746094 585.304688 305.261719 584.898438 304.839844 C 584.804688 304.730469 584.691406 304.636719 584.582031 304.539062 L 584.421875 304.386719 L 584.257812 304.269531 L 583.46875 303.695312 C 582.945312 303.265625 582.394531 303.027344 581.859375 302.734375 C 581.34375 302.410156 580.710938 302.261719 580.128906 302.027344 C 579.84375 301.902344 579.527344 301.847656 579.222656 301.78125 L 578.296875 301.574219 C 577.667969 301.488281 577.03125 301.4375 576.398438 301.390625 C 573.84375 301.3125 571.273438 301.839844 568.851562 302.652344 C 566.421875 303.476562 564.113281 304.550781 561.953125 305.738281 C 559.792969 306.925781 557.777344 308.214844 555.875 309.472656 C 553.964844 310.726562 552.105469 311.886719 550.273438 312.734375 C 548.449219 313.609375 546.636719 314.136719 545 314.335938 C 543.363281 314.539062 541.902344 314.414062 540.773438 314.050781 C 539.636719 313.703125 538.878906 313.121094 538.417969 312.710938 C 538.1875 312.496094 538.019531 312.324219 537.917969 312.203125 C 537.8125 312.078125 537.757812 312.019531 537.757812 312.019531 C 537.757812 312.019531 537.816406 312.074219 537.929688 312.1875 C 538.042969 312.304688 538.222656 312.460938 538.464844 312.65625 C 538.949219 313.035156 539.734375 313.523438 540.84375 313.8125 C 541.945312 314.097656 543.371094 314.140625 544.929688 313.859375 C 546.496094 313.578125 548.203125 312.976562 549.941406 312.070312 C 551.6875 311.167969 553.464844 309.964844 555.332031 308.671875 C 557.203125 307.359375 559.207031 305.984375 561.394531 304.742188 C 563.582031 303.503906 565.921875 302.328125 568.449219 301.46875 C 570.964844 300.609375 573.675781 300.023438 576.445312 300.097656 C 577.132812 300.148438 577.824219 300.210938 578.507812 300.308594 L 579.523438 300.539062 C 579.863281 300.617188 580.203125 300.679688 580.523438 300.816406 C 581.167969 301.078125 581.839844 301.246094 582.449219 301.621094 C 583.066406 301.957031 583.714844 302.277344 584.207031 302.683594 L 584.992188 303.265625 L 585.222656 303.4375 L 585.421875 303.617188 C 585.550781 303.738281 585.683594 303.859375 585.796875 303.992188 C 586.28125 304.511719 586.6875 305.09375 586.996094 305.714844 C 587.613281 306.953125 587.925781 308.3125 587.902344 309.644531 C 587.886719 310.316406 587.808594 310.964844 587.636719 311.632812 L 587.5 312.070312 C 587.445312 312.257812 587.378906 312.394531 587.3125 312.558594 C 587.171875 312.867188 587.003906 313.160156 586.808594 313.429688 C 586.03125 314.515625 584.917969 315.242188 583.773438 315.652344 C 582.625 316.046875 581.378906 316.175781 580.238281 315.898438 C 579.085938 315.601562 578.117188 314.863281 577.542969 313.953125 C 576.945312 313.054688 576.679688 312 576.785156 311.023438 C 576.820312 310.535156 576.972656 310.074219 577.15625 309.652344 C 577.265625 309.445312 577.390625 309.238281 577.507812 309.050781 C 577.644531 308.886719 577.78125 308.722656 577.914062 308.558594 C 578.5625 307.910156 579.410156 307.714844 580.144531 307.738281 C 580.886719 307.765625 581.554688 308.058594 581.972656 308.542969 C 582.386719 309.007812 582.425781 309.664062 582.25 310.089844 C 582.089844 310.53125 581.765625 310.851562 581.4375 310.902344 C 581.097656 310.957031 580.894531 310.753906 580.78125 310.652344 C 580.683594 310.527344 580.632812 310.457031 580.632812 310.457031 "
            fill-opacity="1" fill-rule="nonzero"/>
    <path
            d="M 684.996094 311.25 L 587.269531 311.25 L 587.269531 309.953125 L 684.996094 309.953125 L 684.996094 311.25 "
            fill-opacity="1" fill-rule="nonzero"/>
</svg>