<svg xmlns="http://www.w3.org/2000/svg" version="1.0" viewBox="300 290 395 35">
    <path d="m390.5 307.78-.13.24c-.08.16-.14.4-.16.69 0 .3.14.63.4.92.27.3.68.53 1.14.69.24.09.5.13.74.15h.38l.1-.02c-.04.01.05 0 .07 0l.23-.06.46-.1.4-.16c.26-.1.55-.25.83-.4.56-.3 1.08-.73 1.61-1.16.53-.46 1.06-.95 1.59-1.46.55-.5 1.1-1 1.7-1.46.6-.46 1.23-.87 1.92-1.17.16-.09.34-.14.5-.21.2-.06.33-.13.54-.17.15-.04.35-.07.55-.1.18 0 .35-.03.52-.02.7-.01 1.34.11 1.9.33a3.5 3.5 0 0 1 1.36.9c.34.35.5.76.62 1.07.08.33.11.58.1.76l.02.26-.08-.25a2.75 2.75 0 0 0-1-1.48 3.35 3.35 0 0 0-1.24-.55 5.23 5.23 0 0 0-1.62-.08 3.28 3.28 0 0 0-.84.18c-.25.12-.56.23-.84.38-.56.29-1.09.71-1.63 1.13-.54.44-1.07.93-1.6 1.43-.54.5-1.1 1-1.67 1.47-.59.47-1.22.89-1.89 1.22-.34.15-.66.3-1.03.4l-.54.13-.48.06-.24.03-.15.01h-.14c-.19 0-.36-.03-.53-.06a3.76 3.76 0 0 1-.9-.32 3 3 0 0 1-1.25-1.08 1.7 1.7 0 0 1-.26-1.24c.05-.17.1-.32.17-.43.07-.12.12-.2.19-.27l.17-.2"/>
    <path d="M382.05 307.54s-.03-.11-.15-.27a1.23 1.23 0 0 0-.7-.4 1.38 1.38 0 0 0-1.1.24 1.5 1.5 0 0 0-.52 1.28c.04.49.38 1.09.85 1.37.47.3 1.16.33 1.87.24l.3-.04.25-.05.52-.16c.34-.13.7-.29 1.04-.46.7-.37 1.38-.84 2.05-1.34.68-.49 1.36-1 2.08-1.49l.57-.35c.2-.1.35-.2.56-.3.42-.2.81-.36 1.22-.48a7.08 7.08 0 0 1 2.44-.36c.8.03 1.58.24 2.17.66.6.4.99.96 1.18 1.49.12.25.15.5.21.73.06.23.05.48.02.68-.07.4-.29.66-.45.78-.17.13-.27.15-.27.15s.1-.05.22-.2c.13-.15.24-.42.24-.76.01-.34-.2-.73-.42-1.16-.23-.43-.63-.81-1.12-1.07-1-.52-2.45-.4-3.84.14-.35.12-.7.3-1.02.46-.16.08-.35.2-.52.31l-.48.32c-.67.46-1.34.98-2.03 1.5-.7.5-1.44 1-2.24 1.4-.4.2-.82.37-1.25.5-.21.05-.42.12-.66.15l-.35.07-.3.02c-.45.04-.87.02-1.31-.06a2.94 2.94 0 0 1-1.24-.53 2.57 2.57 0 0 1-.8-1 2.33 2.33 0 0 1-.24-1.15c.04-.76.46-1.41.99-1.7.56-.31 1.1-.22 1.47-.07.37.15.58.42.67.6.08.2.08.3.1.3M453.4 309.16c0-.02-.14-.02-.36-.17a1.99 1.99 0 0 1-.63-.95 3.99 3.99 0 0 1-.09-2.33c.08-.23.15-.35.23-.53.08-.17.22-.36.33-.54.13-.17.26-.34.41-.5a5.8 5.8 0 0 1 2.42-1.45 8 8 0 0 1 4.76 0c.49.13 1.06.35 1.55.57a26.9 26.9 0 0 1 2.93 1.59c.93.58 1.83 1.17 2.75 1.67a20.9 20.9 0 0 0 8.04 2.54c1.6.15 2.95.16 3.83-.13a3.53 3.53 0 0 0 1.2-.65l.08-.07-.06.08c-.04.05-.1.13-.2.22-.18.19-.47.45-.92.66-.9.45-2.31.64-3.97.63a18.06 18.06 0 0 1-8.6-2.18c-.98-.52-1.9-1.1-2.83-1.67a25.78 25.78 0 0 0-2.77-1.55c-.48-.22-.9-.4-1.41-.57a7.72 7.72 0 0 0-4.12-.2c-.84.2-1.6.56-2.17 1.05l-.39.38c-.1.14-.21.25-.3.4-.22.34-.35.57-.42.89-.13.6-.12 1.18-.03 1.62.09.45.25.79.43.96.17.18.32.22.3.23"/>
    <path d="m462.3 304.2.3.5c.15.34.38.87.4 1.6.04.72-.13 1.61-.57 2.53a6.39 6.39 0 0 1-2.28 2.55 8.2 8.2 0 0 1-3.9 1.11c-1.45.07-2.95-.13-4.45-.5a45.33 45.33 0 0 1-8.96-3.3c-1.45-.72-2.86-1.5-4.25-2.21-1.4-.7-2.78-1.36-4.16-1.82a15.57 15.57 0 0 0-4.1-.8c-1.33-.06-2.58.1-3.69.48-1.06.37-2 .95-2.7 1.57a6.72 6.72 0 0 0-2.13 3.41l-.1.57s0-.2.03-.58a6 6 0 0 1 .42-1.59c.29-.66.75-1.42 1.44-2.15a8.3 8.3 0 0 1 2.8-1.94c1.14-.47 2.51-.75 3.94-.75 1.44 0 2.95.24 4.43.7 1.48.44 2.95 1.06 4.38 1.78 1.43.71 2.84 1.48 4.27 2.18a49.17 49.17 0 0 0 8.67 3.35c1.42.38 2.81.64 4.13.64 1.32 0 2.56-.27 3.56-.8a6.15 6.15 0 0 0 2.23-2.13c.48-.8.7-1.62.74-2.3a4.12 4.12 0 0 0-.46-2.1"/>
    <path d="m457.4 311.84-.02.2a3.43 3.43 0 0 0 .77 2.54 6.21 6.21 0 0 0 2.67 1.88c1.2.43 2.67.62 4.23.51 1.57-.13 3.24-.56 4.9-1.3 1.64-.73 3.26-1.8 4.81-3.03 1.56-1.23 3.05-2.68 4.59-4.15 1.54-1.46 3.08-3 4.86-4.35.9-.66 1.87-1.26 2.92-1.7a9.51 9.51 0 0 1 3.33-.77 7.02 7.02 0 0 1 4.1 1.08 6.2 6.2 0 0 1 1.78 1.8 6.43 6.43 0 0 1 1.04 3.86l-.02.2v.12l-.02.09-.07.36a6.21 6.21 0 0 1-4.76 4.84 4.63 4.63 0 0 1-4.35-1.3c-.24-.28-.4-.56-.55-.9-.1-.26-.2-.62-.18-.92 0-.61.18-1.15.42-1.57a2.52 2.52 0 0 1 1.76-1.3c.51-.07.78.06.78.04 0 .02-.28-.09-.77.02-.48.1-1.14.53-1.55 1.36-.2.4-.33.9-.28 1.44.01.27.08.5.21.8.13.22.3.49.52.7a4.12 4.12 0 0 0 3.82.9 5.48 5.48 0 0 0 3.93-4.27l.05-.35v-.15l.02-.16c0-.22 0-.44-.03-.66a5.47 5.47 0 0 0-2.38-3.95 6.11 6.11 0 0 0-3.41-.84c-1.98.09-3.88 1.02-5.54 2.27-1.68 1.25-3.22 2.77-4.77 4.22a60.1 60.1 0 0 1-4.75 4.14 21.9 21.9 0 0 1-5.14 3.01c-1.77.74-3.56 1.1-5.23 1.16-1.68.04-3.2-.25-4.45-.8a6.59 6.59 0 0 1-2.7-2.2 3.54 3.54 0 0 1-.65-2.1c0-.27.04-.45.07-.58l.05-.2"/>
    <path d="m414.59 310.46-.15.2c-.1.1-.31.3-.65.24-.33-.05-.66-.37-.81-.81a1.52 1.52 0 0 1 .27-1.55 2.52 2.52 0 0 1 1.83-.8c.73-.03 1.58.17 2.23.82l.4.5a4.32 4.32 0 0 1-.04 4.9 4.56 4.56 0 0 1-2.69 1.94 6.36 6.36 0 0 1-3.53-.25 6.34 6.34 0 0 1-3.04-2.22c-.19-.27-.36-.56-.5-.87-.06-.17-.13-.3-.19-.49l-.13-.44a8.52 8.52 0 0 1 .64-5.92 7.4 7.4 0 0 1 1.57-2.1l.2-.17.23-.17.79-.59c.5-.4 1.14-.72 1.76-1.06.6-.37 1.27-.54 1.92-.8.32-.14.66-.2 1-.28l1.02-.23c.68-.1 1.37-.16 2.06-.21 2.77-.08 5.48.5 8 1.37 2.52.86 4.86 2.03 7.05 3.27a74.51 74.51 0 0 1 6.06 3.93 51.3 51.3 0 0 0 5.4 3.4c1.73.9 3.44 1.5 5 1.79a9.8 9.8 0 0 0 4.1-.05 6.51 6.51 0 0 0 3.08-1.79l-.16.18a6.25 6.25 0 0 1-2.86 1.85c-1.13.36-2.59.49-4.23.29-1.63-.2-3.44-.73-5.27-1.6-1.83-.85-3.69-2.01-5.6-3.27a88.92 88.92 0 0 0-6.08-3.73 43.34 43.34 0 0 0-6.9-3.09c-2.42-.81-5-1.34-7.55-1.26-.63.05-1.26.1-1.89.18l-.93.21c-.3.07-.62.12-.9.25-.58.23-1.22.38-1.73.7-.54.3-1.09.54-1.61.97l-.8.57-.16.12-.16.15c-.1.1-.22.19-.31.3-.41.42-.76.9-1.03 1.43a7.26 7.26 0 0 0-.65 5.05l.13.44c.02.1.09.24.13.36.1.25.23.49.38.7.6.9 1.51 1.55 2.5 1.93 1 .37 2.04.5 3 .3.93-.2 1.76-.76 2.28-1.51a3.74 3.74 0 0 0-.11-4.66 2.57 2.57 0 0 0-1.87-.79 2.21 2.21 0 0 0-1.64.6c-.4.4-.45.94-.32 1.35.1.41.38.73.67.8.3.07.51-.1.63-.2l.16-.18"/>
    <path d="M407.96 311.25h-97.73v-1.3h97.73v1.3M604.73 307.78l.18.2c.06.07.12.15.18.27.09.11.12.26.18.43.07.34.01.82-.26 1.24-.27.44-.7.81-1.25 1.08a3.8 3.8 0 0 1-.9.32c-.18.03-.35.06-.54.06h-.13l-.15-.01-.24-.03-.48-.06-.54-.14c-.37-.09-.7-.24-1.04-.4-.67-.32-1.3-.74-1.88-1.2-.58-.49-1.14-.99-1.68-1.48-.53-.5-1.05-1-1.59-1.43-.55-.42-1.07-.84-1.64-1.13-.27-.15-.59-.26-.83-.38l-.42-.1a5.24 5.24 0 0 0-2.04 0c-.5.11-.92.3-1.25.55-.33.24-.54.55-.71.8-.13.29-.25.51-.29.68l-.07.25v-.26c0-.18.04-.43.12-.76.12-.31.27-.72.62-1.07.33-.36.8-.69 1.35-.9.57-.22 1.21-.34 1.9-.33l.53.02c.2.03.4.06.54.1.21.04.35.11.53.17.18.07.36.12.52.2.68.3 1.32.72 1.92 1.18.6.46 1.15.96 1.7 1.46.53.5 1.05 1 1.58 1.46.54.43 1.06.86 1.62 1.16a7.25 7.25 0 0 0 1.23.55c.14.05.3.08.46.11l.23.05.08.01.09.01c.12.02.25 0 .37 0 .25-.01.5-.05.74-.14.47-.16.87-.4 1.14-.7.27-.28.4-.62.4-.91-.01-.3-.08-.53-.16-.69l-.12-.24"/>
    <path d="M613.17 307.54c.01 0 .01-.11.1-.3.09-.19.3-.46.67-.61.36-.15.91-.24 1.47.07.53.29.95.94.98 1.7 0 .2 0 .39-.05.59-.04.17-.11.38-.2.56-.16.37-.43.72-.78 1-.36.28-.8.44-1.24.53-.44.08-.87.1-1.31.06l-.3-.02-.35-.07c-.25-.03-.45-.1-.67-.15-.43-.13-.85-.3-1.25-.5-.8-.4-1.53-.9-2.24-1.4-.7-.52-1.36-1.04-2.02-1.5l-.48-.32c-.18-.1-.36-.23-.52-.3a7.8 7.8 0 0 0-1.02-.47c-1.39-.54-2.85-.66-3.85-.14-.49.26-.88.64-1.11 1.07-.23.43-.44.82-.43 1.16 0 .34.12.61.25.76.12.15.22.2.22.2s-.1-.02-.27-.15a1.27 1.27 0 0 1-.45-.78c-.03-.2-.04-.45.02-.68.06-.22.09-.48.21-.73.18-.53.58-1.08 1.17-1.5.6-.4 1.37-.62 2.17-.65.8-.03 1.63.1 2.44.36.41.12.8.28 1.22.48.21.1.37.2.56.3l.57.35c.72.49 1.4 1 2.09 1.5.67.49 1.35.96 2.04 1.33.35.17.7.33 1.05.46.18.06.36.13.51.16l.25.05.3.04c.71.1 1.4.06 1.88-.24.47-.28.8-.88.85-1.37a1.51 1.51 0 0 0-.52-1.28c-.33-.27-.79-.3-1.11-.24-.34.08-.57.25-.7.4l-.15.27M541.82 309.16c0-.01.14-.05.32-.23.17-.17.34-.5.43-.96.09-.44.1-1.02-.03-1.62-.08-.32-.2-.55-.41-.88-.1-.16-.22-.27-.32-.4a6.1 6.1 0 0 0-.4-.4 5.3 5.3 0 0 0-2.16-1.05 7.72 7.72 0 0 0-4.12.2c-.51.18-.93.36-1.41.58-.93.43-1.85.98-2.76 1.55-.92.57-1.86 1.15-2.83 1.67a18.28 18.28 0 0 1-8.6 2.18c-1.66 0-3.08-.18-3.98-.63a3.19 3.19 0 0 1-1.1-.88l-.08-.08a18.03 18.03 0 0 0 .3.25c.22.15.54.33.98.47.89.29 2.23.28 3.83.13a20.83 20.83 0 0 0 8.05-2.54c.91-.5 1.82-1.09 2.75-1.67.93-.57 1.9-1.13 2.92-1.59.5-.22 1.07-.44 1.56-.57a8.03 8.03 0 0 1 4.75 0 5.78 5.78 0 0 1 2.84 1.95c.11.18.24.37.32.54.08.18.15.3.23.53.07.19.1.37.12.55.07.71-.04 1.31-.2 1.78-.17.47-.42.8-.64.95-.22.15-.36.15-.36.17"/>
    <path d="M532.93 304.2s-.09.18-.23.53c-.13.35-.26.88-.23 1.57.03.68.26 1.5.75 2.3.5.8 1.24 1.6 2.23 2.13 1 .53 2.24.8 3.55.8 1.32 0 2.72-.26 4.14-.64a49.59 49.59 0 0 0 8.67-3.35c1.42-.7 2.83-1.47 4.26-2.18 1.43-.72 2.9-1.34 4.39-1.79a15.1 15.1 0 0 1 4.42-.69c1.43 0 2.8.28 3.95.75 1.19.5 2.1 1.2 2.8 1.94.69.73 1.15 1.5 1.43 2.15.29.66.37 1.22.43 1.6l.03.57-.1-.56a6.72 6.72 0 0 0-2.13-3.42 8.49 8.49 0 0 0-2.7-1.57 10.12 10.12 0 0 0-3.7-.49c-1.32.06-2.7.36-4.09.81-1.39.46-2.77 1.12-4.16 1.82-1.4.7-2.8 1.49-4.26 2.21a45.2 45.2 0 0 1-8.96 3.3c-1.49.37-3 .57-4.44.5a8.2 8.2 0 0 1-3.9-1.12 6.33 6.33 0 0 1-2.28-2.54 5.48 5.48 0 0 1-.58-2.53c.02-.73.25-1.26.41-1.6l.3-.5"/>
    <path d="m537.82 311.84.04.19a3.56 3.56 0 0 1-.59 2.69 6.63 6.63 0 0 1-2.68 2.19c-1.26.55-2.77.84-4.45.8a15.06 15.06 0 0 1-5.23-1.16 22.07 22.07 0 0 1-5.15-3 60.75 60.75 0 0 1-4.74-4.15c-1.56-1.45-3.1-2.97-4.78-4.22-1.66-1.25-3.56-2.18-5.53-2.26a6.1 6.1 0 0 0-3.42.83 5.08 5.08 0 0 0-1.46 1.43 5.47 5.47 0 0 0-.94 3.18v.22l.02.1.05.34a5.47 5.47 0 0 0 3.93 4.27 4.13 4.13 0 0 0 3.82-.9c.22-.21.39-.48.51-.7.13-.3.2-.53.22-.8a2.71 2.71 0 0 0-.3-1.44 2.4 2.4 0 0 0-1.54-1.36c-.49-.1-.76 0-.76-.02 0 .02.26-.1.78-.05.5.07 1.26.44 1.75 1.31.25.42.43.96.43 1.57 0 .3-.09.66-.19.93-.15.33-.3.61-.55.88a4.62 4.62 0 0 1-4.35 1.3 6.2 6.2 0 0 1-4.76-4.83l-.06-.36-.01-.1-.02-.11-.01-.2a6.43 6.43 0 0 1 6.91-6.74c1.14.04 2.29.32 3.33.77a14.3 14.3 0 0 1 2.93 1.7c1.78 1.35 3.31 2.9 4.86 4.35 1.53 1.47 3.02 2.92 4.58 4.15a22.5 22.5 0 0 0 4.82 3.03c1.65.74 3.33 1.17 4.9 1.3 1.56.11 3.03-.08 4.23-.5a6.2 6.2 0 0 0 2.66-1.9 3.45 3.45 0 0 0 .8-1.96 2.72 2.72 0 0 0-.05-.77"/>
    <path d="m580.63 310.46.17.18c.11.1.33.27.62.2.3-.07.57-.39.68-.8.13-.4.06-.94-.32-1.34a2.23 2.23 0 0 0-1.64-.6c-.66 0-1.4.24-1.87.78a3.74 3.74 0 0 0-.12 4.66 3.76 3.76 0 0 0 2.28 1.52c.96.19 2.02.06 3-.31a5.3 5.3 0 0 0 2.5-1.93c.16-.21.28-.45.38-.7.05-.12.11-.25.14-.36l.12-.44a7.33 7.33 0 0 0-.64-5.05 6.1 6.1 0 0 0-1.03-1.43c-.1-.11-.2-.2-.32-.3l-.16-.15-.16-.12-.8-.57c-.51-.43-1.07-.67-1.6-.97-.52-.32-1.15-.47-1.73-.7-.29-.13-.6-.18-.9-.25l-.93-.2a30.9 30.9 0 0 0-1.9-.19c-2.56-.08-5.13.45-7.55 1.26-2.43.83-4.74 1.9-6.9 3.09a87.05 87.05 0 0 0-6.08 3.73 44.94 44.94 0 0 1-5.6 3.26c-1.82.88-3.63 1.4-5.27 1.6-1.64.2-3.1.08-4.23-.28a6.23 6.23 0 0 1-2.85-1.85l-.16-.18.17.17a6.3 6.3 0 0 0 2.91 1.62c1.1.29 2.53.33 4.09.05 1.57-.28 3.27-.88 5.01-1.79a50.9 50.9 0 0 0 5.4-3.4 75.29 75.29 0 0 1 6.05-3.93 41.5 41.5 0 0 1 7.06-3.27 22.96 22.96 0 0 1 8-1.37c.68.05 1.37.11 2.06.2l1.01.24c.34.08.68.14 1 .28.65.26 1.32.43 1.93.8.62.34 1.26.66 1.76 1.06l.78.59.23.17.2.18.38.37c.48.52.89 1.1 1.2 1.72a8.52 8.52 0 0 1 .64 5.92l-.14.44c-.05.19-.12.32-.19.49-.14.3-.3.6-.5.87a6.33 6.33 0 0 1-3.04 2.22c-1.14.4-2.4.53-3.53.25a4.56 4.56 0 0 1-2.7-1.95 4.49 4.49 0 0 1-.38-4.3c.1-.2.23-.41.35-.6l.4-.5c.65-.64 1.5-.84 2.23-.81.75.03 1.41.32 1.83.8.42.47.46 1.12.28 1.55-.16.44-.48.76-.81.81-.34.06-.55-.15-.66-.25l-.15-.2"/>
    <path d="M685 311.25h-97.73v-1.3H685v1.3"/>
</svg>