<svg xmlns="http://www.w3.org/2000/svg" xmlns:xlink="http://www.w3.org/1999/xlink" version="1.0" viewBox="415 300 60 55">
    <defs>
        <path id="reuse-0" d="m414.16 348.2 52.36-48.32 13.73 14.88-52.36 48.31Zm0 0"/>
    </defs>
    <defs>
        <clipPath id="a">
            <path d="M415 304h58v47h-58Zm0 0"/>
        </clipPath>
        <clipPath id="b">
            <use xlink:href="#reuse-0"/>
        </clipPath>
        <clipPath id="c">
            <use xlink:href="#reuse-0"/>
        </clipPath>
        <clipPath id="d">
            <path d="M428 347h1v1h-1Zm0 0"/>
        </clipPath>
        <clipPath id="e">
            <use xlink:href="#reuse-0"/>
        </clipPath>
        <clipPath id="f">
            <use xlink:href="#reuse-0"/>
        </clipPath>
    </defs>
    <g clip-path="url(#a)">
        <g clip-path="url(#b)">
            <g clip-path="url(#c)">
                <path d="M415.38 347.86c0 .06.04.1.1.13 0 .22-.32.34-.16.6-.03.68.44.91.97 1.07 1.5.45 3.05.64 4.6.74 5.57.36 10.97-.47 16.27-2.26 9.25-3.13 16.38-8.97 22-16.8 2.6-3.63 4.53-7.64 6.27-11.75 1.02-2.4 1.89-4.88 2.82-7.32l-.02-.3c.09-.09.15-.2.25-.24.08-.02.12.09.08.18.3.98.37 2 .39 3.01 0 .7.07 1.37.34 2.02.01 1.5.8 2.4 2.16 2.56 1.32-2.69 1.07-5.47.59-8.27-.18-1.05-.29-2.1-.42-3.15-.3-2.52-.4-2.14-2.28-2.97a4.06 4.06 0 0 0-1.34-.3c-.18-.02-.34-.02-.47.1-.5-.18-.82.11-1.13.41l-2.7 2.73c-.3.08-.48.3-.64.53-.3.06-.47.3-.66.5-.22.02-.33.2-.5.31a27.57 27.57 0 0 1-6.95 3.56l-.56.21c-.22.09-.47.18-.46.45.01.2.23.38.4.4.76.08 1.36.6 2.09.74.33.07.65-.01.97-.1 2.53-.63 4.88-1.69 7.12-3 .2-.11.39-.26.6-.33.26-.09.35.11.38.33-.21.15-.28.36-.21.6-.17.19-.32.38-.24.64-.06.02-.08.07-.05.13-.16.16-.29.34-.23.6-.08.13-.19.26-.25.41-.69 1.65-1.35 3.3-2.05 4.93-.64 1.49-1.32 2.95-2 4.42-.21.37-.45.72-.66 1.1a45.6 45.6 0 0 1-7.4 9.89c-1.05 1.05-2.13 2.07-3.2 3.1-.3.08-.48.32-.65.56-.3.07-.47.3-.64.52-.3.04-.44.27-.61.47-.2 0-.32.13-.4.29-.07 0-.11.04-.13.11-.22.02-.34.2-.5.3-.8.51-1.5 1.17-2.36 1.6 0 .1-.18.32.16.2.22-.09.28-.05.27.03 0 .07-.06.18-.09.26a47.78 47.78 0 0 1-8.1 3.83l-.81.22-4.83 1.3a.25.25 0 0 0-.17 0 .3.3 0 0 0-.11.06.24.24 0 0 0-.28.06c-.1-.05-.2-.03-.27.05-.1-.05-.2-.03-.28.05-.1-.05-.2-.03-.28.05-.1-.06-.2-.04-.27.05-.1-.06-.2-.04-.28.04l-.28.04c-.1-.05-.2-.04-.28.04-.1-.05-.2-.04-.28.04h-.01c-.1-.05-.19-.04-.27.04-.1-.06-.2-.04-.28.04-.1-.06-.2-.04-.28.04-.87.05-1.73.1-2.6.17-.43.16-.9.1-1.35.12a.38.38 0 0 1-.04-.14c0-.08 0-.14.05-.21-.34-.04-.68-.1-1.02.03-.1.05-.2.09-.32.07l.32-.07c-.11-.03-.22-.05-.3.05-.13-.1-.28-.1-.44-.05-.09-.06-.18-.07-.27 0-.1-.04-.2-.06-.3.02-.06-.04-.1-.05-.16-.02-.33-.1-.67-.11-1-.05-.24-.05-.47-.1-.71-.03-.14-.09-.3-.06-.45-.05-.93-.2-1.89-.23-2.82-.63.02.36-.3.58-.1.89Zm49.77-34.73c0 .01 0 0 0 0v.01h-.01Zm-37.58 35.09h.07-.01a.3.3 0 0 1-.06.01v-.01Zm2.93-1.04v.05-.05Zm-2.97 1.13.03-.07.06-.01a.15.15 0 0 0-.1.08Zm.22-.1h.06-.06Zm-10.83.58h-.01.01Zm.42.08h.01-.01Zm4.14-.96a.3.3 0 0 0-.02.06l-.03-.02.05-.04Zm-.75-.1c-.03 0-.07-.01-.1-.04.03.02.07.03.1.03Zm0 0"/>
            </g>
        </g>
    </g>
    <g clip-path="url(#d)">
        <g clip-path="url(#e)">
            <g clip-path="url(#f)">
                <path d="m428.28 347.57.27-.04c-.1-.06-.2-.04-.27.04Zm0 0"/>
            </g>
        </g>
    </g>
</svg>