<svg xmlns="http://www.w3.org/2000/svg" version="1.0" viewBox="0 0 960 600">
    <defs>
        <clipPath id="a">
            <path d="M317.15 255H596.9v44H317.15Zm0 0"/>
        </clipPath>
    </defs>
    <g clip-path="url(#a)">
        <path fill="#c0779d" d="M427.04 269.8c-4.5 3.84-8.9 6.77-13.18 8.69-16.9 8-33.93 4.05-50.94-1.02-17.58-5.07-34.03-9.8-44.62 7.1-.23.57-1.12 0-.79-.67 10.93-17.47 27.72-12.5 45.75-7.44 16.68 5.08 33.58 8.9 50.15 1.01 5.75-2.59 11.15-6.53 17.13-12.28.78-.67 1.69-1.35 2.59-1.92 2.48-1.35 8.8-.9 4.96 1.13-7.32 4.28-12.5 21.4-4.28 24 5.07 1.57 12.85-5.97 15.44-11.95-5.64-.22-8.68-3.38-9.35-8.68-1.24-10.93 10.92-17.35 12.96-5.18.67 3.94-.45 8.9-1.92 12.62 5.07-.57 10.36-4.96 13.86-8.57.56-.68 1.46.11.79.68-3.84 4.05-9.59 8.68-15.11 9.13-3.15 7.43-10.59 14.2-17.24 13.51-8.45-.9-10.59-9.23-7.77-17 .44-1.12.9-2.13 1.57-3.15Zm24.68-6.53c-1.58-10.81-11.5-5.3-10.48 4.06.56 4.84 3.27 7.88 8.46 8 1.46-3.49 2.58-8.34 2.02-12.06Zm48.34 19.5c16.9-7.89 33.92-4.06 50.94 1.01 17.57 5.07 34.04 9.8 44.63-7.1.22-.56 1.12 0 .78.68-10.93 17.46-27.72 12.5-45.75 7.43-16.68-5.07-33.46-8.68-50.15-1a56.23 56.23 0 0 0-16.34 11.6c-4.5 4.5-7.1 4.4-8.22 1.46-2.04-5.19 2.03-17.13 3.94-22.87-3.72 4.84-13.64 15.66-17.24 11.72-4.28-4.73 2.37-22.1 5.97-27.5 1.24-2.25 7.33-1.24 6.09.9-2.71 4.28-10.93 20.62-8.8 24.57 1.81 3.38 10.82-7.44 14.88-12.51 1.58-4.5 3.38-9.02 5.08-12.96 1-2.48 7.54-2.37 6.76 0-.34.79-11.61 26.82-13.08 35.72-.56 3.72.68 3.94 3.84.79 5.63-5.63 11.26-9.46 16.67-11.94Zm0 0"/>
    </g>
</svg>