<svg xmlns="http://www.w3.org/2000/svg" version="1.0" viewBox="310 140 340 250">
    <path fill="#225378" d="M548.27 218.87c43.3 9.86 75.28 42.36 75.28 81.38a69.6 69.6 0 0 1-6.22 28.75l24.64 35.03a5.65 5.65 0 0 1-5.86 8.74l-45.95-10.26c-16.25 13.02-42.42 22.23-69.53 22.23-46.23 0-85.6-24.99-98.5-59.79 4.39 1.12 8.85 1.94 13.37 2.47 13.5 26.87 46.41 46.06 85.13 46.06 24.59 0 47.65-7.8 64.72-21.42a5.62 5.62 0 0 1 4.7-1.11l34.26 7.68-18-25.64a5.5 5.5 0 0 1-.48-5.75 60.71 60.71 0 0 0 6.46-26.99c0-31.5-25.18-58.67-60.56-68.88a70.17 70.17 0 0 0-3.46-12.5Zm0 0"/>
    <path fill="#225378" d="M344.84 276.9c-4.16-8.33-7.04-20.42-7.04-32.97 0-53.1 50.88-95.76 113.19-95.76 62.25 0 113.12 42.65 113.12 95.76 0 53.1-50.87 95.75-113.12 95.75-28.87 0-56.1-9.15-76.8-25.4l-51 11.73a5.62 5.62 0 0 1-5.92-8.62ZM451 159.43c-56.5 0-101.92 38.08-101.92 84.5a71.43 71.43 0 0 0 7.22 31.21c.88 1.82.7 3.99-.47 5.63l-21 30.98 39.48-9.1a5.7 5.7 0 0 1 4.8 1.18c18.96 15.6 44.54 24.58 71.89 24.58 56.44 0 101.86-38.07 101.86-84.48 0-46.42-45.42-84.5-101.86-84.5Zm0 0"/>
    <path fill="#225378" fill-rule="evenodd" d="M412.03 243.93a11.27 11.27 0 1 1-22.54-.01 11.27 11.27 0 0 1 22.54 0ZM462.72 243.93a11.27 11.27 0 1 1-22.54-.01 11.27 11.27 0 0 1 22.54 0ZM513.42 243.93a11.27 11.27 0 1 1-22.54-.01 11.27 11.27 0 0 1 22.54 0Zm0 0"/>
</svg>