<svg xmlns="http://www.w3.org/2000/svg" version="1.0" viewBox="290 135 310 330">
    <defs>
        <clipPath id="a">
            <path d="M361 141.43h130V221H361Zm0 0"/>
        </clipPath>
        <clipPath id="b">
            <path d="M302 176h248v282.68H302Zm0 0"/>
        </clipPath>
        <clipPath id="c">
            <path d="M480 309h109.86v110H480Zm0 0"/>
        </clipPath>
    </defs>
    <g clip-path="url(#a)">
        <path fill="#225378" d="M371.43 220.71h109.02a9.94 9.94 0 0 0 9.9-9.9v-37.18a9.94 9.94 0 0 0-9.9-9.9H452.7c-2.48-12.4-13.63-22.3-26.76-22.3s-24.28 9.9-26.76 22.3h-27.75a9.94 9.94 0 0 0-9.91 9.9v37.17a9.94 9.94 0 0 0 9.91 9.91Zm0-47.08h32.21a4.97 4.97 0 0 0 4.96-4.95c0-9.42 7.92-17.34 17.34-17.34s17.35 7.92 17.35 17.34a4.97 4.97 0 0 0 4.95 4.95h32.2v37.17H371.44Zm0 0"/>
    </g>
    <path fill="#225378" d="M430.9 166.2a5.03 5.03 0 0 1-1.45 3.5 4.97 4.97 0 0 1-8.09-5.4 5 5 0 0 1 4.58-3.05 5.02 5.02 0 0 1 3.5 1.45 4.75 4.75 0 0 1 1.08 1.6 4.81 4.81 0 0 1 .37 1.9ZM393.73 245.49a4.97 4.97 0 0 0 4.95 4.95h94.16a4.97 4.97 0 0 0 4.95-4.95 4.97 4.97 0 0 0-4.95-4.96h-94.16a4.97 4.97 0 0 0-4.95 4.96ZM360.78 258.87c.99.99 2.23 1.48 3.71 1.48 1 0 1.99-.24 2.73-.74l14.62-9.91a4.86 4.86 0 0 0 1.23-6.94 4.86 4.86 0 0 0-6.93-1.24l-10.41 6.94-.99.25-1.98-2.23a5.02 5.02 0 0 0-6.94-.25 5.02 5.02 0 0 0-.25 6.94ZM492.84 265.3h-94.16a4.97 4.97 0 0 0-4.95 4.97 4.97 4.97 0 0 0 4.95 4.95h94.16a4.97 4.97 0 0 0 4.95-4.95 4.97 4.97 0 0 0-4.95-4.96ZM360.78 283.64c.99 1 2.23 1.49 3.71 1.49 1 0 1.99-.25 2.73-.74l14.62-9.91a4.86 4.86 0 0 0 1.23-6.94 4.86 4.86 0 0 0-6.93-1.24l-10.41 6.94-.99.24-1.98-2.23a5.02 5.02 0 0 0-6.94-.24 5.02 5.02 0 0 0-.25 6.94ZM497.8 295.04a4.97 4.97 0 0 0-4.96-4.95h-94.16a4.97 4.97 0 0 0-4.95 4.95 4.97 4.97 0 0 0 4.95 4.96h94.16a4.97 4.97 0 0 0 4.95-4.96ZM360.78 308.42c.99.99 2.23 1.49 3.71 1.49 1 0 1.99-.25 2.73-.75l14.62-9.9a4.86 4.86 0 0 0 1.23-6.94 4.86 4.86 0 0 0-6.93-1.24l-10.41 6.94-.99.24-1.98-2.23a5.02 5.02 0 0 0-6.94-.24 5.02 5.02 0 0 0-.25 6.93ZM360.78 333.2c.99.99 2.23 1.48 3.71 1.48 1 0 1.99-.24 2.73-.74l14.62-9.9a4.86 4.86 0 0 0 1.23-6.95 4.86 4.86 0 0 0-6.93-1.23l-10.41 6.93-.99.25-1.98-2.23a5.02 5.02 0 0 0-6.94-.25c-1.98 1.74-1.98 4.96-.25 6.94ZM360.78 357.97c.99 1 2.23 1.5 3.71 1.5 1 0 1.99-.26 2.73-.75l14.62-9.91c2.23-1.49 2.97-4.71 1.23-6.94a4.86 4.86 0 0 0-6.93-1.24l-10.41 6.94-.99.25-1.98-2.23a5.02 5.02 0 0 0-6.94-.25 5.02 5.02 0 0 0-.25 6.94ZM360.78 382.75c.99 1 2.23 1.49 3.71 1.49 1 0 1.99-.25 2.73-.74l14.62-9.92a4.86 4.86 0 0 0 1.23-6.94 4.86 4.86 0 0 0-6.93-1.23l-10.41 6.93-.99.25-1.98-2.23a5.02 5.02 0 0 0-6.94-.25 5.02 5.02 0 0 0-.25 6.94ZM360.78 407.53c.99.99 2.23 1.49 3.71 1.49 1 0 1.99-.25 2.73-.75l14.62-9.91a4.86 4.86 0 0 0 1.23-6.94 4.86 4.86 0 0 0-6.93-1.24l-10.41 6.94-.99.25-1.98-2.23a5.02 5.02 0 0 0-6.94-.25 5.02 5.02 0 0 0-.25 6.94ZM539.91 190.98v109.27c3.47.24 6.7.74 9.91 1.48V190.98a14.9 14.9 0 0 0-14.86-14.87h-34.69v9.91h34.69a4.97 4.97 0 0 1 4.95 4.96Zm0 0"/>
    <g clip-path="url(#b)">
        <path fill="#225378" d="M539.91 443.7a4.97 4.97 0 0 1-4.95 4.96H316.92a4.97 4.97 0 0 1-4.96-4.96V190.98a4.97 4.97 0 0 1 4.96-4.96h34.69v-9.9h-34.69a14.9 14.9 0 0 0-14.87 14.86V443.7c0 8.18 6.7 14.87 14.87 14.87h218.04c8.18 0 14.86-6.7 14.86-14.87v-16.6a63.99 63.99 0 0 1-9.9 1.49Zm0 0"/>
    </g>
    <path fill="#225378" d="M493.83 314.86h-95.15a4.97 4.97 0 0 0-4.95 4.96 4.97 4.97 0 0 0 4.95 4.95h85.48a61.21 61.21 0 0 1 9.67-9.9ZM393.73 344.6a4.97 4.97 0 0 0 4.95 4.95h73.6c.74-3.47 1.97-6.7 3.21-9.9h-76.8a4.97 4.97 0 0 0-4.96 4.94ZM398.68 374.33h72.6c-.5-3.22-.74-6.44-.74-9.91h-71.86a4.97 4.97 0 0 0 0 9.9ZM398.68 389.2a4.97 4.97 0 0 0 0 9.9h82.02a76 76 0 0 1-5.2-9.9ZM520.1 210.8v90.93a63.52 63.52 0 0 1 9.9-1.48V210.8c0-8.18-6.69-14.87-14.86-14.87h-14.87v9.91h14.87a4.97 4.97 0 0 1 4.95 4.96Zm0 0"/>
    <path fill="#225378" d="M336.74 205.84h14.87v-9.9h-14.87a14.9 14.9 0 0 0-14.86 14.86v213.08a14.9 14.9 0 0 0 14.86 14.87h178.4c6.44 0 12.14-4.21 14.12-10.16a67.2 67.2 0 0 1-10.16-1.73 4.82 4.82 0 0 1-3.96 1.98h-178.4a4.97 4.97 0 0 1-4.95-4.96V210.8a4.97 4.97 0 0 1 4.95-4.96Zm0 0"/>
    <g clip-path="url(#c)">
        <path fill="#225378" d="M534.96 309.9c-29.98 0-54.51 24.54-54.51 54.52 0 29.98 24.53 54.5 54.5 54.5 29.99 0 54.52-24.52 54.52-54.5s-24.53-54.51-54.51-54.51Zm0 99.12a44.73 44.73 0 0 1-44.6-44.6 44.73 44.73 0 0 1 44.6-44.6 44.73 44.73 0 0 1 44.6 44.6 44.73 44.73 0 0 1-44.6 44.6Zm0 0"/>
    </g>
    <path fill="#225378" d="m549.33 350.54-21.8 16.85-6.2-7.43a4.83 4.83 0 0 0-6.94-.75c-1.98 1.74-2.48 4.96-.74 6.94l9.17 10.9a4.78 4.78 0 0 0 3.72 1.74c.98 0 2.23-.25 2.97-1l25.52-19.82a5.07 5.07 0 0 0 .99-6.93c-1.49-1.74-4.7-2.23-6.7-.5Zm0 0"/>
</svg>