<svg xmlns="http://www.w3.org/2000/svg" version="1.0" viewBox="350 165 210 270">
    <defs>
        <clipPath id="a">
            <path d="M362 173.54h187v252.75H362Zm0 0"/>
        </clipPath>
    </defs>
    <path fill="#225378" d="M511.69 385.14H400.13a4.7 4.7 0 0 0-4.69 4.69 4.7 4.7 0 0 0 4.69 4.68h111.56a4.7 4.7 0 0 0 4.68-4.68 4.7 4.7 0 0 0-4.68-4.69ZM510.84 351.94H400.13a4.7 4.7 0 0 0-4.69 4.68 4.7 4.7 0 0 0 4.69 4.68h110.71a4.7 4.7 0 0 0 0-9.36ZM510.84 318.73H400.13a4.7 4.7 0 0 0-4.69 4.68 4.7 4.7 0 0 0 4.69 4.69h110.71a4.7 4.7 0 0 0 0-9.37ZM510.84 285.52H400.13a4.7 4.7 0 0 0-4.69 4.69 4.7 4.7 0 0 0 4.69 4.68h110.71a4.7 4.7 0 0 0 0-9.37ZM455.48 261.68h55.36a4.7 4.7 0 0 0 0-9.36h-55.36a4.7 4.7 0 0 0-4.68 4.68 4.7 4.7 0 0 0 4.68 4.68ZM418.02 257.84h-9.37a4.7 4.7 0 0 1-4.69-4.68 4.7 4.7 0 0 0-4.68-4.68 4.7 4.7 0 0 0-4.68 4.68 14.1 14.1 0 0 0 14.05 14.05v2.34a4.7 4.7 0 0 0 4.68 4.69 4.7 4.7 0 0 0 4.69-4.69v-2.34c7.73 0 14.05-6.32 14.05-14.05v-2.34c0-7.73-6.32-14.05-14.05-14.05h-9.37a4.7 4.7 0 0 1-4.69-4.68v-2.35a4.7 4.7 0 0 1 4.69-4.68h9.37a4.7 4.7 0 0 1 4.68 4.68 4.7 4.7 0 0 0 9.37 0 14.1 14.1 0 0 0-14.05-14.05v-2.34a4.7 4.7 0 0 0-9.37 0v2.34a14.1 14.1 0 0 0-14.05 14.05v2.35a14.1 14.1 0 0 0 14.05 14.05h9.37a4.7 4.7 0 0 1 4.68 4.68v2.34a4.7 4.7 0 0 1-4.68 4.68Zm0 0"/>
    <g clip-path="url(#a)">
        <path fill="#225378" d="M548.36 232.23a5.55 5.55 0 0 0-.93-1.41s0-.1-.05-.1l-55.78-55.77c-.42-.43-.94-.8-1.55-1.04a4.67 4.67 0 0 0-1.78-.37H376.29a14.1 14.1 0 0 0-14.06 14.05V412.4a14.1 14.1 0 0 0 14.06 14.05h158.4c7.72 0 14.04-6.32 14.04-14.05V234.05c0-.6-.14-1.21-.37-1.82Zm-55.4-42.72 39.8 39.81h-35.12a4.7 4.7 0 0 1-4.69-4.68Zm41.72 227.58h-158.4a4.7 4.7 0 0 1-4.68-4.69V187.6a4.7 4.7 0 0 1 4.69-4.68h107.3v41.73a14.1 14.1 0 0 0 14.05 14.05h41.73V412.4a4.7 4.7 0 0 1-4.69 4.69Zm0 0"/>
    </g>
</svg>