<svg xmlns="http://www.w3.org/2000/svg" fill="#225378" viewBox="0 -7.5 168 168">
    <g clip-path="url(#clip0)">
        <path d="M38.6 139c-.98 3.55-1.53 4.56-2.52 7.84a5.69 5.69 0 0 1-4.76 4.26c-6.43.95-12.87 2.07-19.41 1.14-6-.85-9.84-4.62-10.14-10.67-.51-10.31-.69-20.64-.96-30.97-.07-3.03-.11-6.07.08-9.09.38-6.13 3.26-9.4 9.38-9.81 6.71-.46 13.46-.35 20.2-.36 2.64 0 4.28 1.76 5.45 3.94.57 1.08.98 2.24 1.44 3.28 4.19-.59 8.24-1.33 12.33-1.7 7.48-.66 14.84.13 21.8 3.03 8.11 3.38 16.48 4.1 25.1 3.27 2.13-.19 4.27-.12 6.37.21 6.91 1.05 10.23 6.18 8.5 12.9-.13.54-.34 1.05-.71 2.19 2.42-.18 4.57-.26 6.7-.5 9.12-1.03 17.62-4.28 26.19-7.33 3.8-1.35 7.56-2.85 11.45-3.91 2.28-.58 4.63-.8 6.98-.62 4.15.27 6.09 3.29 5.03 7.28-.88 3.28-2.88 5.78-5.34 8-7.11 6.44-15.44 10.73-24.42 13.87-12.65 4.41-25.57 7.72-38.9 9.27-17.67 2.15-35.84 2.17-52.68-3.6-2.4-.84-4.9-1.18-7.15-1.92Zm.13-6.36c4.07 1.07 7.84 2.08 11.62 3.06 11.8 3.04 23.81 4.77 36 3.95 18.18-1.23 35.6-5.92 52.5-12.62a59.56 59.56 0 0 0 17.75-10.78 40.6 40.6 0 0 0 3.21-3.59l-.56-.84c-2.42.71-4.86 1.35-7.25 2.16-8.27 2.83-16.46 5.92-24.8 8.54-6.59 2.07-13.37 2.92-20.28 1.42-.98-.16-1.99 0-2.88.45-8.77 4.46-18.25 5.26-27.84 5.31-2.24-.1-4.45-.5-6.57-1.2a2.51 2.51 0 0 1-1.9-3.14 4.95 4.95 0 0 1 2.04-2.75 9.57 9.57 0 0 1 3.9-.9c3.7-.3 7.4-.46 11.1-.66 5.18-.3 10.32-.97 15.06-3.16a15.16 15.16 0 0 0 5.05-3.73c1.72-2 .8-3.97-1.84-4.24a39 39 0 0 0-6.38.07c-8.73.57-17.28-.04-25.42-3.6a43.33 43.33 0 0 0-4.74-1.74 44.32 44.32 0 0 0-24.91-.45c-3.18.86-3.15 1-2.98 4.19.26 5.15.62 10.3.71 15.47.05 2.78-.36 5.57-.6 8.78h.01Zm-9.35-34.96c-5.38 0-10.52-.05-15.66.01-4.6.06-5.76 1.23-5.86 5.83-.25 11.77-.64 23.55-.65 35.33 0 4.98 2.47 6.6 6 6.34 4.7-.35 9.4-.77 14.07-1.33 2.46-.3 2.9-1.07 2.85-3.65a49.04 49.04 0 0 1-.01-6.4c1.24-10.88.36-21.74-.18-32.6a34.37 34.37 0 0 0-.56-3.53ZM95.6 40.88c7.19 4.92 9.84 12.17 10.65 20.44 1.4 14.49-7.2 23.52-17.28 27.37-8.31 3.18-16.83 4.8-25.67 2.2-10.25-3.01-16.3-11.23-16.68-21.9-.47-13.3 7.51-25.44 20.6-30.79 7.97-3.25 23.45-.7 28.39 2.68ZM71.25 84.8c4.34.51 12.24-1.35 16.15-3.07 7.21-3.17 12.5-9 11.27-19.67-1.03-8.89-5.54-15.66-14.15-17.44-4.5-.93-13.27-1.35-17.73.54-9.75 4.14-13.53 13.92-13.03 24.6.5 10.46 11.03 14.27 17.5 15.04Z"/>
        <path d="M18.48 112.2c-2.92.04-4.97-1.84-5.07-4.64-.12-3.21 2.41-6.03 5.44-6.05 3.5-.02 6.22 2.04 6.24 4.73.03 2.9-3.32 5.92-6.6 5.96ZM77.96 54.76v7.97c1.16.44 2.25.8 3.3 1.25 4.12 1.77 5.13 5.65 2.43 9.21-1.12 1.47-2 2.06-5.28 3.57l-.92 4.68c-.16.87-.57 1.54-1.52 1.56-1 .02-1.35-.79-1.53-1.57-.33-1.47-.56-2.97-.86-4.62l-3.83-1.03c-.63-.15-1.25-.35-1.85-.6a2.24 2.24 0 0 1-1.45-2.62c.21-1.04 1.1-1.7 2.49-1.61 1.5.1 3 .35 4.45.54.61-1.69.68-2.69.42-5.55-1.02-.38-2.12-.72-3.15-1.2-4.2-1.93-5.12-6.11-2.15-9.65a11.06 11.06 0 0 1 4.68-3.44 2.18 2.18 0 0 0 1.61-2.25c.01-.8.18-1.58.5-2.3a1.7 1.7 0 0 1 1.34-.82 1.71 1.71 0 0 1 1.15 1.07c.18.93.28 1.87.3 2.81 1 .23 1.98.51 2.95.84 1.54.6 2.28 1.8 2.09 3.18-.17 1.2-.83 1.62-1.96 1.12-.99-.43-1.9-1.08-3.21-.54Zm-3.82 1.58c-2.12 1.25-3.2 2.6-2.82 3.59.47 1.2 1.56 1.5 2.82 1.66v-5.25Zm3.96 14.94c1.41-.52 2.7-1.14 2.66-2.57-.04-1.2-1.36-1.45-2.43-1.6-.06-.02-.13.04-.4.14 0 .83-.02 1.75 0 2.66.01.4.1.8.17 1.37ZM131.63 18.43v7.97c1.16.44 2.25.8 3.3 1.25 4.12 1.77 5.13 5.65 2.43 9.2-1.12 1.48-2 2.07-5.28 3.58-.3 1.57-.62 2.47-.91 4.02-.17.87-.58 1.54-1.53 1.56-1 .02-1.35-.79-1.52-1.57-.34-1.47-.56-2.3-.87-3.96l-3.83-1.03c-.63-.15-1.25-.35-1.85-.6a2.24 2.24 0 0 1-1.45-2.62c.21-1.04 1.1-1.7 2.49-1.61 1.5.1 3 .35 4.46.53.6-1.68.68-2.68.41-5.54-1.02-.38-2.12-.72-3.15-1.2-4.2-1.93-5.12-6.11-2.15-9.65a11.06 11.06 0 0 1 4.68-3.44 2.18 2.18 0 0 0 1.61-2.25c0-.8.18-1.58.5-2.3a1.7 1.7 0 0 1 1.34-.82 1.72 1.72 0 0 1 1.15 1.07 16 16 0 0 1 .3 2.81c1 .23 1.98.5 2.95.84 1.54.6 2.28 1.8 2.09 3.17-.17 1.22-.83 1.62-1.96 1.13-.98-.43-1.9-1.08-3.21-.54ZM127.81 20c-2.12 1.26-3.2 2.6-2.81 3.6.46 1.18 1.55 1.48 2.81 1.65V20Zm3.96 14.94c1.41-.52 2.7-1.14 2.66-2.57-.03-1.2-1.36-1.44-2.43-1.6-.06-.01-.13.04-.4.14 0 .84-.02 1.75 0 2.66.02.4.1.8.17 1.37Z"/>
        <path d="M148.57 4.66c7.18 4.9 9.84 12.16 10.64 20.43 1.4 14.49-7.2 23.52-17.28 27.37-8.3 3.18-16.83 4.8-25.67 2.2-10.25-3.01-16.3-11.24-16.67-21.9-.47-13.3 7.51-25.44 20.6-30.79 7.97-3.25 23.44-.7 28.38 2.69Zm-24.36 43.9c4.34.53 12.24-1.34 16.15-3.06 7.2-3.17 12.49-9 11.26-19.67-1.02-8.89-5.53-15.66-14.14-17.44-4.5-.93-13.27-1.35-17.73.54-9.75 4.14-13.54 13.92-13.03 24.6.5 10.46 11.03 14.27 17.49 15.04Z"/>
    </g>
</svg>