<svg xmlns="http://www.w3.org/2000/svg" version="1.0" viewBox="380 160 190 230">
    <defs>
        <clipPath id="a">
            <path d="M385.52 163H560v227H385.52Zm0 0"/>
        </clipPath>
    </defs>
    <path fill="#225378" d="M458.94 308.05a4.61 4.61 0 0 1-4.4-3.13l-6.06-17.72-17.68-6.02a4.64 4.64 0 0 1-1.76-7.7l2.39-2.38a7.1 7.1 0 0 1 4.57-2.05l16.93-.96 16-17.21-37.52-19.97a4.96 4.96 0 0 1-1.17-7.84l3.6-3.6a7.03 7.03 0 0 1 6.13-1.95l51.87 8.78a1498.48 1498.48 0 0 1 18.68-19.85c3.86-3.86 16.9-8.99 22.3-3.58 5.37 5.38.27 18.42-3.57 22.29-1.04 1.04-7.72 7.32-19.87 18.66l8.78 51.9a7.02 7.02 0 0 1-1.96 6.14l-3.57 3.58a4.95 4.95 0 0 1-7.84-1.16l-19.99-37.54-17.18 15.99-.95 16.98a7.05 7.05 0 0 1-2.05 4.59l-2.38 2.38a4.61 4.61 0 0 1-3.3 1.37Zm26.95-51.89a4.07 4.07 0 0 1 3.57 2.14l20.46 38.44.2-.2-9.05-53.5a4.04 4.04 0 0 1 1.22-3.63c17.14-16 20.65-19.36 21.23-19.93 1.93-1.96 4.08-8.7 3.52-10.84-2.16-.58-8.88 1.58-10.83 3.52-1.5 1.49-8.21 8.64-19.97 21.23a3.99 3.99 0 0 1-3.63 1.22l-53.48-9.04-.2.2 38.43 20.44a4.05 4.05 0 0 1 1.06 6.31l-20.66 22.26a4.02 4.02 0 0 1-2.73 1.27l-12.19.7 9.3 3.16a5.88 5.88 0 0 1 3.63 3.62l3.2 9.36.69-12.24a4.03 4.03 0 0 1 1.27-2.73l22.22-20.67a4 4 0 0 1 2.74-1.09Zm-51.11 23.03h-.01Zm-1.37-5.65Zm6.13-48.35Zm0 0"/>
    <g clip-path="url(#a)">
        <path fill="#225378" d="M543.5 163.54H413.05c-.36 0-.69.06-1.02.1-.19-.03-.35-.1-.52-.1-16.31 0-25.78 19.34-25.98 53.1V355.03c0 9.87 8.03 17.9 17.9 17.9h16.14v12.74a4.03 4.03 0 0 0 6.19 3.42l9.03-5.7 9.03 5.69a4.02 4.02 0 0 0 6.18-3.43v-12.72h100.04c5.41 0 9.81-4.4 9.81-9.82V179.9a16.34 16.34 0 0 0-16.33-16.35Zm-149.9 53.15c.04-8.66 1.06-33.32 10.4-42v161.27h-.56c-3.63 0-7 1.1-9.83 2.97l-.01-122.24Zm9.83 148.17a9.84 9.84 0 0 1-9.83-9.82v-1.18a9.84 9.84 0 0 1 9.83-9.82h148.35v6.38H411.5a4.03 4.03 0 1 0 0 8.06h8.07v6.38Zm38.51 13.5-5-3.15a4.03 4.03 0 0 0-4.3 0l-5 3.15v-19.88h14.3Zm108.11-13.5H450v-6.38h101.78v4.64c.01.96-.77 1.74-1.73 1.74Zm-137.98-28.91V172.57c0-.52.44-.96.97-.96h130.47a8.3 8.3 0 0 1 8.28 8.28v156.07H412.07Zm0 0"/>
    </g>
</svg>
