<svg xmlns="http://www.w3.org/2000/svg" version="1.0" viewBox="280 230 320 120">
    <defs>
        <clipPath id="a">
            <path d="M291.46 234.25H561V300H291.46Zm0 0"/>
        </clipPath>
        <clipPath id="b">
            <path d="M537.15 301h53v46.86h-53Zm0 0"/>
        </clipPath>
    </defs>
    <g clip-path="url(#a)">
        <path fill="#225378" d="M505.92 237.75c-3.24-.57-6.57-.9-9.87-.96l.06-2.54c3.43.08 6.87.42 10.25 1Zm-29.45 1.66-.73-2.42.64-.19a64.8 64.8 0 0 1 9.44-1.98l.33 2.5a61.65 61.65 0 0 0-9.07 1.91l-.6.18Zm48.16 4.71a62.5 62.5 0 0 0-9.1-3.91l.81-2.4a65.28 65.28 0 0 1 9.47 4.07Zm-66.25 3.51-1.3-2.17a93.2 93.2 0 0 1 9.05-4.81l1.06 2.3a89.92 89.92 0 0 0-8.8 4.68Zm80.95 9.4a61.67 61.67 0 0 0-6.71-7.28l1.7-1.87a64.11 64.11 0 0 1 7 7.58Zm-97.38 2.13-1.56-2a226.2 226.2 0 0 1 8.16-6.08l1.46 2.06a234.58 234.58 0 0 0-8.06 6.02Zm-15.89 12.55-1.54-2c2.7-2.09 5.36-4.2 7.93-6.25l1.57 1.97a725.55 725.55 0 0 1-7.96 6.28Zm123.97 2.19a114.72 114.72 0 0 0-4.95-8.7l2.14-1.35c1.77 2.81 3.47 5.8 5.05 8.9Zm-140.71 9.44-1.28-2.18 2.04-1.24a136 136 0 0 0 6.35-4.22l1.46 2.07a138.78 138.78 0 0 1-8.57 5.57ZM301 290.29a113.06 113.06 0 0 1-9.22-4.43l1.2-2.23c2.91 1.57 5.94 3.02 9.01 4.32Zm89.87 1.83-.88-2.37c3.13-1.16 6.23-2.47 9.21-3.9l1.09 2.3a118.08 118.08 0 0 1-9.42 3.98Zm166.74.28a99.9 99.9 0 0 0-3.38-9.4l2.34-.97c1.38 3.33 2.54 6.57 3.47 9.65Zm-237.17 4.2c-3.32-.77-6.64-1.7-9.86-2.74l.78-2.4c3.16 1.02 6.4 1.92 9.64 2.67Zm50.75.98-.47-2.48c3.28-.62 6.55-1.38 9.75-2.27l.67 2.44c-3.26.9-6.6 1.68-9.95 2.31Zm-30.54 1.93c-3.4-.2-6.81-.55-10.17-1.04l.36-2.5c3.29.47 6.64.82 9.96 1.01Zm10.22.2-.05-2.53c3.33-.08 6.7-.29 10-.63l.25 2.51c-3.37.35-6.8.57-10.2.64"/>
    </g>
    <g clip-path="url(#b)">
        <path fill="#225378" d="m542.72 325.07 22.6 8.22 2.15 8.9c.43 1.77 2.99 6.06 4.76 5.63 1.77-.42 2.09-5.41 1.66-7.18l-2.15-8.9 16.37-17.63a7.65 7.65 0 0 0 1.83-6.99l-.23-.93-4.89 3.9-.32-1.3a.33.33 0 0 0-.4-.25l-1.84.44a.33.33 0 0 0-.24.4l.6 2.48-5.73 4.58-.34-1.4a.32.32 0 0 0-.4-.24l-1.84.44a.33.33 0 0 0-.24.4l.62 2.56-5.21 4.17-2.4-9.94a26.44 26.44 0 0 0-2.31-6.12l2.63-1.26c1.36-.65 2.1-1.95 1.81-3.16l-6.23 1.5c-.05-.06-.1-.12-.14-.2l-1.05-1.45a.72.72 0 0 0-1.3.31l-.26 1.78-.04.24-6.23 1.5c.29 1.22 1.54 2.03 3.04 1.99l2.93-.08c-.02 2.18.22 4.37.73 6.5l2.4 9.93-6.54-1.33-.61-2.56a.34.34 0 0 0-.4-.24l-1.85.44a.32.32 0 0 0-.23.4l.33 1.4-7.19-1.46-.6-2.48a.33.33 0 0 0-.39-.24l-1.84.44a.33.33 0 0 0-.24.4l.32 1.32-6.14-1.25.22.93a7.64 7.64 0 0 0 4.82 5.39"/>
    </g>
</svg>
