<svg xmlns="http://www.w3.org/2000/svg" xmlns:xlink="http://www.w3.org/1999/xlink" width="1280" zoomAndPan="magnify" viewBox="0 0 960 599.999999" height="800" preserveAspectRatio="xMidYMid meet" version="1.0"><defs><clipPath id="96fac49f72"><path d="M 385.523438 163 L 560 163 L 560 390 L 385.523438 390 Z M 385.523438 163 " clip-rule="nonzero"/></clipPath></defs><path fill="#225378" d="M 458.941406 308.054688 C 458.597656 308.054688 458.238281 308.019531 457.882812 307.925781 C 456.316406 307.570312 455.074219 306.441406 454.542969 304.921875 L 448.484375 287.195312 L 430.804688 281.179688 C 429.28125 280.664062 428.152344 279.417969 427.785156 277.851562 C 427.417969 276.261719 427.890625 274.640625 429.042969 273.488281 L 431.425781 271.101562 C 432.65625 269.882812 434.28125 269.15625 436 269.054688 L 452.929688 268.085938 L 468.929688 250.875 L 431.414062 230.914062 C 430.042969 230.179688 429.085938 228.832031 428.855469 227.289062 C 428.625 225.753906 429.144531 224.175781 430.238281 223.070312 L 433.832031 219.476562 C 435.433594 217.878906 437.738281 217.128906 439.972656 217.519531 L 491.839844 226.296875 C 502.886719 214.457031 509 207.960938 510.519531 206.449219 C 514.378906 202.59375 527.417969 197.464844 532.820312 202.867188 C 538.1875 208.246094 533.085938 221.285156 529.25 225.15625 C 528.214844 226.203125 521.53125 232.480469 509.382812 243.816406 L 518.15625 295.71875 C 518.539062 297.964844 517.800781 300.253906 516.199219 301.855469 L 512.628906 305.4375 C 511.523438 306.542969 509.945312 307.050781 508.402344 306.832031 C 506.871094 306.601562 505.511719 305.644531 504.785156 304.277344 L 484.800781 266.738281 L 467.617188 282.726562 L 466.671875 299.714844 C 466.566406 301.453125 465.84375 303.078125 464.621094 304.296875 L 462.238281 306.683594 C 461.351562 307.582031 460.164062 308.054688 458.941406 308.054688 Z M 485.894531 256.164062 C 486.113281 256.164062 486.34375 256.1875 486.5625 256.222656 C 487.796875 256.429688 488.867188 257.199219 489.464844 258.304688 L 509.921875 296.742188 L 510.117188 296.546875 L 501.066406 243.03125 C 500.835938 241.695312 501.296875 240.335938 502.285156 239.40625 C 519.425781 223.40625 522.9375 220.054688 523.515625 219.476562 C 525.449219 217.519531 527.601562 210.78125 527.039062 208.640625 C 524.882812 208.0625 518.15625 210.21875 516.210938 212.164062 C 514.714844 213.648438 508 220.800781 496.238281 233.390625 C 495.316406 234.382812 493.957031 234.855469 492.609375 234.613281 L 439.132812 225.570312 L 438.933594 225.765625 L 477.359375 246.210938 C 478.464844 246.800781 479.238281 247.871094 479.445312 249.101562 C 479.652344 250.335938 479.273438 251.601562 478.421875 252.523438 L 457.757812 274.777344 C 457.042969 275.539062 456.074219 276 455.027344 276.054688 L 442.839844 276.746094 L 452.148438 279.914062 C 453.839844 280.492188 455.1875 281.847656 455.773438 283.53125 L 458.976562 292.894531 L 459.65625 280.652344 C 459.714844 279.605469 460.175781 278.625 460.933594 277.921875 L 483.152344 257.246094 C 483.902344 256.542969 484.882812 256.164062 485.894531 256.164062 Z M 434.777344 279.1875 L 434.765625 279.199219 C 434.765625 279.199219 434.765625 279.1875 434.777344 279.1875 Z M 433.40625 273.542969 L 433.417969 273.542969 C 433.417969 273.542969 433.40625 273.542969 433.40625 273.542969 Z M 439.535156 225.191406 Z M 439.535156 225.191406 " fill-opacity="1" fill-rule="nonzero"/><g clip-path="url(#96fac49f72)"><path fill="#225378" d="M 543.507812 163.535156 L 413.042969 163.535156 C 412.683594 163.535156 412.351562 163.601562 412.015625 163.636719 C 411.832031 163.613281 411.671875 163.535156 411.5 163.535156 C 395.1875 163.535156 385.722656 182.882812 385.523438 216.632812 C 385.523438 217.324219 385.523438 321.289062 385.523438 353.863281 C 385.523438 354 385.523438 354.148438 385.523438 354.277344 L 385.523438 355.035156 C 385.523438 364.90625 393.554688 372.9375 403.425781 372.9375 L 419.5625 372.9375 L 419.5625 385.675781 C 419.5625 387.148438 420.355469 388.496094 421.644531 389.210938 C 422.257812 389.546875 422.925781 389.71875 423.59375 389.71875 C 424.339844 389.71875 425.089844 389.511719 425.746094 389.097656 L 434.777344 383.40625 L 443.808594 389.085938 C 445.050781 389.867188 446.617188 389.914062 447.90625 389.199219 C 449.199219 388.484375 449.992188 387.136719 449.992188 385.664062 L 449.992188 372.9375 L 550.027344 372.9375 C 555.441406 372.9375 559.84375 368.535156 559.84375 363.121094 L 559.84375 179.890625 C 559.867188 170.871094 552.527344 163.535156 543.507812 163.535156 Z M 393.597656 216.691406 C 393.644531 208.027344 394.660156 183.367188 404 174.695312 L 404 335.960938 L 403.4375 335.960938 C 399.808594 335.960938 396.433594 337.066406 393.609375 338.933594 C 393.597656 300.441406 393.597656 217.679688 393.597656 216.691406 Z M 403.425781 364.863281 C 398 364.863281 393.597656 360.449219 393.597656 355.035156 L 393.597656 354.277344 C 393.597656 354.148438 393.597656 353.988281 393.597656 353.863281 C 393.597656 348.4375 398.011719 344.035156 403.425781 344.035156 L 551.78125 344.035156 L 551.78125 350.417969 L 411.5 350.417969 C 409.265625 350.417969 407.46875 352.226562 407.46875 354.449219 C 407.46875 356.683594 409.277344 358.480469 411.5 358.480469 L 419.574219 358.480469 L 419.574219 364.863281 Z M 441.941406 378.359375 L 436.941406 375.214844 C 435.628906 374.386719 433.960938 374.386719 432.644531 375.214844 L 427.648438 378.359375 L 427.648438 358.480469 L 441.941406 358.480469 Z M 550.050781 364.863281 L 450.003906 364.863281 L 450.003906 358.480469 L 551.78125 358.480469 L 551.78125 363.121094 C 551.792969 364.078125 551.007812 364.863281 550.050781 364.863281 Z M 412.074219 335.949219 L 412.074219 172.574219 C 412.074219 172.046875 412.511719 171.609375 413.042969 171.609375 L 543.507812 171.609375 C 548.070312 171.609375 551.792969 175.316406 551.792969 179.890625 L 551.792969 335.960938 L 412.074219 335.960938 Z M 412.074219 335.949219 " fill-opacity="1" fill-rule="nonzero"/></g></svg>