<svg xmlns="http://www.w3.org/2000/svg" xmlns:xlink="http://www.w3.org/1999/xlink" width="1280" zoomAndPan="magnify" viewBox="0 0 960 599.999999" height="800" preserveAspectRatio="xMidYMid meet" version="1.0"><defs><clipPath id="7b5f988591"><path d="M 291.460938 234.253906 L 561 234.253906 L 561 300 L 291.460938 300 Z M 291.460938 234.253906 " clip-rule="nonzero"/></clipPath><clipPath id="e94d882e64"><path d="M 537.152344 301 L 590.152344 301 L 590.152344 347.855469 L 537.152344 347.855469 Z M 537.152344 301 " clip-rule="nonzero"/></clipPath></defs><g clip-path="url(#7b5f988591)"><path fill="#225378" d="M 505.921875 237.75 C 502.675781 237.179688 499.351562 236.855469 496.054688 236.785156 L 496.109375 234.253906 C 499.535156 234.328125 502.984375 234.667969 506.359375 235.257812 Z M 476.472656 239.410156 L 475.738281 236.992188 C 475.953125 236.929688 476.164062 236.863281 476.378906 236.804688 C 479.433594 235.917969 482.609375 235.25 485.820312 234.820312 L 486.152344 237.328125 C 483.070312 237.738281 480.015625 238.378906 477.078125 239.234375 C 476.875 239.292969 476.671875 239.351562 476.472656 239.410156 Z M 524.632812 244.121094 C 521.734375 242.589844 518.675781 241.273438 515.53125 240.207031 L 516.34375 237.8125 C 519.613281 238.921875 522.800781 240.292969 525.8125 241.882812 Z M 458.382812 247.632812 L 457.082031 245.464844 C 460.1875 243.597656 463.148438 242.023438 466.128906 240.648438 L 467.191406 242.949219 C 464.289062 244.28125 461.410156 245.816406 458.382812 247.632812 Z M 539.332031 257.035156 C 537.117188 254.238281 534.859375 251.789062 532.617188 249.746094 L 534.320312 247.878906 C 536.664062 250.011719 539.015625 252.558594 541.316406 255.460938 Z M 441.945312 259.160156 L 440.394531 257.164062 C 443.464844 254.777344 446.058594 252.84375 448.550781 251.078125 L 450.011719 253.140625 C 447.550781 254.886719 444.988281 256.800781 441.945312 259.160156 Z M 426.0625 271.714844 L 424.515625 269.710938 C 427.21875 267.621094 429.875 265.503906 432.445312 263.457031 L 434.023438 265.433594 C 431.445312 267.488281 428.78125 269.609375 426.0625 271.714844 Z M 550.027344 273.898438 C 548.476562 270.875 546.808594 267.945312 545.078125 265.195312 L 547.21875 263.847656 C 548.988281 266.664062 550.691406 269.65625 552.273438 272.746094 Z M 409.320312 283.335938 L 408.035156 281.160156 C 408.71875 280.75 409.398438 280.335938 410.078125 279.917969 C 412.132812 278.636719 414.214844 277.257812 416.429688 275.699219 L 417.886719 277.769531 C 415.625 279.355469 413.507812 280.761719 411.414062 282.0625 C 410.722656 282.496094 410.023438 282.917969 409.320312 283.335938 Z M 301 290.285156 C 297.859375 288.949219 294.757812 287.457031 291.777344 285.855469 L 292.976562 283.628906 C 295.890625 285.195312 298.921875 286.648438 301.992188 287.953125 Z M 390.871094 292.125 L 389.992188 289.75 C 393.117188 288.589844 396.21875 287.277344 399.203125 285.855469 L 400.289062 288.144531 C 397.238281 289.59375 394.070312 290.933594 390.871094 292.125 Z M 557.609375 292.398438 C 556.714844 289.410156 555.578125 286.246094 554.234375 282.992188 L 556.574219 282.027344 C 557.953125 285.359375 559.113281 288.601562 560.035156 291.675781 Z M 320.4375 296.59375 C 317.117188 295.828125 313.800781 294.90625 310.582031 293.863281 L 311.363281 291.460938 C 314.515625 292.480469 317.757812 293.378906 321.003906 294.128906 Z M 371.1875 297.582031 L 370.71875 295.097656 C 373.996094 294.480469 377.273438 293.71875 380.46875 292.832031 L 381.140625 295.269531 C 377.882812 296.175781 374.53125 296.953125 371.1875 297.582031 Z M 340.652344 299.511719 C 337.257812 299.304688 333.839844 298.957031 330.484375 298.472656 L 330.84375 295.96875 C 334.128906 296.441406 337.480469 296.785156 340.804688 296.984375 Z M 350.871094 299.703125 L 350.816406 297.175781 C 354.148438 297.101562 357.511719 296.890625 360.8125 296.546875 L 361.070312 299.0625 C 357.703125 299.414062 354.273438 299.628906 350.871094 299.703125 " fill-opacity="1" fill-rule="nonzero"/></g><g clip-path="url(#e94d882e64)"><path fill="#225378" d="M 542.71875 325.066406 L 565.324219 333.289062 L 567.472656 342.183594 C 567.902344 343.957031 570.457031 348.253906 572.230469 347.824219 C 574 347.398438 574.316406 342.410156 573.890625 340.636719 L 571.742188 331.738281 L 588.109375 314.109375 C 589.847656 312.234375 590.535156 309.609375 589.9375 307.121094 L 589.710938 306.1875 L 584.820312 310.097656 L 584.5 308.78125 C 584.457031 308.601562 584.277344 308.492188 584.101562 308.535156 L 582.261719 308.980469 C 582.085938 309.023438 581.976562 309.199219 582.019531 309.375 L 582.617188 311.855469 L 576.890625 316.4375 L 576.550781 315.035156 C 576.511719 314.859375 576.332031 314.753906 576.15625 314.796875 L 574.3125 315.238281 C 574.136719 315.28125 574.03125 315.460938 574.074219 315.636719 L 574.6875 318.199219 L 569.476562 322.367188 L 567.078125 312.433594 C 566.5625 310.300781 565.785156 308.246094 564.765625 306.3125 L 567.402344 305.046875 C 568.761719 304.398438 569.503906 303.101562 569.210938 301.894531 L 562.980469 303.398438 C 562.933594 303.332031 562.886719 303.265625 562.839844 303.195312 L 561.789062 301.738281 C 561.414062 301.214844 560.589844 301.414062 560.492188 302.054688 L 560.226562 303.832031 C 560.210938 303.910156 560.199219 303.992188 560.1875 304.074219 L 553.957031 305.578125 C 554.25 306.785156 555.503906 307.597656 557.003906 307.558594 L 559.929688 307.480469 C 559.90625 309.664062 560.152344 311.847656 560.664062 313.980469 L 563.0625 323.914062 L 556.523438 322.582031 L 555.90625 320.019531 C 555.859375 319.84375 555.683594 319.738281 555.507812 319.777344 L 553.664062 320.222656 C 553.488281 320.265625 553.378906 320.441406 553.425781 320.621094 L 553.761719 322.023438 L 546.574219 320.558594 L 545.976562 318.082031 C 545.933594 317.902344 545.757812 317.792969 545.582031 317.835938 L 543.738281 318.28125 C 543.5625 318.324219 543.453125 318.5 543.496094 318.675781 L 543.816406 319.996094 L 537.675781 318.746094 L 537.902344 319.683594 C 538.503906 322.171875 540.3125 324.191406 542.71875 325.066406 " fill-opacity="1" fill-rule="nonzero"/></g></svg>