<svg xmlns="http://www.w3.org/2000/svg" version="1.0" viewBox="360 170 240 250">
    <defs>
        <clipPath id="a">
            <path d="M367 174.17h226v230.25H367Zm0 0"/>
        </clipPath>
    </defs>
    <g clip-path="url(#a)">
        <path fill="#225378" fill-rule="evenodd" d="M387.7 253.86h184.97l10.73 126.72c.37 4.37-.75 8.05-2.76 10.52-2.01 2.48-4.82 3.97-8.98 3.97H388.71c-4.16 0-6.97-1.49-8.98-3.97-2.02-2.47-3.15-6.15-2.78-10.52Zm126.55-69.76c1.8-.09 3.66.35 5.48 1.34 3.9 2.1 7.16 6.97 8.33 12.99h-9.39c-6.61-.32-6.61 9.78 0 9.44h36.23c4.64 0 8.21 1.18 10.62 3.08 2.38 1.88 3.9 4.5 4.27 8.86l2.08 24.6H388.5l2.09-24.6c.36-4.36 1.88-6.98 4.26-8.86 2.39-1.9 5.98-3.08 10.62-3.08h17.25c.26 1.96.65 3.9 1.25 5.8 3.32 10.33 11.58 17.9 21.44 17.9 6.63.3 6.63-9.78 0-9.47-4.95 0-10.06-3.94-12.43-11.32-2.36-7.36-.89-16.17 3.22-21.48 2.57-3.34 5.48-5.03 8.5-5.2 1.82-.08 3.67.36 5.5 1.35 3.89 2.08 7.15 6.96 8.32 12.98h-15.45c-6.3 0-6.37 9.44.04 9.44h49.14c.28 1.96.66 3.9 1.27 5.8 3.3 10.33 11.57 17.9 21.42 17.9 6.63.31 6.63-9.78 0-9.46-4.95 0-10.06-3.95-12.43-11.33-2.36-7.36-.89-16.17 3.22-21.48 2.58-3.34 5.5-5.03 8.52-5.2Zm-67.36-9.24a19.67 19.67 0 0 0-6.13.57 22.3 22.3 0 0 0-12.06 8.07 30.94 30.94 0 0 0-6.04 14.92h-17.19c-6.22 0-12.02 1.56-16.48 5.1-4.45 3.53-7.29 9.02-7.85 15.5L367.51 379.8c-.56 6.47 1.12 12.62 4.86 17.24 3.73 4.63 9.63 7.52 16.34 7.52h182.95c6.7 0 12.6-2.89 16.34-7.52 3.74-4.62 5.38-10.77 4.84-17.24l-13.63-160.77c-.55-6.48-3.38-11.97-7.84-15.5-4.46-3.53-10.25-5.1-16.47-5.1h-17.24c-1.22-9.18-5.92-17.28-13.46-21.33a19.15 19.15 0 0 0-13.9-1.65 22.3 22.3 0 0 0-12.07 8.06 31.43 31.43 0 0 0-6.05 14.92h-24.07c-1.2-9.18-5.92-17.28-13.46-21.33a19 19 0 0 0-7.76-2.23Zm0 0"/>
    </g>
    <path fill="#225378" d="m522.15 286.33 7.08 7.08c1.23 1.24 1.34 3.93-.93 6.2l-62.2 62.21c-.97.95-4.1 1.18-5.29 0l-28.78-28.78c-2.27-2.27-2.16-4.97-.9-6.2l7.07-7.08c1.25-1.25 3.93-1.36 6.2.91l15.7 15.72a4.76 4.76 0 0 0 6.71 0l49.14-49.14c2.51-2.5 4.62-2.5 6.2-.92Zm-3.9-10.51c-3.59.46-6.6 2.36-9 4.75l-45.8 45.79L451.12 314c-5.38-5.38-14.23-6.33-19.61-.94l-7.09 7.08c-5.39 5.38-4.46 14.2.92 19.61l28.78 28.74a13.2 13.2 0 0 0 18.7 0L535 306.32c5.38-5.39 6.31-14.21.9-19.62l-7.03-7.08c-2.95-2.94-7-4.26-10.6-3.8Zm0 0"/>
</svg>