<svg xmlns="http://www.w3.org/2000/svg" viewBox="5 5 53 53" id="puzzle">
    <path d="M56.82 29.66h-7.5l-.06-.94a3.26 3.26 0 00-6.51 0l-.06.94H34.33V23.45a5.27 5.27 0 010-10.36V6.83H56.82zm-5.71-2h3.71V8.83H36.33V15h-1a3.28 3.28 0 100 6.56h1v6.11H40.9a5.26 5.26 0 0110.21 0zM16.85 33.3a5.28 5.28 0 01-5.22-4.6H6.05V5.9H28.54v8.16h-1a3.28 3.28 0 100 6.55h1v8.12l-6.45 0A5.29 5.29 0 0116.85 33.3zm-3.27-5.36V28a3.28 3.28 0 106.56 0V27.9l-.32-1.24 1.3 0 5.42 0v-4.2a5.28 5.28 0 010-10.37V7.9H8.05V26.7h5.84l-.31 1.24zM28.54 56.14H6.05V34h7.84l-.31 1.24h0v.07a3.28 3.28 0 106.56 0v-.11l-.32-1.24 1.3 0 7.42 0v6.78a5.27 5.27 0 010 10.36zm-20.49-2H26.54V49.23h1a3.28 3.28 0 100-6.56h-1V36l-4.45 0a5.27 5.27 0 01-10.46 0H8.05zM56.82 57.46H34.33V50.55h1a3.28 3.28 0 100-6.56h-1V35.31H40.9a5.25 5.25 0 0110.21 0h5.71zm-20.49-2H54.82V37.31h-5.5l-.06-.94a3.26 3.26 0 00-6.51 0l-.06.94H36.33v4.78a5.27 5.27 0 010 10.36z"></path>
</svg>