<svg xmlns="http://www.w3.org/2000/svg" viewBox="5 5 53 53">
    <path d="M56.82 29.66h-7.5l-.06-.94a3.26 3.26 0 0 0-6.51 0l-.06.94h-8.36v-6.21a5.27 5.27 0 0 1 0-10.36V6.83h22.49zm-5.71-2h3.71V8.83H36.33V15h-1a3.28 3.28 0 1 0 0 6.56h1v6.11h4.57a5.26 5.26 0 0 1 10.21 0zM16.85 33.3a5.28 5.28 0 0 1-5.22-4.6H6.05V5.9h22.49v8.16h-1a3.28 3.28 0 1 0 0 6.55h1v8.12h-6.45a5.29 5.29 0 0 1-5.24 4.57zm-3.27-5.36V28a3.28 3.28 0 1 0 6.56 0v-.1l-.32-1.24h6.72v-4.2a5.28 5.28 0 0 1 0-10.37V7.9H8.05v18.8h5.84l-.31 1.24zm14.96 28.2H6.05V34h7.84l-.31 1.24v.07a3.28 3.28 0 1 0 6.56 0v-.11l-.32-1.24h8.72v6.78a5.27 5.27 0 0 1 0 10.36zm-20.49-2h18.49v-4.91h1a3.28 3.28 0 1 0 0-6.56h-1V36h-4.45a5.27 5.27 0 0 1-10.46 0H8.05zm48.77 3.32H34.33v-6.91h1a3.28 3.28 0 1 0 0-6.56h-1v-8.68h6.57a5.25 5.25 0 0 1 10.21 0h5.71zm-20.49-2h18.49V37.31h-5.5l-.06-.94a3.26 3.26 0 0 0-6.51 0l-.06.94h-6.36v4.78a5.27 5.27 0 0 1 0 10.36z"/>
</svg>