<svg xmlns="http://www.w3.org/2000/svg" xmlns:xlink="http://www.w3.org/1999/xlink" width="1280" zoomAndPan="magnify" viewBox="0 0 960 599.999999" height="800" preserveAspectRatio="xMidYMid meet" version="1.0"><defs><clipPath id="81ae0ee9c3"><path d="M 471 277.273438 L 492 277.273438 L 492 307 L 471 307 Z M 471 277.273438 " clip-rule="nonzero"/></clipPath><clipPath id="8d1d999818"><path d="M 471 277.273438 L 492 277.273438 L 492 307.273438 L 471 307.273438 Z M 471 277.273438 " clip-rule="nonzero"/></clipPath><clipPath id="42f510bb5f"><path d="M 501 277.273438 L 521 277.273438 L 521 307 L 501 307 Z M 501 277.273438 " clip-rule="nonzero"/></clipPath><clipPath id="c1d2533f96"><path d="M 500 277.273438 L 521 277.273438 L 521 307.273438 L 500 307.273438 Z M 500 277.273438 " clip-rule="nonzero"/></clipPath><clipPath id="49a1626def"><path d="M 304.210938 291 L 449 291 L 449 294 L 304.210938 294 Z M 304.210938 291 " clip-rule="nonzero"/></clipPath></defs><g clip-path="url(#81ae0ee9c3)"><path fill="#225378" d="M 491.230469 287.222656 L 491.230469 297.074219 C 491.230469 299.75 490.144531 302.171875 488.390625 303.921875 C 486.640625 305.675781 484.21875 306.761719 481.542969 306.761719 L 481.542969 296.914062 C 476.191406 296.914062 471.855469 292.574219 471.855469 287.222656 C 471.855469 281.871094 476.191406 277.535156 481.542969 277.535156 C 486.894531 277.535156 491.230469 281.875 491.230469 287.222656 Z M 491.230469 287.222656 " fill-opacity="1" fill-rule="nonzero"/></g><g clip-path="url(#8d1d999818)"><path fill="#225378" d="M 481.542969 307.023438 L 481.277344 307.023438 L 481.277344 297.171875 C 475.914062 297.03125 471.589844 292.625 471.589844 287.222656 C 471.589844 281.824219 476.054688 277.273438 481.542969 277.273438 C 487.027344 277.273438 491.492188 281.738281 491.492188 287.222656 L 491.492188 297.074219 C 491.492188 299.730469 490.457031 302.230469 488.578125 304.109375 C 486.699219 305.988281 484.199219 307.023438 481.542969 307.023438 Z M 481.542969 277.800781 C 476.34375 277.800781 472.117188 282.027344 472.117188 287.222656 C 472.117188 292.421875 476.34375 296.648438 481.542969 296.648438 L 481.804688 296.648438 L 481.804688 306.496094 C 484.222656 306.429688 486.488281 305.457031 488.207031 303.738281 C 489.984375 301.957031 490.964844 299.589844 490.964844 297.074219 L 490.964844 287.222656 C 490.964844 282.027344 486.738281 277.800781 481.542969 277.800781 Z M 481.542969 277.800781 " fill-opacity="1" fill-rule="nonzero"/></g><g clip-path="url(#42f510bb5f)"><path fill="#225378" d="M 520.570312 287.222656 L 520.570312 297.074219 C 520.570312 299.75 519.484375 302.171875 517.730469 303.921875 C 515.980469 305.675781 513.558594 306.761719 510.882812 306.761719 L 510.882812 296.914062 C 505.53125 296.914062 501.195312 292.574219 501.195312 287.222656 C 501.195312 281.871094 505.53125 277.535156 510.882812 277.535156 C 516.234375 277.535156 520.570312 281.875 520.570312 287.222656 Z M 520.570312 287.222656 " fill-opacity="1" fill-rule="nonzero"/></g><g clip-path="url(#c1d2533f96)"><path fill="#225378" d="M 510.882812 307.023438 L 510.617188 307.023438 L 510.617188 297.171875 C 505.253906 297.03125 500.929688 292.625 500.929688 287.222656 C 500.929688 281.824219 505.394531 277.273438 510.882812 277.273438 C 516.371094 277.273438 520.832031 281.738281 520.832031 287.222656 L 520.832031 297.074219 C 520.832031 299.730469 519.796875 302.230469 517.917969 304.109375 C 516.039062 305.988281 513.539062 307.023438 510.882812 307.023438 Z M 510.882812 277.800781 C 505.683594 277.800781 501.457031 282.027344 501.457031 287.222656 C 501.457031 292.421875 505.683594 296.648438 510.882812 296.648438 L 511.144531 296.648438 L 511.144531 306.496094 C 513.566406 306.429688 515.828125 305.457031 517.546875 303.738281 C 519.324219 301.957031 520.304688 299.589844 520.304688 297.074219 L 520.304688 287.222656 C 520.304688 282.027344 516.078125 277.800781 510.882812 277.800781 Z M 510.882812 277.800781 " fill-opacity="1" fill-rule="nonzero"/></g><path fill="#225378" d="M 543.535156 291.09375 L 687.558594 291.09375 L 687.558594 293.203125 L 543.535156 293.203125 Z M 543.535156 291.09375 " fill-opacity="1" fill-rule="nonzero"/><g clip-path="url(#49a1626def)"><path fill="#225378" d="M 304.863281 291.09375 L 448.886719 291.09375 L 448.886719 293.203125 L 304.863281 293.203125 Z M 304.863281 291.09375 " fill-opacity="1" fill-rule="nonzero"/></g></svg>