<svg xmlns="http://www.w3.org/2000/svg" version="1.0" viewBox="300 270 400 40">
    <defs>
        <clipPath id="a">
            <path d="M471 277.27h21V307h-21Zm0 0"/>
        </clipPath>
        <clipPath id="b">
            <path d="M471 277.27h21v30h-21Zm0 0"/>
        </clipPath>
        <clipPath id="c">
            <path d="M501 277.27h20V307h-20Zm0 0"/>
        </clipPath>
        <clipPath id="d">
            <path d="M500 277.27h21v30h-21Zm0 0"/>
        </clipPath>
        <clipPath id="e">
            <path d="M304.21 291H449v3H304.21Zm0 0"/>
        </clipPath>
    </defs>
    <g clip-path="url(#a)">
        <path fill="#225378" d="M491.23 287.22v9.85c0 2.68-1.09 5.1-2.84 6.85a9.64 9.64 0 0 1-6.85 2.84v-9.85a9.69 9.69 0 1 1 9.69-9.69Zm0 0"/>
    </g>
    <g clip-path="url(#b)">
        <path fill="#225378" d="M481.54 307.02h-.26v-9.85a9.96 9.96 0 0 1-9.69-9.95c0-5.4 4.46-9.95 9.95-9.95a9.96 9.96 0 0 1 9.95 9.95v9.85a9.89 9.89 0 0 1-2.91 7.04 9.89 9.89 0 0 1-7.04 2.91Zm0-29.22a9.43 9.43 0 0 0 0 18.85h.26v9.85a9.36 9.36 0 0 0 6.4-2.76 9.38 9.38 0 0 0 2.76-6.67v-9.85c0-5.2-4.22-9.42-9.42-9.42Zm0 0"/>
    </g>
    <g clip-path="url(#c)">
        <path fill="#225378" d="M520.57 287.22v9.85c0 2.68-1.09 5.1-2.84 6.85a9.64 9.64 0 0 1-6.85 2.84v-9.85a9.69 9.69 0 1 1 9.69-9.69Zm0 0"/>
    </g>
    <g clip-path="url(#d)">
        <path fill="#225378" d="M510.88 307.02h-.26v-9.85a9.96 9.96 0 0 1-9.69-9.95c0-5.4 4.46-9.95 9.95-9.95a9.96 9.96 0 0 1 9.95 9.95v9.85a9.89 9.89 0 0 1-2.91 7.04 9.89 9.89 0 0 1-7.04 2.91Zm0-29.22a9.43 9.43 0 0 0 0 18.85h.26v9.85a9.36 9.36 0 0 0 6.4-2.76 9.38 9.38 0 0 0 2.76-6.67v-9.85c0-5.2-4.22-9.42-9.42-9.42Zm0 0"/>
    </g>
    <path fill="#225378" d="M543.54 291.1h144.02v2.1H543.54Zm0 0"/>
    <g clip-path="url(#e)">
        <path fill="#225378" d="M304.86 291.1H448.9v2.1H304.86Zm0 0"/>
    </g>
</svg>